<svg xmlns="http://www.w3.org/2000/svg" width="71" height="295.73" viewBox="0 0 71 295.73"><defs><style>.a{fill:#422645;}.b{fill:#ffc4a4;}.c{fill:#445690;}.d{fill:#f19542;}.e{fill:#efa381;}.f{fill:#ffaca6;}.g{fill:#bd1e2d;}.h{fill:#841929;}.i{fill:#fff;}.j{fill:#336e84;}.k{fill:#ea6e68;}.l{fill:#404041;}</style></defs><title>Asset 7Justicia</title><path class="a" d="M25.63,4.14c-8.9,26.37.65,39.78.65,39.78L46,45S54.64,36.74,48.62,9C46.68.15,25.63,4.14,25.63,4.14Z"/><path class="a" d="M23.64,287.39s-4.47,5.32-4.82,8.34h6.4L26.8,294v1.78a7.8,7.8,0,0,0,.78-8.34Z"/><path class="a" d="M44.71,287.39s4.47,5.32,4.82,8.34h-6.4L41.55,294v1.78a7.8,7.8,0,0,1-.78-8.34Z"/><path class="b" d="M19.6,98.32s-10.76,13.6-9,47.59,13,141.48,13,141.48-.48,1.71,0,1.89c1,.4,3.94-1.89,3.94-1.89l7.24-146.75,6,146.75s2.88,2.37,3.94,1.94c.48-.2,0-1.94,0-1.94S55.88,178.52,59.09,139.17c2.1-25.83-9-40.3-9-40.3Z"/><path class="c" d="M19.6,98.32S1.94,117.39,8.91,192.85c0,0,9.64,3.9,16.58,0s17.1,3.12,22.79,3.49,5.77-5.43,11.07-3.49S65,188.51,65,188.51s1.16-73.61-14.91-89.64Z"/><path class="b" d="M63.79,51s-8.34,10-8.34,15.58,4.17,43.78,4.17,43.78l7.32,49.05h2.92s-3.34-47.23-2.92-56S64.65,54.26,63.79,51Z"/><path class="b" d="M7.21,51s8.34,10,8.34,15.58-4.17,43.78-4.17,43.78L4.06,159.4H1.14s3.35-47.23,2.92-56S6.36,54.26,7.21,51Z"/><path class="d" d="M50.06,98.87C50.05,84.93,65.51,56.3,63.79,51c-2.12-6.55-27.1-12.48-27.1-12.48s-26.25,3-29.31,11.15C5.72,54.06,19.79,84.94,19.6,98.32c0,0,2.08,3.26,14.82,3.26C46.25,101.58,50.06,98.87,50.06,98.87Z"/><path class="b" d="M67.21,158A23.45,23.45,0,0,0,65,163.46a7.22,7.22,0,0,0,1.09,4.25s.25-.4-.07-2.21,1.65-1,1.17,3.31c-.32,2.83,1.59,0,1.59,0s4.39-3.45.78-10.52C69.58,158.29,69.09,157.16,67.21,158Z"/><path class="b" d="M3.79,158A23.79,23.79,0,0,1,6,163.46a7.27,7.27,0,0,1-1.1,4.25s-.24-.4.07-2.21-1.65-1-1.17,3.31c.32,2.83-1.58,0-1.58,0s-4.39-3.45-.79-10.52C1.42,158.29,1.92,157.16,3.79,158Z"/><path class="e" d="M30.43,31S32,36.68,31,40.33c0,0,3.4,4.7,11.22.52,0,0-1.82-7.17-.78-9.89S30.43,31,30.43,31Z"/><path class="e" d="M45,18.34s2-2.34,2.71-.45-1,8.15-3,6.91S45,18.34,45,18.34Z"/><path class="e" d="M26.28,18.34s-2-2.34-2.7-.45,1,8.15,3,6.91S26.28,18.34,26.28,18.34Z"/><path class="b" d="M35.62,35.12c-4.68,0-8.46-4.61-9.75-11.13-1.71-8.71.36-19.2,8.88-19.39,9.12-.22,13.12,6.94,10.45,20.86C44.11,31.14,40.13,35.12,35.62,35.12Z"/><path class="a" d="M43.14,14.44s-3.46-1.68-5.57.41l.52-1.61S42.07,12.18,43.14,14.44Z"/><path class="f" d="M41.4,22.45a1.77,1.77,0,1,0,1.44-2A1.75,1.75,0,0,0,41.4,22.45Z"/><path class="f" d="M27.11,22.65a1.77,1.77,0,1,0,1.44-2A1.75,1.75,0,0,0,27.11,22.65Z"/><path class="a" d="M28.37,14.44s3.46-1.68,5.57.41l-.52-1.61S29.44,12.18,28.37,14.44Z"/><path class="g" d="M32.56,27.7h2l.91.41,1.32-.41L39,27.58C38.67,31.67,32.79,32.38,32.56,27.7Z"/><path class="h" d="M39,27.59c-1.06,2.93-3.52,3-4.86,2.4a3.69,3.69,0,0,1-1.56-2.29,1.87,1.87,0,0,0,.38.24C35,29,38.8,27.65,39,27.59Z"/><path class="i" d="M39,27.59c-.73,1.45-3.28,1.46-3.28,1.46l-.15-.1a5.61,5.61,0,0,1-2.29-.49l-.32-.52C35,29,38.8,27.65,39,27.59Z"/><path class="j" d="M43.72,40.43s-12.59,61.5,16.41,81.05c0,0-11.59-34.36,5.2-68C65.33,53.51,63.39,43.28,43.72,40.43Z"/><path class="j" d="M28.85,39.49s10.33,62.44-18.68,82c0,0,12.65-37.09-4.14-70.7C6,50.78,9.17,42.35,28.85,39.49Z"/><path class="a" d="M35.78,3.23S31.48,17.86,23,23C23,23,18.1-3,36.66.28c0,0,15.43-3.73,12.69,23.32C49.35,23.6,36.31,16.62,35.78,3.23Z"/><path class="k" d="M34.89,17.82s.07,5-.62,5.47-.61,1.34,1.16,1.41S36.46,18.13,34.89,17.82Z"/><path class="l" d="M38.82,18.5a1.6,1.6,0,0,1,.3-.24,2.83,2.83,0,0,1,.72-.33,2.87,2.87,0,0,1,.78-.11,1.73,1.73,0,0,1,.38,0,1.6,1.6,0,0,1-.3.24,2.83,2.83,0,0,1-.72.33,2.87,2.87,0,0,1-.78.11A1.73,1.73,0,0,1,38.82,18.5Z"/><path class="l" d="M32.1,18.5a1.62,1.62,0,0,1-.38,0,2.87,2.87,0,0,1-.78-.11,3,3,0,0,1-.72-.33,1.73,1.73,0,0,1-.29-.24,1.62,1.62,0,0,1,.38,0,2.87,2.87,0,0,1,.78.11,2.76,2.76,0,0,1,.71.33A1.6,1.6,0,0,1,32.1,18.5Z"/></svg>