<svg xmlns="http://www.w3.org/2000/svg" width="61.79" height="276.7" viewBox="0 0 61.79 276.7"><defs><style>.a{fill:#422645;}.b{fill:#ffc4a4;}.c{fill:#336e84;}.d{fill:#f19542;}.e{fill:#445690;}.f{fill:#efa381;}.g{fill:#ea6e68;}.h{fill:#bd1e2d;}.i{fill:#404041;}.j{fill:#841929;}.k{fill:#ffaca6;}</style></defs><title>Asset 12Justicia</title><path class="a" d="M21.93,268.86s-4.2,5-4.53,7.84h6L24.89,275v1.67a7.33,7.33,0,0,0,.73-7.84Z"/><path class="a" d="M51.73,268.86s4.2,5,4.53,7.84h-6L48.77,275v1.67a7.35,7.35,0,0,1-.74-7.84Z"/><path class="b" d="M18.13,91.2S1.78,101.59,3.47,133.52,21.93,268.86,21.93,268.86s-.45,1.61,0,1.78c.95.38,3.69-1.78,3.69-1.78s-.49-133.72,3.8-135.34C32.83,132.23,48,268.86,48,268.86s2.7,2.23,3.7,1.83c.46-.19,0-1.83,0-1.83s.49-102.3,3.5-139.27c2-24.28-8.48-37.87-8.48-37.87Z"/><path class="c" d="M20,89.15S0,99.41,0,136.08c0,0,18.17,9.23,29.42,12.45l.46-8.16,1.6,8.16s17.41,0,28.3-9.89c0,0-2.94-36.27-13-46.92Z"/><path class="d" d="M18.43,35.36S32.23,49.69,52,41.53c0,0,1.36-2.23-1.64-4.73s-5-3.68-3.55-7.43S44.27,20.14,45.73,16,44.87,3.35,35.42,5.09,18.43,35.36,18.43,35.36Z"/><path class="e" d="M46.75,91.72c0-13.1,14.52-40,12.91-45C57.66,40.57,34.19,35,34.19,35S9.52,37.85,6.65,45.48C5.09,49.61,18.31,78.63,18.13,91.2c0,0,1.95,3.07,13.93,3.07C43.17,94.27,46.75,91.72,46.75,91.72Z"/><path class="f" d="M27.81,27.91s1.47,5.37.49,8.8c0,0,3.19,4.42,10.54.49,0,0-1.72-6.74-.73-9.29S27.81,27.91,27.81,27.91Z"/><path class="g" d="M44.09,19.07s2.82,0,2.72,1-3.1,2.78-3.1,2.78Z"/><path class="d" d="M33.77.64s10.6-3,13.09,6.17-6.61,17.1-6.61,17.1Z"/><path class="b" d="M43.45,26.44c-.05.22-.12.43-.17.64-.87,2.86-2.3,4.84-4.45,5-16.74.82-19.65-21.89-16.72-26.39S39.62,4,39.62,4C43.45,4.46,45.54,18.39,43.45,26.44Z"/><path class="d" d="M23.21,2.56S35,8,37.23,8.87c-.68.73-5.51,6.25-4.6,12.12a2.34,2.34,0,0,0-2.57-1.88c-2.24.14-1.44,4.67.64,5.56l-4.41,1.74s-9-1.46-10.29-9S19.32,3.68,23.21,2.56Z"/><path class="h" d="M40.25,24.47s1,3.31,2.22,3.42.81-.81.81-.81Z"/><path class="d" d="M43,13.34,42.53,12a3.84,3.84,0,0,0-3.75,2.44A4,4,0,0,1,43,13.34Z"/><path class="i" d="M40.25,16.53c0,.61.28,1.1.63,1.1s.63-.49.63-1.1-.28-1.09-.63-1.09S40.25,15.93,40.25,16.53Z"/><path class="d" d="M40.25,7.68c-.09,3.15.55,6.56-8.65,9.18S18.43,7,18.43,7,19.15-1.74,35,.31c6.91.9,8,5.2,8,5.2C40.69,4.54,40.27,6.81,40.25,7.68Z"/><path class="j" d="M43.71,25.69l-.5,1.62s-1.62.29-2.74-2.64A8,8,0,0,0,43.71,25.69Z"/><path class="h" d="M43.87,25.14c.22,0,.3.32.24.53s-.47.16-.63.16a6,6,0,0,1-.85-.09,5.05,5.05,0,0,1-1.2-.43,10,10,0,0,1-1-.64,1.85,1.85,0,0,1-.22-.2s.42.12,1,.34c.3.08.65.2,1,.27a3.11,3.11,0,0,0,1.13.11A3.41,3.41,0,0,0,43.87,25.14Z"/><path class="k" d="M37,20.5a1.82,1.82,0,1,0,1.81-1.81A1.82,1.82,0,0,0,37,20.5Z"/><path class="d" d="M17.82,8.61s2.78,3.83-3.7,11.13C10.84,23.43,14,27.27,11.51,31S6.36,38.86,7.36,41.52s21.3,3.83,23.34-16.85l-6.85-3.12Z"/><path class="f" d="M59.66,46.73c3.66,5.2,2,34-.56,40.85S26.5,87,26.5,87L53.18,76.59l.34-9.65Z"/><path class="b" d="M6.65,45.48a103.28,103.28,0,0,1,7.1,17.72,123.78,123.78,0,0,1,3.53,19c3.35-.88,29.15-5.88,34.34-5,0,0-25.75,14.68-35.85,16S-.69,49.37,6.65,45.48Z"/></svg>