<svg xmlns="http://www.w3.org/2000/svg" width="84.41" height="282.43" viewBox="0 0 84.41 282.43"><defs><style>.a{fill:#422645;}.b{fill:#c17b53;}.c{fill:#d3762a;}.d{fill:#efa381;}.e{fill:#f19542;}.f{fill:#ffc4a4;}.g{fill:#ffaca6;}.h{fill:#bd1e2d;}.i{fill:#841929;}.j{fill:none;stroke:#404041;stroke-miterlimit:10;stroke-width:0.53px;}.k{fill:#ea6e68;}.l{fill:#fff;}.m{fill:#404041;}</style></defs><title>Asset 9Justicia</title><path class="a" d="M25.21,24.81s-1.41,20.66,2.54,23.5S50,42.9,50,42.9L48.9,20.1Z"/><path class="b" d="M7.9,151.62A22.63,22.63,0,0,1,10,156.85a6.88,6.88,0,0,1-1,4s-.23-.38.07-2.1-1.57-1-1.11,3.14c.3,2.69-1.51,0-1.51,0s-4.17-3.27-.75-10C5.64,152,6.12,150.87,7.9,151.62Z"/><path class="c" d="M24.82,41.69S11.6,49.15,8.15,85.31,2.54,149.68,2.54,153s1.76,4.24,1.76,4.24,4.93,2.33,8.25-5.88,8.16-41.88,8.16-41.88S21.77,50.23,24.82,41.69Z"/><path class="a" d="M54.16,95s10.21,12.91,8.5,45.18S47.87,274.51,47.87,274.51H43.42L39.7,135.19,12.14,274.51h-4s4.54-116.14,6.57-140.66S25.23,95.54,25.23,95.54Z"/><path class="a" d="M47.87,274.51s3.53,5.06,3.87,7.92H45.66l-1.5-1.68v1.68a7.41,7.41,0,0,1-.74-7.92Z"/><path class="a" d="M12.14,274.51s2.06,4.22.67,7.92H11.22l-.75-2-2.32,2H0a69.06,69.06,0,0,1,8.15-7.92Z"/><path class="d" d="M61.5,113.91a6.93,6.93,0,0,0-3.36,3.24c-1,2,1.93-1,1.93-1s-2.15,3.38-1.88,3.73,2.54-2,2.54-2A7.06,7.06,0,0,0,59.55,121c-.09,1.5.84-.43,2-1.14,0,0-1,1.05-.77,1.7.18.49.26-.18,1.67-.82s1.62-.44,1.62-.44A5.23,5.23,0,0,0,61.5,113.91Z"/><path class="d" d="M43.08,30.11s-.88,5.6.52,9.19c0,0-4.44,4.87-12.26.7,0,0,1.82-7.17.78-9.89S43.08,30.11,43.08,30.11Z"/><path class="e" d="M42.86,35.6s37.52,5.73,18.64,78.31c0,0-21.37,17.68-46.23,14.74,0,0-6.11-4.67,0-36.42S5.62,54.34,32.12,36C32.12,36,38.59,41,42.86,35.6Z"/><path class="c" d="M50.59,38.89S82.88,57.07,84.38,90.73c1,23-20.36,29.53-20.36,29.53s.61-2.18-2.52-6.35c0,0,2-20.89,5.31-24.78C66.81,89.13,67,60.16,50.59,38.89Z"/><path class="d" d="M47.16,18.29s1.94-2.31,2.67-.45-1,8-2.93,6.81S47.16,18.29,47.16,18.29Z"/><path class="d" d="M28.69,18.29S26.76,16,26,17.84s1,8,2.93,6.81S28.69,18.29,28.69,18.29Z"/><path class="f" d="M37.9,34.81c-4.62,0-8.34-4.53-9.61-11C26.6,15.27,28.64,4.94,37,4.75,46,4.54,50,11.58,47.33,25.3,46.25,30.9,42.33,34.81,37.9,34.81Z"/><path class="a" d="M45.3,14.45s-3.41-1.66-5.49.4l.52-1.59S44.25,12.22,45.3,14.45Z"/><path class="g" d="M43.58,22.34a1.75,1.75,0,1,0,1.42-2A1.75,1.75,0,0,0,43.58,22.34Z"/><path class="g" d="M29.5,22.54a1.75,1.75,0,1,0,1.42-2A1.76,1.76,0,0,0,29.5,22.54Z"/><path class="a" d="M30.75,14.45s3.41-1.66,5.49.4l-.51-1.59S31.81,12.22,30.75,14.45Z"/><path class="h" d="M34.88,27.5h1.93l.9.41L39,27.5l2.21-.11C40.89,31.42,35.1,32.12,34.88,27.5Z"/><path class="i" d="M41.2,27.4c-1,2.89-3.47,3-4.78,2.36a3.6,3.6,0,0,1-1.54-2.25,2.92,2.92,0,0,0,.37.24C37.27,28.83,41,27.46,41.2,27.4Z"/><path class="a" d="M29.75,19.08c.16-3.91.7-10.91.7-10.91s9.92-2.33,15.65.59c0,0-3.4,41.94,6.62,34.4,0,0-3.64-3.37-2.22-12s.8-24.75-2.93-23.91c0,0-.62-7.52-9.86-7.27-8,.2-8.95,6.5-8.95,6.5s-2.22.45-3.48,3.71c-1.48,3.84,1,25.16-2.53,32,0,0,.33,2.62,3.43,1.82S29.5,25.29,29.75,19.08Z"/><path class="j" d="M45.25,19.08a2.79,2.79,0,1,1-2.79-2.79A2.79,2.79,0,0,1,45.25,19.08Z"/><path class="k" d="M37.21,17.79s.07,5-.62,5.47S36,24.6,37.75,24.67,38.78,18.1,37.21,17.79Z"/><path class="j" d="M36.38,19.08a2.79,2.79,0,1,1-2.79-2.79A2.79,2.79,0,0,1,36.38,19.08Z"/><path class="j" d="M36.38,19.08a2.33,2.33,0,0,1,3.29,0"/><path class="j" d="M45.25,19.08s1.24.27,1.73-.33"/><path class="j" d="M30.8,19.08s-1.77.11-2.11-.79"/><path class="l" d="M41.2,27.4C40.48,28.82,38,28.83,38,28.83l-.14-.09a5.53,5.53,0,0,1-2.26-.48l-.32-.51C37.27,28.83,41,27.46,41.2,27.4Z"/><path class="m" d="M41.37,19.26a1.6,1.6,0,0,1,.3-.24,2.83,2.83,0,0,1,.72-.32,2.56,2.56,0,0,1,.78-.12,1.73,1.73,0,0,1,.38,0,1.6,1.6,0,0,1-.3.24,2.74,2.74,0,0,1-1.5.44A1.73,1.73,0,0,1,41.37,19.26Z"/><path class="m" d="M34.41,19.26a1.73,1.73,0,0,1-.38,0,2.74,2.74,0,0,1-1.5-.44,1.6,1.6,0,0,1-.3-.24,1.73,1.73,0,0,1,.38,0,2.56,2.56,0,0,1,.78.12,2.83,2.83,0,0,1,.72.32A1.6,1.6,0,0,1,34.41,19.26Z"/></svg>