<svg xmlns="http://www.w3.org/2000/svg" width="65.92" height="276.62" viewBox="0 0 65.92 276.62"><defs><style>.a{fill:#422645;}.b{fill:#ffc4a4;}.c{fill:#a86656;}.d{fill:#f19542;}.e{fill:#fff;}.f{fill:#efa381;}.g{fill:#bd1e2d;}.h{fill:#841929;}.i{fill:#9e1f63;}.j{fill:#404041;}.k{fill:#ffaca6;}.l{fill:#ea6e68;}</style></defs><title>Asset 2Justicia</title><path class="a" d="M22,268.88s-4.15,4.94-4.48,7.74h5.94L24.88,275v1.65a7.24,7.24,0,0,0,.72-7.74Z"/><path class="a" d="M41.51,268.88s4.14,4.94,4.47,7.74H40L38.58,275v1.65a7.23,7.23,0,0,1-.73-7.74Z"/><path class="b" d="M18.19,93.35S8.21,106,9.88,137.53,22,268.88,22,268.88s-.44,1.58,0,1.76c.94.37,3.65-1.76,3.65-1.76l6.73-136.24,5.52,136.24s2.67,2.2,3.66,1.8c.45-.18,0-1.8,0-1.8s10.36-101.07,13.34-137.6c2-24-8.38-37.41-8.38-37.41Z"/><path class="c" d="M18.19,93.35S1.8,111.05,8.28,181.11c0,0,8.94,3.62,15.39,0s15.87,2.9,21.15,3.24,5.36-5,10.28-3.24,5.22-4,5.22-4,1.08-68.35-13.85-83.22Z"/><path class="d" d="M20.81,32.91c3.07,3.87.6,5,.4,8.87,0,0,5.84,3.69,12.1,2.7A27,27,0,0,0,44.21,40S48.82,7.4,32.73,10.65C16.39,14,13.68,23.94,20.81,32.91Z"/><path class="b" d="M59.22,49.41s-7.74,9.32-7.74,14.47,3.87,40.64,3.87,40.64l6.8,45.54h2.71s-3.11-43.85-2.71-52S60,52.44,59.22,49.41Z"/><path class="b" d="M6.7,49.41s7.74,9.32,7.74,14.47-3.87,40.64-3.87,40.64l-6.8,45.54H1.06s3.11-43.85,2.71-52S5.9,52.44,6.7,49.41Z"/><path class="e" d="M46.47,93.87c0-13,14.35-39.53,12.75-44.46-2-6.08-25.16-11.59-25.16-11.59S9.69,40.64,6.85,48.18C5.31,52.26,18.37,80.93,18.19,93.35c0,0,1.94,3,13.77,3C42.93,96.38,46.47,93.87,46.47,93.87Z"/><path class="f" d="M28.42,29.84s.91,5.76-.54,9.46c0,0,4.57,5,12.63.72,0,0-1.88-7.38-.81-10.18S28.42,29.84,28.42,29.84Z"/><path class="b" d="M62.4,148.71a21.77,21.77,0,0,0-2,5.11,6.74,6.74,0,0,0,1,4s.22-.37-.07-2.05,1.54-.95,1.09,3.07c-.3,2.63,1.47,0,1.47,0s4.08-3.2.73-9.76C64.6,149,64.14,148,62.4,148.71Z"/><path class="b" d="M3.52,148.71a22.24,22.24,0,0,1,2,5.11,6.74,6.74,0,0,1-1,4s-.23-.37.07-2.05-1.54-.95-1.09,3.07c.3,2.63-1.47,0-1.47,0S-2,155.59,1.32,149C1.32,149,1.78,148,3.52,148.71Z"/><path class="b" d="M27.51,33.86C45,36.75,50.76,13.26,48.23,8.18S30.05,4.31,30.05,4.31c-3,.05-5.9,7.87-6.73,15.45-.11,1-.19,2.1-.21,3.12C22.94,28.47,24.12,33.31,27.51,33.86Z"/><path class="g" d="M26.43,25.7s1-.32,1.41-.05,2.58,1.85,2.58,1.85S28,30.87,26.06,30.27s-1.16-3.64-1.16-3.64L24.76,26A.91.91,0,0,1,26.43,25.7Z"/><path class="h" d="M30.41,27.5l-.24.24c-.71.66-3,2.54-4.53,1.72-1.27-.67-.47-3-.47-3L24.76,26s0-.16.52-.16a4.7,4.7,0,0,1,1.08.16A32.62,32.62,0,0,1,30.41,27.5Z"/><path class="e" d="M30.41,27.5l-.24.24a25.55,25.55,0,0,1-4.77-1.11l-.12-.77a4.7,4.7,0,0,1,1.08.16A32.62,32.62,0,0,1,30.41,27.5Z"/><path class="i" d="M35.71,16.07s-3-2.14-5.29-.52l.75-1.43S35.08,13.77,35.71,16.07Z"/><path class="i" d="M27.3,15.09,27,13.84a1.51,1.51,0,0,0-2.46.91S25.5,13.27,27.3,15.09Z"/><path class="j" d="M32.16,19.67c-.1.55.07,1,.38,1.11s.66-.34.77-.89-.07-1.05-.38-1.11S32.27,19.12,32.16,19.67Z"/><path class="j" d="M25.14,18.48c-.1.55.07,1.05.38,1.11s.66-.34.77-.89-.07-1.05-.38-1.11S25.25,17.93,25.14,18.48Z"/><circle class="k" cx="35.78" cy="24.18" r="1.68"/><path class="k" d="M23.11,22.88a1.68,1.68,0,0,0,.21-3.12C23.21,20.81,23.13,21.86,23.11,22.88Z"/><path class="d" d="M37.46,8.84a21.33,21.33,0,0,1-13.77,6.82c-9,.91-2.88,17.25-2.88,17.25s-8.74-6.48-4-14.27S20.21,6.48,25.28,3s14-4.93,19.33.84c0,0,5.63,1.8,6.53,9.61s-5.42,21-3.31,25,.3,5.71.3,5.71-7.33-3.12-8.34-8.79.4-7.65.4-7.65,3.42-.53,4.22-5.65-4.42.4-4.42.4a8.84,8.84,0,0,0-.4-4.94C38.59,15.07,36.24,11.15,37.46,8.84Z"/><path class="l" d="M28,18.26s-.51,3.14-2.54,3.7,1.19,2.65,2,2.4S29.18,19.62,28,18.26Z"/></svg>