<svg xmlns="http://www.w3.org/2000/svg" width="73.52" height="264.92" viewBox="0 0 73.52 264.92"><defs><style>.a{fill:#d3762a;}.b{fill:#bf4635;}.c{fill:#9a4445;}.d{fill:#fff;}.e{fill:#efa381;}.f{fill:#422645;}.g{fill:#f19542;}.h{fill:#ffc4a4;}.i{fill:#bd1e2d;}.j{fill:#404041;}.k{fill:#ffaca6;}.l{fill:#841929;}.m{fill:#ea6e68;}</style></defs><title>Asset 5Justicia</title><path class="a" d="M62.46,46.68S76.81,80.74,72.82,90.11s-15.47,28.64-15.47,28.64-2.76-2.9-2.49-6.34l8.59-26.64L54,63.66S56.16,49.27,62.46,46.68Z"/><path class="b" d="M48.7,13.54a59,59,0,0,1,.57,22.79c-1.05,5.48-24.79-3.86-24.79-3.86S34.76,9.52,48.7,13.54Z"/><path class="c" d="M51.46,88.88s9.59,12.13,8,42.44S45.55,257.48,45.55,257.48H41.38l-3.5-130.86L12,257.48H8.25s4.26-109.09,6.17-132.12,9.87-36,9.87-36Z"/><path class="d" d="M24.29,89.37c0-12.43-14.76-38-13.23-42.69C13,40.83,36.22,35.54,36.22,35.54s20.26,3.78,23.36,7.67c2.61,3.27-8.29,33.74-8.12,45.67,0,0-1.86,2.91-13.22,2.91C27.69,91.79,24.29,89.37,24.29,89.37Z"/><path class="e" d="M41.63,27.87s-1.54,5.65-.51,9.26c0,0-3.36,4.65-11.09.52,0,0,1.8-7.09.77-9.78S41.63,27.87,41.63,27.87Z"/><path class="f" d="M45.55,257.48s3.32,4.75,3.64,7.44H43.48l-1.41-1.58v1.58a7,7,0,0,1-.69-7.44Z"/><path class="f" d="M12,257.48s1.94,4,.64,7.44h-1.5l-.71-1.9-2.17,1.9H.59a64.91,64.91,0,0,1,7.66-7.44Z"/><path class="g" d="M28.9,39.36s8.41,31-4.69,105.73c0,0-13.12.85-18.48-6.4,0,0,10.22-54.63,5.33-92,0,0,3-7.5,16.36-10.45Z"/><path class="a" d="M11.06,46.68S-3.29,80.74.7,90.11s15.47,28.64,15.47,28.64,2.76-2.9,2.49-6.34L10.07,85.77l9.44-22.11S17.36,49.27,11.06,46.68Z"/><path class="g" d="M44.45,35.54s7.19,11.07,4.86,109.55c0,0,13.12.85,18.48-6.4,0,0-10.22-54.63-5.33-92,0,0-3-7.5-16.36-10.45Z"/><path class="a" d="M40.84,32.43s7.46-.79,11.78,3.11S47.5,53.89,47.5,53.89s.71-15.68-6.66-17.66Z"/><path class="a" d="M31.14,56.73s5.2-18.92.8-21.62-16.48-4.54-14.51,5C17.43,40.13,29.84,50.56,31.14,56.73Z"/><path class="h" d="M42.2,32.26c-16.7,1-19.85-21.62-17-26.15S42.68,4.25,42.68,4.25c2.82.34,4.78,8,4.82,15.18,0,1,0,2-.1,2.94C47,27.65,45.44,32.07,42.2,32.26Z"/><path class="i" d="M44.51,25.6s.18,1.34-1.51,1.68a3.35,3.35,0,0,1-2.93-1.17s2-1.16,2.36-1.35,1.19.17,1.19.17a.78.78,0,0,1,1.4.41Z"/><path class="b" d="M36.22,14.75s3-1.72,5,0l-.56-1.42S37,12.65,36.22,14.75Z"/><path class="b" d="M44.22,14.64l.45-1.13a1.43,1.43,0,0,1,2.22,1.09S46.09,13.11,44.22,14.64Z"/><path class="j" d="M39.21,18.48c0,.53-.17,1-.47,1s-.59-.38-.63-.91.16-1,.46-1S39.16,18,39.21,18.48Z"/><path class="j" d="M45.92,18c0,.53-.16,1-.47,1s-.58-.38-.63-.91.16-1,.46-1S45.87,17.51,45.92,18Z"/><path class="k" d="M37,22.52a1.59,1.59,0,1,1-1.42-1.74A1.58,1.58,0,0,1,37,22.52Z"/><path class="k" d="M47.4,22.37a1.6,1.6,0,0,1-.94-1.62,1.58,1.58,0,0,1,1-1.32C47.51,20.42,47.48,21.41,47.4,22.37Z"/><path class="l" d="M43,27.28a3.35,3.35,0,0,1-2.93-1.17,13.13,13.13,0,0,0,4.44-.51S44.69,26.94,43,27.28Z"/><path class="b" d="M33.72,8.18s2.33,12-5.87,13.4c0,0-.47,2.64,2,2.89,0,0,4.35,16.91,1.64,21S18.63,41.1,18.63,41.1s-2.55-1-.23-3.89c4.32-5.43-.38-24,2.9-30.8,4.8-9.95,27.25-7.25,25.15.81,0,0,6.54,14.13.71,17.67a29.4,29.4,0,0,0-2.64-17A16.07,16.07,0,0,0,33.72,8.18Z"/><path class="m" d="M43.15,17.09s.48,3,2.4,3.49-1.12,2.5-1.87,2.27S42,18.37,43.15,17.09Z"/></svg>