<svg xmlns="http://www.w3.org/2000/svg" width="79.84" height="287.74" viewBox="0 0 79.84 287.74"><defs><style>.a{fill:#445690;}.b{fill:#bf4635;}.c{fill:#9a4445;}.d{fill:#5d75b2;}.e{fill:#efa381;}.f{fill:#422645;}.g{fill:#ffc4a4;}.h{fill:#bd1e2d;}.i{fill:#404041;}.j{fill:#ffaca6;}.k{fill:#841929;}.l{fill:#ea6e68;}</style></defs><title>Asset 11Justicia</title><path class="a" d="M64.79,46.64s18.73,40.81,14.4,51-16.82,31.15-16.82,31.15-3-3.16-2.71-6.9l9.34-29-10.27-24S57.93,49.46,64.79,46.64Z"/><path class="b" d="M53,14.38a63.83,63.83,0,0,1,.62,24.79c-1.14,5.95-27-4.21-27-4.21S37.8,10,53,14.38Z"/><path class="c" d="M56,96.3s10.43,13.19,8.68,46.15-15.11,137.2-15.11,137.2H45L41.19,137.34,13,279.65H9S13.61,161,15.68,136,26.42,96.84,26.42,96.84Z"/><path class="d" d="M11,154.53C15.38,126.6,21.66,83,21.66,83S11,53.55,12,50.41C14.08,44.05,39.38,38.3,39.38,38.3s22,4.12,25.41,8.34c.88,1.11,2.59,17.73,1.71,23.57-.62,4.08-5.45,15.61-5.45,15.61s4.66,29.46,6.81,68.71c0,0-3.31,7.54-29.4,7.54C20,162.07,11,154.53,11,154.53Z"/><path class="e" d="M45.27,30S43.59,36.11,44.71,40c0,0-3.64,5-12.06.57,0,0,2-7.71.84-10.64S45.27,30,45.27,30Z"/><path class="f" d="M49.53,279.65s3.61,5.16,4,8.09H47.28L45.75,286v1.72a7.57,7.57,0,0,1-.75-8.09Z"/><path class="f" d="M13,279.65s2.1,4.3.69,8.09H12.11l-.77-2.07L9,287.74H.64A69.78,69.78,0,0,1,9,279.65Z"/><path class="a" d="M12,50.41S-3.57,87.45.76,97.64s16.82,31.15,16.82,31.15,3-3.16,2.71-6.9L11,92.92l10.27-24S18.88,53.24,12,50.41Z"/><path class="g" d="M45.89,34.74C27.73,35.84,24.3,11.23,27.43,6.3s19-2,19-2c3.06.38,5.19,8.67,5.23,16.51,0,1.08,0,2.16-.11,3.2C51.13,29.72,49.41,34.53,45.89,34.74Z"/><path class="h" d="M48.4,27.49s.2,1.46-1.64,1.83A3.65,3.65,0,0,1,43.57,28s2.14-1.25,2.56-1.46,1.3.18,1.3.18a.85.85,0,0,1,1.52.45Z"/><path class="b" d="M39.39,15.69s3.26-1.87,5.46,0l-.62-1.54S40.28,13.41,39.39,15.69Z"/><path class="b" d="M48.08,15.58l.49-1.24A1.56,1.56,0,0,1,51,15.53S50.12,13.91,48.08,15.58Z"/><path class="i" d="M42.63,19.75c0,.57-.17,1.06-.5,1.09s-.64-.41-.69-1,.18-1.06.51-1.09S42.58,19.17,42.63,19.75Z"/><path class="i" d="M49.93,19.27c0,.58-.17,1.07-.5,1.1s-.64-.42-.69-1,.17-1.07.5-1.1S49.88,18.7,49.93,19.27Z"/><path class="j" d="M40.18,24.15a1.73,1.73,0,1,1-1.54-1.9A1.73,1.73,0,0,1,40.18,24.15Z"/><path class="j" d="M51.54,24a1.72,1.72,0,0,1,.11-3.2C51.66,21.86,51.63,22.94,51.54,24Z"/><path class="k" d="M46.76,29.32A3.65,3.65,0,0,1,43.57,28a14.43,14.43,0,0,0,4.83-.55S48.6,29,46.76,29.32Z"/><path class="l" d="M46.93,18.24s.52,3.22,2.61,3.79-1.22,2.73-2,2.47S45.66,19.63,46.93,18.24Z"/><path class="b" d="M43.08,6s-3.35,14.93-11.8,17.28c0,0-.19,2.82,2.43,2.81,0,0,4.27,4.89,1.87,9.49s-8.92,4.69-8.92,4.69S18.82,19.05,22.78,8.11,43.08.47,43.08.47s17.74-2,8.8,24.2C51.88,24.67,55.22,12.75,43.08,6Z"/></svg>