<svg xmlns="http://www.w3.org/2000/svg" width="71" height="295.5" viewBox="0 0 71 295.5"><defs><style>.a{fill:#bf4635;}.b{fill:#422645;}.c{fill:#ffc4a4;}.d{fill:#445690;}.e{fill:#efa381;}.f{fill:#be1e2d;}.g{fill:#404041;}.h{fill:#ffaca6;}.i{fill:#bd1e2d;}.j{fill:#841929;}.k{fill:#ea6e68;}</style></defs><title>Asset 10Justicia</title><path class="a" d="M26,5c-9,11.91-5,41.07-5,41.07l29.64-3.45S51.69,18.63,49,10,26,5,26,5Z"/><path class="b" d="M23.64,287.15s-4.47,5.33-4.82,8.35h6.4l1.58-1.78v1.78a7.82,7.82,0,0,0,.78-8.35Z"/><path class="b" d="M44.71,287.15s4.47,5.33,4.82,8.35h-6.4l-1.58-1.78v1.78a7.82,7.82,0,0,1-.78-8.35Z"/><path class="c" d="M19.6,98.09s-10.76,13.6-9,47.59,13,141.47,13,141.47-.48,1.71,0,1.9c1,.4,3.94-1.9,3.94-1.9l7.24-146.74,6,146.74s2.88,2.38,3.94,2c.48-.2,0-2,0-2S55.88,178.29,59.09,138.94c2.1-25.83-9-40.3-9-40.3Z"/><path class="b" d="M19.6,98.09S1.94,117.16,8.91,192.62c0,0,9.64,3.9,16.58,0s17.1,3.12,22.79,3.49,5.77-5.43,11.07-3.49S65,188.28,65,188.28s1.16-73.61-14.91-89.64Z"/><path class="c" d="M63.79,50.76s-8.34,10-8.34,15.58,4.17,43.78,4.17,43.78l7.32,49h2.92s-3.34-47.23-2.92-56S64.65,54,63.79,50.76Z"/><path class="c" d="M7.21,50.76s8.34,10,8.34,15.58-4.17,43.78-4.17,43.78l-7.32,49H1.14s3.35-47.23,2.92-56S6.36,54,7.21,50.76Z"/><path class="d" d="M50.06,98.64c0-13.94,15.45-42.57,13.73-47.88-2.12-6.55-27.1-12.49-27.1-12.49s-26.25,3-29.31,11.16C5.72,53.83,19.79,84.71,19.6,98.09c0,0,2.08,3.26,14.82,3.26C46.25,101.35,50.06,98.64,50.06,98.64Z"/><path class="c" d="M67.21,157.72a23.51,23.51,0,0,0-2.19,5.5,7.19,7.19,0,0,0,1.09,4.25s.25-.39-.07-2.2,1.65-1,1.17,3.31c-.32,2.83,1.59,0,1.59,0s4.39-3.46.78-10.52C69.58,158.06,69.09,156.93,67.21,157.72Z"/><path class="c" d="M3.79,157.72a23.85,23.85,0,0,1,2.2,5.5,7.24,7.24,0,0,1-1.1,4.25s-.24-.39.07-2.2-1.65-1-1.17,3.31c.32,2.83-1.58,0-1.58,0s-4.39-3.46-.79-10.52C1.42,158.06,1.92,156.93,3.79,157.72Z"/><path class="e" d="M30.43,30.73S32,36.45,31,40.1c0,0,3.4,4.69,11.22.52,0,0-1.82-7.17-.78-9.89S30.43,30.73,30.43,30.73Z"/><path class="e" d="M45,18.1s1.89-2.27,2.61-.44-1,7.87-2.87,6.67S45,18.1,45,18.1Z"/><path class="e" d="M26.89,18.1s-1.89-2.27-2.6-.44,1,7.87,2.87,6.67S26.89,18.1,26.89,18.1Z"/><path class="c" d="M35.92,34.29c-4.52,0-8.18-4.44-9.42-10.74C24.85,15.14,26.85,5,35.07,4.83c8.8-.21,12.67,6.7,10.09,20.13C44.1,30.45,40.26,34.29,35.92,34.29Z"/><path class="f" d="M43.17,14.33s-3.34-1.62-5.38.4l.51-1.56S42.14,12.15,43.17,14.33Z"/><path class="g" d="M39.8,18.55c0,.57.25,1,.58,1s.6-.45.61-1-.25-1-.58-1S39.81,18,39.8,18.55Z"/><path class="h" d="M41.49,22.07a1.71,1.71,0,1,0,1.39-2A1.7,1.7,0,0,0,41.49,22.07Z"/><path class="h" d="M27.69,22.26a1.71,1.71,0,1,0,1.39-2A1.71,1.71,0,0,0,27.69,22.26Z"/><path class="f" d="M28.92,14.33s3.34-1.62,5.37.4l-.5-1.56S30,12.15,28.92,14.33Z"/><path class="g" d="M32.29,18.55c0,.57-.25,1-.58,1s-.6-.45-.61-1,.25-1,.57-1S32.27,18,32.29,18.55Z"/><path class="i" d="M33,27.52l1.89-.39.88.39L37,27.13l2.16.2A10.33,10.33,0,0,1,33,27.52Z"/><path class="j" d="M33,27.52a4.38,4.38,0,0,0,6.2-.19A12.41,12.41,0,0,1,33,27.52Z"/><path class="k" d="M35.42,18s.06,5-.63,5.47-.61,1.34,1.17,1.41S37,18.28,35.42,18Z"/><path class="g" d="M37.79,18.51a.35.35,0,0,1-.23-.09,2.77,2.77,0,0,0-3.38,0,.38.38,0,0,1-.52-.07.37.37,0,0,1,.06-.52,3.49,3.49,0,0,1,4.31,0,.37.37,0,0,1,.06.52A.38.38,0,0,1,37.79,18.51Z"/><path class="g" d="M42.48,18.51h-.29a.37.37,0,0,1-.36-.39.38.38,0,0,1,.4-.35s3.5.15,4.56-1.72a.38.38,0,0,1,.66.37C46.35,18.35,43.43,18.51,42.48,18.51Z"/><path class="g" d="M29.13,18.51c-.9,0-3.82-.15-4.92-2.1a.38.38,0,0,1,.66-.37c1.05,1.87,4.45,1.72,4.48,1.72a.37.37,0,1,1,0,.74Z"/><path class="g" d="M37.56,18.09c-.1-1.26,4.38-1.37,5.15-.67a2.72,2.72,0,0,1-.88,4.06c-1.87,1-4.36-.66-4.27-3.69"/><path class="g" d="M34.27,18.09c.1-1.26-4.38-1.37-5.15-.67A2.72,2.72,0,0,0,30,21.48c1.87,1,4.36-.66,4.27-3.69"/><path class="a" d="M40,7.18s-1.2,8.21-14,12c0,0-6.77-8.38,1.21-15.76C35.54-4.3,41,3.44,41,3.44s14.05.67,4.94,17C46,20.39,44.22,10.05,40,7.18Z"/></svg>