<svg xmlns="http://www.w3.org/2000/svg" width="90.86" height="256.01" viewBox="0 0 90.86 256.01"><defs><style>.a{fill:#422645;}.b{fill:#efa381;}.c{fill:#fff;}.d{fill:#ffc4a4;}.e{fill:#ffaca6;}.f{fill:#bd1e2d;}.g{fill:#841929;}.h{fill:#ea6e68;}.i{fill:#404041;}.j{fill:#e6e7e8;}</style></defs><title>Asset 4Justicia</title><path class="a" d="M62.26,86.92s9.21,11.65,7.67,40.76S56.58,248.86,56.58,248.86h-4L49.22,123.17,24.35,248.86H20.76S24.85,144.09,26.68,122,36.17,87.4,36.17,87.4Z"/><path class="b" d="M70.06,43.06s17.94,33.37,17,39.7-15.57,23.75-15.57,23.75.55,4.11-1.92,4.09c-1.54,0-2.1-6.63-.68-6.63a2.76,2.76,0,0,1,1.56.78s7.43-19.46,7.75-22.94S66.8,57.13,66.8,57.13Z"/><path class="a" d="M56.89,5c3.8,4.25,4.38,35.71,4.38,35.71H33.53S32.47,17.87,35.06,9.63,56.89,5,56.89,5Z"/><path class="c" d="M36.17,87.4c0-12-14.19-36.47-12.72-41,1.82-5.62,24.17-10.7,24.17-10.7s19.46,3.64,22.44,7.37c2.51,3.14-8,32.4-7.8,43.86,0,0-1.78,2.8-12.7,2.8C39.43,89.72,36.17,87.4,36.17,87.4Z"/><path class="b" d="M52.82,28.33s-1.49,5.42-.5,8.89c0,0-3.22,4.46-10.65.5,0,0,1.74-6.81.75-9.39S52.82,28.33,52.82,28.33Z"/><path class="a" d="M56.58,248.86s3.19,4.57,3.5,7.15H54.59l-1.35-1.52V256a6.69,6.69,0,0,1-.67-7.15Z"/><path class="a" d="M24.35,248.86s1.86,3.81.61,7.15H23.52l-.68-1.82L20.76,256H13.4a62.12,62.12,0,0,1,7.36-7.15Z"/><path class="d" d="M24.1,45.25S3.5,77.38,4.45,83.71,25.9,107.55,25.9,107.55s.39,3.42,1.79,3.91c1.67.59,4.78-2.12,3.34-5.28-.54-1.19-3.94-.48-3.94-.48S13.63,86.24,13.31,82.76s15-22.25,15-22.25S30.46,46.59,24.1,45.25Z"/><path class="d" d="M30.71,105.82a6.27,6.27,0,0,1,3,2.92c.93,1.78-1.74-.91-1.74-.91s1.93,3,1.7,3.36-2.3-1.78-2.3-1.78a6.54,6.54,0,0,1,1.07,2.77c.08,1.35-.76-.39-1.76-1,0,0,.89.93.69,1.52s-.24-.16-1.5-.73-1.47-.41-1.47-.41Z"/><path class="b" d="M68.88,104a6.22,6.22,0,0,0-3,2.93c-.94,1.78,1.74-.91,1.74-.91s-1.94,3-1.7,3.36,2.29-1.78,2.29-1.78a6.48,6.48,0,0,0-1.07,2.77c-.08,1.34.76-.4,1.76-1,0,0-.89.94-.69,1.53.16.44.24-.16,1.5-.74s1.47-.4,1.47-.4Z"/><path class="b" d="M38.82,17.37S37,15.22,36.34,17s.93,7.47,2.73,6.34S38.82,17.37,38.82,17.37Z"/><path class="b" d="M56,17.37s1.79-2.15,2.48-.42-.93,7.47-2.73,6.34S56,17.37,56,17.37Z"/><path class="d" d="M47.45,30.65c4.29,0,7.75-3.91,8.93-9.44C58,13.83,56.05,4.94,48.24,4.77c-8.35-.18-12,5.88-9.57,17.69C39.67,27.28,43.32,30.65,47.45,30.65Z"/><path class="a" d="M40.56,13.79s3.17-1.54,5.1.38l-.48-1.48S41.53,11.72,40.56,13.79Z"/><path class="e" d="M42.15,21.14a1.62,1.62,0,1,1-1.32-1.88A1.62,1.62,0,0,1,42.15,21.14Z"/><path class="e" d="M55.25,21.32a1.62,1.62,0,1,1-1.32-1.87A1.62,1.62,0,0,1,55.25,21.32Z"/><path class="a" d="M54.09,13.79s-3.17-1.54-5.11.38l.48-1.48S53.11,11.72,54.09,13.79Z"/><path class="f" d="M50.25,24.24l-1.8-.37-.83.37-1.2-.37-2.05.19A9.72,9.72,0,0,0,50.25,24.24Z"/><path class="g" d="M50.25,24.24a4.15,4.15,0,0,1-5.88-.18A11.76,11.76,0,0,0,50.25,24.24Z"/><path class="h" d="M47.92,16.28s-.06,3.95.59,4.32.58,1-1.1,1.1S46.43,16.52,47.92,16.28Z"/><path class="a" d="M47.25,0C31.57-.55,33.62,19.47,33.62,19.47c1.14-1,4.76-.17,4.76-.17l1.43-8a23.85,23.85,0,0,1,2.77-.56,13.48,13.48,0,0,0,3.08-5.51,25.82,25.82,0,0,1-1.12,5.29c.88-.06,1.75-.09,2.57-.07.17-2.15.2-5.22.2-5.22.79,1.31.85,3.92.81,5.26.76,0,1.47.1,2.13.18,0-1.24-.08-3.8-.61-4.86a12.12,12.12,0,0,1,1.38,5c.81.12,1.53.25,2.15.39a10.73,10.73,0,0,0-1-3.68,16.27,16.27,0,0,1,1.77,3.86c.93.24,1.47.43,1.47.43l1.39,7.71L60,18.37S62.92.58,47.25,0Z"/><path class="i" d="M50.37,17.89a1.6,1.6,0,0,1,.3-.24,2.76,2.76,0,0,1,.71-.33,2.87,2.87,0,0,1,.78-.11,1.77,1.77,0,0,1,.39,0,2.17,2.17,0,0,1-.3.24,3,3,0,0,1-.72.33,2.87,2.87,0,0,1-.78.11A1.73,1.73,0,0,1,50.37,17.89Z"/><path class="i" d="M44.25,17.89a1.73,1.73,0,0,1-.38,0,2.87,2.87,0,0,1-.78-.11,2.83,2.83,0,0,1-.72-.33,1.6,1.6,0,0,1-.3-.24,1.73,1.73,0,0,1,.38,0,2.87,2.87,0,0,1,.78.11,2.83,2.83,0,0,1,.72.33A1.6,1.6,0,0,1,44.25,17.89Z"/><path class="j" d="M40.56,32a28.19,28.19,0,0,0,13.53,0s.26,3.55,1.85,5.49c0,0-.19,5.39-8.63,4.7s-9.39-5.06-9.39-5.06A6.38,6.38,0,0,0,40.56,32Z"/><path class="j" d="M25.81,43.7C15.63,51.55,2.94,71.93.18,84.89s27.51,26.57,27.51,26.57,4.18-3.22,3.49-6.71S15.63,85.06,15.63,85.06L31.18,68.89C31.47,51.89,25.81,43.7,25.81,43.7Z"/><path class="j" d="M68.41,41.77S67.5,59.78,66,65.9L77,80.91l-7.72,23.93s3.08,3.33,1.21,5.76c0,0-.82,3,5.74-1.27S92.58,90.56,90.6,81.42,72.55,41.66,68.41,41.77Z"/></svg>