<svg xmlns="http://www.w3.org/2000/svg" width="97.35" height="298.11" viewBox="0 0 97.35 298.11"><defs><style>.a{fill:#422645;}.b{fill:#894b30;}.c{fill:#445690;}.d{fill:#336e84;}.e{fill:#a06040;}.f{fill:#bd1e2d;}.g{fill:#404041;}.h{fill:#bf6155;}.i{fill:#841929;}</style></defs><title>Asset 8Justicia</title><path class="a" d="M31.41,25.15c-.29-1.19-2-1.68-2.11-2.9-.11-1.48,2.32-2.22,2.18-3.7-.11-1.27-2.08-2-1.76-3.21s3-1,3.15-2.43a3.24,3.24,0,0,0-.21-1A2.43,2.43,0,0,1,36,9.1l-.55-.67c2.4.12,4.75-.55,7.12-1s4.93-.52,7,.64c1.86,1,3.09,2.86,4.65,4.28,1.16,1.06,2.51,1.88,3.7,2.9a30.49,30.49,0,0,1,3.85,4.33l3.06,3.93a5.19,5.19,0,0,1,1.3,2.55c.13,1.45-1,2.9-.49,4.27.25.71.88,1.25,1.12,2,.7,2-2,4-1.47,6.13a4,4,0,0,1,.2.75c.06.76-.61,1.36-1.29,1.69a6.52,6.52,0,0,0-2,1.07c-.58.61-.75,1.55-1.41,2.06-1.49,1.12-3.56-.9-5.38-.49a6.75,6.75,0,0,0-1.21.51A5.26,5.26,0,0,1,50,44a4.14,4.14,0,0,0-.84-.35,3.6,3.6,0,0,0-1.55.19,8.51,8.51,0,0,1-6.84-1.28A10.89,10.89,0,0,0,39,41.41a16.24,16.24,0,0,0-3-.57c-1-.21-2-.87-2.1-1.88-.05-.65.3-1.39-.1-1.91s-1.06-.38-1.56-.66c-.82-.48-.79-1.67-.59-2.6s.44-2-.21-2.72c-.42-.45-1.12-.6-1.48-1.1-.51-.72-.05-1.72.48-2.43S31.62,26,31.41,25.15Z"/><path class="b" d="M20.82,52.09S-1.12,92.9,0,100.64s19.05,29,19.05,29-.67,5,2.34,5c1.88,0,2.57-8.1.83-8.1a3.41,3.41,0,0,0-1.91.94s-9.08-23.79-9.47-28S24.8,69.3,24.8,69.3Z"/><path class="c" d="M28.91,102.79s-10.64,13.45-8.86,47.08,15.42,140,15.42,140H40.1L44,144.66,72.7,289.86h4.15s-4.73-121-6.85-146.6-11-39.92-11-39.92Z"/><path class="d" d="M59.05,103.34C59,89.54,75.44,61.21,73.74,56c-2.1-6.48-27.92-12.35-27.92-12.35s-22.48,4.2-25.92,8.5c-2.9,3.64,9.2,37.44,9,50.68,0,0,2.06,3.22,14.67,3.22C55.28,106,59.05,103.34,59.05,103.34Z"/><path class="b" d="M39.81,35.1s1.72,6.27.58,10.27c0,0,3.72,5.16,12.3.58,0,0-2-7.87-.86-10.85S39.81,35.1,39.81,35.1Z"/><path class="a" d="M35.47,289.86s-3.69,5.27-4,8.25h6.34l1.56-1.75v1.75a7.73,7.73,0,0,0,.77-8.25Z"/><path class="a" d="M72.7,289.86s-2.15,4.39-.7,8.25h1.65l.79-2.1,2.41,2.1h8.5a72.16,72.16,0,0,0-8.5-8.25Z"/><path class="e" d="M39.3,39.09c17.88,1.09,21.25-23.15,18.17-28s-18.69-2-18.69-2c-3,.37-5.12,8.54-5.16,16.26,0,1.06,0,2.13.11,3.15C34.14,34.15,35.83,38.89,39.3,39.09Z"/><path class="f" d="M36.82,32s-.19,1.45,1.62,1.8a3.58,3.58,0,0,0,3.14-1.25s-2.11-1.24-2.53-1.45-1.28.19-1.28.19c-1.15-1-1.49.44-1.49.44Z"/><path class="a" d="M45.7,20.34s-3.21-1.84-5.38,0l.61-1.52S44.82,18.09,45.7,20.34Z"/><path class="a" d="M37.14,20.22,36.66,19a1.54,1.54,0,0,0-2.39,1.17S35.13,18.58,37.14,20.22Z"/><path class="g" d="M42.5,24.33c0,.57.18,1.05.5,1.08s.63-.41.68-1-.18-1-.5-1.07S42.55,23.76,42.5,24.33Z"/><path class="g" d="M35.32,23.86c0,.57.17,1.05.49,1.08s.63-.41.68-1-.17-1-.5-1.08S35.37,23.3,35.32,23.86Z"/><path class="h" d="M44.92,28.66a1.7,1.7,0,1,0,3.38-.35,1.7,1.7,0,1,0-3.38.35Z"/><path class="h" d="M33.73,28.5a1.73,1.73,0,0,0,1-1.73,1.69,1.69,0,0,0-1.12-1.42C33.62,26.41,33.65,27.48,33.73,28.5Z"/><path class="i" d="M38.44,33.75a3.58,3.58,0,0,0,3.14-1.25A14,14,0,0,1,36.82,32S36.63,33.4,38.44,33.75Z"/><path class="a" d="M37.87,12.65H34.58c.1-.24.17-.37.17-.37C32.5,3.65,56.53.76,61.68,11.41c2,4.06,1.25,12.07,1,19.36l-9.67,1.77-.37-1.16c2.65-.27,2-3.73,2-3.73-8.79-1.5-6.3-14.35-6.3-14.35A17.13,17.13,0,0,0,37.87,12.65Z"/><path class="b" d="M38.27,22.84s-.51,3.18-2.56,3.74,1.19,2.68,2,2.43S39.52,24.21,38.27,22.84Z"/><path class="a" d="M34.88,12.65l0-.08a3,3,0,0,0,.39.12Z"/><path class="a" d="M34.1,5.47A4.75,4.75,0,0,1,36,4.5,6.06,6.06,0,0,0,38,3.81c.82-.62.21-1.77.94-2.35,1.33-1,2.58.74,3,1.72a.32.32,0,0,0,.11.17c.15.12.36,0,.49-.15.68-.71,1-1.68,1.76-2.36,1.22-1.17,5-1.4,3.88,1.18-.12.3,2.74-.1,3-.22C51.91,1.42,52.7.08,53.65.32c1.27.32,1,2.48.72,3.38l4,.47a2.26,2.26,0,0,1,1.48.54c.75.81-.4,1.6-1,1.9,1.58-.28,3.85-.57,4.8,1.13A1.78,1.78,0,0,1,63,10.18a1.78,1.78,0,0,0-.46.22.34.34,0,0,0-.1.45.5.5,0,0,0,.2.13l2.16.91a1,1,0,0,1,.51.37c.19.36-.11.77-.37,1.08a2.69,2.69,0,0,0-.65,1.22c-.21,1.16.61,1.15,1.34,1.57,1.7,1-.91,3.27-.37,4.55a12.22,12.22,0,0,0,1,1.56,3.8,3.8,0,0,1,.36,3.07c-.27.83-.83,1.75-.37,2.5a4.75,4.75,0,0,0,.79.76c1.37,1.4-2,3-2.32,4.25-.13.51-.06,1.1-.37,1.53-.45.61-1.35.54-2.11.56A.36.36,0,0,0,62,35a.4.4,0,0,0-.1.23,10.85,10.85,0,0,1-.54,2.4,1,1,0,0,1-.35.51.92.92,0,0,1-.49.13,4.44,4.44,0,0,1-1.91-.31,2.08,2.08,0,0,1,.19,2.39c-1.08,1.73-3.46.8-4.56-.35a1.1,1.1,0,0,1-1.35,1,2,2,0,0,1-1.33-1.31,3.74,3.74,0,0,1,.17-3.15,1.33,1.33,0,0,0,.28-.91c-.08-.29-.37-.49-.43-.79s.36-.74.68-1,.52-.9.13-1.09c.4.08.39-.56.47-1,.11-.62.84.14,1.67-.95A11.89,11.89,0,0,0,56,28.21a2.56,2.56,0,0,0-1,.05c-1,.25-1.82,1-2.8,1.35s-2.4,0-2.47-1.08a1.46,1.46,0,0,0-.07-.66c-.11-.2-.36-.28-.53-.43-1-.84.68-2.66-.08-3.75-.77.26-1.28-.85-1.19-1.66s.35-1.79-.27-2.32c-.38-.34-1-.37-1.28-.8-.56-.87,1-2.17.25-2.91a8.34,8.34,0,0,1-2.79-.51,1.45,1.45,0,0,1-.84-.6,2.74,2.74,0,0,1-.15-1,2.55,2.55,0,0,0-2-2,7.66,7.66,0,0,0-2.94,0l-.5,0c-.46-1,.47-2.11,1.39-2.74a13.38,13.38,0,0,1,6.08-2.2,5.48,5.48,0,0,0-1.59-.41c-2.77-.25-5.1,1.9-7,3.89a4.14,4.14,0,0,0-1.28,2c-1.33-.48-1-1.94-.89-3.19S33.25,6.3,34.1,5.47Z"/><path class="e" d="M73.28,55.66s25.19,39.29,24,47-26.22,29.15-26.22,29.15-.49,4.19-2.19,4.79c-2.05.71-5.85-2.6-4.09-6.47.66-1.46,4.82-.58,4.82-.58s16.46-23.79,16.85-28.05-18.32-27.2-18.32-27.2S65.5,57.31,73.28,55.66Z"/><path class="e" d="M65.2,129.72a7.64,7.64,0,0,0-3.7,3.58c-1.15,2.18,2.13-1.11,2.13-1.11s-2.37,3.72-2.08,4.11,2.81-2.18,2.81-2.18a8,8,0,0,0-1.31,3.39c-.1,1.64.92-.49,2.15-1.26,0,0-1.09,1.15-.84,1.86.19.55.29-.19,1.83-.89s1.79-.5,1.79-.5Z"/><path class="b" d="M20.94,126.46c1.17-.52,3.57.94,5,3.69,1.15,2.18-2.13-1.11-2.13-1.11s2.37,3.72,2.08,4.11S23.1,131,23.1,131a7.9,7.9,0,0,1,1.31,3.39c.1,1.64-.92-.48-2.15-1.26,0,0,1.09,1.15.84,1.87-.19.54-.28-.2-1.83-.9s-1.79-.49-1.79-.49S19.22,127.23,20.94,126.46Z"/></svg>