<svg xmlns="http://www.w3.org/2000/svg" width="84.41" height="283.5" viewBox="0 0 84.41 283.5"><defs><style>.a{fill:#c17b53;}.b{fill:#af3a2e;}.c{fill:#422645;}.d{fill:#a86656;}.e{fill:#a06040;}.f{fill:#bf6155;}.g{fill:#bd1e2d;}.h{fill:#841929;}.i{fill:#bf4635;}</style></defs><title>Asset 6Justicia</title><path class="a" d="M76.51,152.69a22.63,22.63,0,0,0-2.08,5.23,6.84,6.84,0,0,0,1,4s.23-.37-.07-2.09,1.57-1,1.11,3.14c-.3,2.69,1.51,0,1.51,0s4.17-3.28.75-10C78.77,153,78.29,151.94,76.51,152.69Z"/><path class="b" d="M59.59,42.75s13.22,7.46,16.67,43.63,5.61,64.37,5.61,67.69-1.75,4.24-1.75,4.24-4.94,2.32-8.26-5.89-8.16-41.87-8.16-41.87S62.64,51.29,59.59,42.75Z"/><path class="c" d="M60.13,10.5s.43,5.74,2.08,7.42-.05,5.56-1.68,7.4-.14,4.19.55,6.89S58.47,38,59.26,39.52s1.27,5.65,1.27,5.65L44.75,48,34.57,46.82s1.84-6.46,0-9-.77-6.79,0-8.65-3-4.27-3.49-6.89S35.59,9.42,35.59,9.42Z"/><path class="d" d="M30.26,96.08S20.05,109,21.75,141.26s14.8,134.32,14.8,134.32H41l3.72-139.33L72.27,275.58h4s-4.54-116.14-6.57-140.67S59.18,96.6,59.18,96.6Z"/><path class="c" d="M36.55,275.58s-3.54,5.06-3.88,7.92h6.08l1.5-1.69v1.69a7.41,7.41,0,0,0,.74-7.92Z"/><path class="c" d="M72.27,275.58s-2.06,4.21-.67,7.92h1.59l.75-2,2.32,2h8.15a69.06,69.06,0,0,0-8.15-7.92Z"/><path class="e" d="M22.91,115a7,7,0,0,1,3.36,3.25c1,2-1.93-1-1.93-1s2.15,3.37,1.88,3.72-2.54-2-2.54-2A7.12,7.12,0,0,1,24.86,122c.09,1.49-.83-.44-1.95-1.14,0,0,1,1,.77,1.69s-.26-.17-1.67-.81-1.62-.45-1.62-.45A5.23,5.23,0,0,1,22.91,115Z"/><path class="e" d="M41.33,31.17s.89,5.6-.52,9.2c0,0,4.44,4.87,12.27.69,0,0-1.83-7.17-.79-9.89S41.33,31.17,41.33,31.17Z"/><path class="e" d="M55.45,18.23s1.89-2.26,2.61-.44-1,7.88-2.87,6.68S55.45,18.23,55.45,18.23Z"/><path class="e" d="M37.35,18.23s-1.89-2.26-2.61-.44,1,7.88,2.87,6.68S37.35,18.23,37.35,18.23Z"/><path class="a" d="M46.37,34.43C41.85,34.43,38.2,30,37,23.68,35.3,15.28,37.3,5.15,45.53,5c8.8-.2,12.66,6.7,10.08,20.14C54.56,30.59,50.71,34.43,46.37,34.43Z"/><path class="c" d="M53.62,14.47s-3.34-1.62-5.37.4l.5-1.56S52.59,12.28,53.62,14.47Z"/><path class="c" d="M50.25,18.68c0,.57.25,1,.58,1s.6-.45.61-1-.25-1-.57-1S50.27,18.11,50.25,18.68Z"/><path class="f" d="M51.94,22.2a1.71,1.71,0,1,0,1.39-2A1.71,1.71,0,0,0,51.94,22.2Z"/><path class="f" d="M38.14,22.4a1.71,1.71,0,1,0,1.39-2A1.72,1.72,0,0,0,38.14,22.4Z"/><path class="c" d="M39.37,14.47s3.34-1.62,5.38.4l-.51-1.56S40.4,12.28,39.37,14.47Z"/><path class="c" d="M42.74,18.68c0,.57-.25,1-.58,1s-.6-.45-.61-1,.25-1,.58-1S42.73,18.11,42.74,18.68Z"/><path class="g" d="M43.41,27.66l1.89-.4.88.4,1.27-.4,2.16.2A10.28,10.28,0,0,1,43.41,27.66Z"/><path class="h" d="M43.41,27.66a4.38,4.38,0,0,0,6.2-.2A12.34,12.34,0,0,1,43.41,27.66Z"/><path class="c" d="M50.93,8.29s.11,4.53-3.48,4-6.68,1.34-5.39,2.89c0,0-4.05-.37-5.64,2.74,0,0-5-3-3.26-6.15S33,2.25,38.73,2.36,44-.84,48.65.2A10.92,10.92,0,0,1,55.43,5s3.74-.41,4.87,4.38-2.24,8.45-2.24,8.45l-2.61.44s1.72-2.94.07-4.26-1.35-2.38-1.9-4.85S50.93,8.29,50.93,8.29Z"/><path class="e" d="M46.14,17.75s.06,5-.63,5.47-.61,1.34,1.17,1.4S47.7,18.06,46.14,17.75Z"/><path class="i" d="M41.55,36.67S4,42.4,22.91,115c0,0,21.37,17.68,46.23,14.75,0,0,6.11-4.67,0-36.42s9.65-37.89-16.85-56.2C52.29,37.1,45.82,42,41.55,36.67Z"/><path class="b" d="M33.82,40S1.54,58.14,0,91.8c-1,23,20.35,29.52,20.35,29.52s-.6-2.17,2.52-6.35c0,0-2-20.88-5.31-24.78C17.6,90.19,17.39,61.23,33.82,40Z"/></svg>