<svg xmlns="http://www.w3.org/2000/svg" width="75.27" height="255.88" viewBox="0 0 75.27 255.88"><defs><style>.a{fill:#445690;}.b{fill:#a06040;}.c{fill:#af3a2e;}.d{fill:#422645;}.e{fill:#c17b53;}.f{fill:#bd1e2d;}.g{fill:#404041;}.h{fill:#841929;}.i{fill:#bf6155;}</style></defs><title>Asset 3Justicia</title><path class="a" d="M49.91,83.17s9.41,11.89,7.83,41.63S44.11,248.58,44.11,248.58H40L36.59,120.19,11.19,248.58H7.51s4.19-107,6.06-129.62,9.68-35.31,9.68-35.31Z"/><path class="b" d="M57.87,38.35S76.2,72.45,75.23,78.91s-15.9,24.26-15.9,24.26.55,4.2-2,4.18c-1.58,0-2.15-6.77-.69-6.77a2.84,2.84,0,0,1,1.59.79s7.59-19.87,7.91-23.43S54.55,52.73,54.55,52.73Z"/><path class="c" d="M23.25,83.65c0-12.2-14.48-37.25-13-41.89C12.13,36,35,30.83,35,30.83s19.89,3.72,22.92,7.52c2.57,3.22-8.13,33.11-8,44.82,0,0-1.82,2.85-13,2.85C26.59,86,23.25,83.65,23.25,83.65Z"/><path class="b" d="M28,24s1.52,5.55.5,9.09c0,0,8.78,6.32,10.88-.95,0,0-1.77-5.5-.76-8.14S28,24,28,24Z"/><path class="d" d="M44.11,248.58s3.26,4.66,3.57,7.3h-5.6l-1.38-1.55v1.55a6.81,6.81,0,0,1-.68-7.3Z"/><path class="d" d="M11.19,248.58s1.89,3.89.62,7.3H10.34L9.65,254l-2.14,1.86H0a63.79,63.79,0,0,1,7.51-7.3Z"/><path class="b" d="M56.68,100.58a6.4,6.4,0,0,0-3.1,3c-1,1.82,1.78-.93,1.78-.93s-2,3.11-1.74,3.43S56,104.26,56,104.26a6.6,6.6,0,0,0-1.09,2.82c-.09,1.38.77-.4,1.8-1,0,0-.92,1-.71,1.56s.24-.16,1.53-.75,1.5-.41,1.5-.41Z"/><path class="e" d="M10.27,41.76s7.3,8.78,7.3,13.63-3.65,38.3-3.65,38.3L7.51,136.61H5s2.93-41.33,2.55-49S9.52,44.61,10.27,41.76Z"/><path class="e" d="M7.28,135.34a20.94,20.94,0,0,1,1.92,4.82,6.33,6.33,0,0,1-1,3.71S8,143.53,8.3,142s-1.44-.9-1,2.89c.28,2.48-1.39,0-1.39,0s-3.84-3-.69-9.2C5.2,135.64,5.64,134.65,7.28,135.34Z"/><path class="d" d="M43.42,5.43s4.95-5.34,10.09-1-3.76,16-1.88,19.8c0,0-4.61-1.64-2.35-8.79,0,0-2.45,5.19,0,8,0,0-5.46-4-1.31-11.36S43.42,8.3,43.42,8.3Z"/><path class="d" d="M31.26.58s-9.69-2.77-12,5.64,6.05,15.63,6.05,15.63Z"/><path class="e" d="M22.41,24.15c.05.21.11.4.16.59.79,2.61,2.1,4.42,4.07,4.53C41.93,30,44.58,9.27,41.9,5.16s-16-1.53-16-1.53C22.41,4.08,20.5,16.8,22.41,24.15Z"/><path class="d" d="M40.9,2.34s-10.78,5-12.8,5.76c.61.67,5,5.71,4.19,11.07a2.14,2.14,0,0,1,2.36-1.71c2,.13.6,5.28-1.3,6.09l4.74.58s6.82-2.24,8-9.17S44.46,3.36,40.9,2.34Z"/><path class="f" d="M25.34,22.36s-.94,3-2,3.12-.74-.74-.74-.74Z"/><path class="d" d="M22.85,12.19l.4-1.19a3.51,3.51,0,0,1,3.42,2.23A3.62,3.62,0,0,0,22.85,12.19Z"/><path class="g" d="M25.34,15.11c0,.55-.26,1-.58,1s-.57-.45-.57-1,.25-1,.57-1S25.34,14.55,25.34,15.11Z"/><path class="d" d="M25.34,7c.08,2.88-.51,6,7.9,8.39s12-9,12-9-.66-8-15.1-6.09C23.85,1.11,22.85,5,22.85,5,24.93,4.14,25.31,6.22,25.34,7Z"/><path class="b" d="M21.83,17.42s-2.58,0-2.48.94,2.82,2.54,2.82,2.54Z"/><path class="h" d="M22.17,23.47,22.63,25s1.48.27,2.5-2.41A7.34,7.34,0,0,1,22.17,23.47Z"/><path class="f" d="M22,23c-.2,0-.27.3-.22.49s.43.15.58.15a4.91,4.91,0,0,0,.77-.09,4.37,4.37,0,0,0,1.1-.39,8.22,8.22,0,0,0,.87-.58l.21-.18s-.39.11-.93.3c-.27.08-.59.19-.93.26a2.81,2.81,0,0,1-1,.09A1.84,1.84,0,0,1,22,23Z"/><path class="i" d="M28.33,18.73a1.66,1.66,0,1,1-1.66-1.66A1.66,1.66,0,0,1,28.33,18.73Z"/></svg>