<svg xmlns="http://www.w3.org/2000/svg" width="133.48" height="476.94" viewBox="0 0 133.48 476.94"><defs><style>.a{fill:#fff;}</style></defs><title>OverlayJusticia</title><path class="a" d="M23.83,29.86a20,20,0,0,1-1.24-19C24.14,7.58,27.65,4.45,31,5.75c1.88.73,3,2.63,3.75,4.53a18.26,18.26,0,0,1-1.7,15.84,20.56,20.56,0,0,1,8.26-6.57,7.45,7.45,0,0,1,3.86-.78c2.68.33,4.57,3.15,4.47,5.85a9.22,9.22,0,0,1-4,6.72,27,27,0,0,1-7.27,3.46c2.91.65,4.25,4.06,4.55,7a12.09,12.09,0,0,1-1.2,7.34c-1.29,2.17-3.9,3.69-6.35,3.09-3.36-.82-4.73-4.84-5-8.28-.93,4.14-2.46,8.39-5.7,11.15s-8.56,3.41-11.6.44a7.78,7.78,0,0,1-1.48-8.39,10.46,10.46,0,0,1,6.62-5.73c-5.16,1.48-11.79.16-13.94-4.75C2.4,32.39,5.14,27,9.46,25.12S19,24.5,22.69,27.4Z"/><path class="a" d="M34.61,29.27a.53.53,0,0,0,0-.53l-.08-.1a1,1,0,0,0-.57-.57.64.64,0,0,0-.65.15,1.16,1.16,0,0,0-.88.77,1,1,0,0,0,.41,1.27,1.29,1.29,0,0,0,.61.13.37.37,0,0,0,.26.07v0a3,3,0,0,1-.26.58,3.58,3.58,0,0,1-3.29,1.73c-.59,0-.72.87-.12.92a4.47,4.47,0,0,0,4.27-2.3,2.21,2.21,0,0,0,.29-1.89A1,1,0,0,0,34.61,29.27Z"/><path class="a" d="M29.92,27.45a2.75,2.75,0,0,0-.48-.4,1.22,1.22,0,0,0-.82-.87A1.32,1.32,0,0,0,27,27l0,0a1.24,1.24,0,0,0-.31.94c.06.37.52.66.85.78a1.49,1.49,0,0,0,1.78-.6,2.45,2.45,0,0,1,.4,1.06,3.66,3.66,0,0,1-.84,2.71c-.37.46.37,1,.74.56C30.71,31.15,31.19,28.85,29.92,27.45Zm-2.24.34.05,0,.09.13h0Z"/><path class="a" d="M32.52,38.93a2.23,2.23,0,0,0,.23-1.75,2.33,2.33,0,0,0-2.5-1.59,1.2,1.2,0,0,0,0-.19,1.36,1.36,0,0,0-1.94-1.13.73.73,0,0,0-.11-.53.44.44,0,0,0-.79.17h-.09a2.49,2.49,0,0,1-.46-.09,2,2,0,0,1-.87-.6,2,2,0,0,1-.45-.89l0-.15a1.79,1.79,0,0,0,1.28-.92,1.4,1.4,0,0,0-.89-2,1.18,1.18,0,0,0-1.29,1.6.35.35,0,0,0,.07.12,1.22,1.22,0,0,0,0,.27,2.52,2.52,0,0,0-.06,1.12,2.93,2.93,0,0,0,2.67,2.42.59.59,0,0,0,.44.08,1,1,0,0,0,.06.92,1.07,1.07,0,0,0,.51.43l.07.06a1.22,1.22,0,0,0,1.47,0,.38.38,0,0,0,.43.19,1.42,1.42,0,0,1,1.6.91,1.32,1.32,0,0,1-.34,1.31,1.7,1.7,0,0,0-1.18.95.47.47,0,0,0,.07.47,1.33,1.33,0,0,0,.49.33,1.49,1.49,0,0,0,.18.3,1.09,1.09,0,0,0,1.83-.09A1.36,1.36,0,0,0,32.52,38.93ZM32,40.31a.47.47,0,0,0,.06-.15h.13C32.11,40.29,32,40.33,32,40.31Z"/><path class="a" d="M27.57,36.73l-.77-.25a.5.5,0,0,0-.64.51,2.15,2.15,0,0,0-1.31,1.23,1.74,1.74,0,0,0,.55,2,1,1,0,0,0-.3,1.36.48.48,0,0,0,.61.25,1.7,1.7,0,0,0,.86-.73.49.49,0,0,0,.13-.54.66.66,0,0,0-.45-.41.45.45,0,0,0-.22-.63.81.81,0,0,1-.23-1.18,2.17,2.17,0,0,1,1.66-.76C27.89,37.57,28,36.87,27.57,36.73Z"/><path class="a" d="M24.9,35.87a1.61,1.61,0,0,1-1.61.16c-.31-.21-.52-.77-.2-1.06a.46.46,0,0,0,.05-.65.43.43,0,0,0,0-.11.71.71,0,0,0-.35-.79,1,1,0,0,0-1.22.53l-.11.08a.64.64,0,0,0-.12.9.84.84,0,0,0,.67.25,1.77,1.77,0,0,0,.47,1.39,2.31,2.31,0,0,0,2.77.15C25.78,36.43,25.42,35.57,24.9,35.87Z"/><path class="a" d="M35.42,33.62a.84.84,0,0,0-.72-.11.7.7,0,0,0-.29,0,.43.43,0,0,0-.6.24,1.24,1.24,0,0,1-2.09.29c-.36-.48-1.08.09-.73.57A2.19,2.19,0,0,0,34,35a1.33,1.33,0,0,0,.14.19h0l.07.07.1.06a.41.41,0,0,0,.11.07C35.44,35.87,36.35,34.25,35.42,33.62Z"/><path class="a" d="M29.08,40.45c.17-.76.33-1.51.5-2.27.13-.59-.79-.7-.92-.12-.17.75-.33,1.51-.5,2.27a.47.47,0,0,0,0,.27,1.07,1.07,0,0,0-.87.62l0,.1a1.07,1.07,0,0,0,.62,1.32,1.28,1.28,0,0,0,1.54-.27,1.07,1.07,0,0,0-.39-1.58l-.13-.07A.51.51,0,0,0,29.08,40.45Z"/><path class="a" d="M46.87,367.47a9.69,9.69,0,0,1-7.33-5.56c-.7-1.6-.74-3.88.81-4.7a3.48,3.48,0,0,1,2.84.07,8.81,8.81,0,0,1,5.24,5.63,10,10,0,0,1,.22-5.1,3.62,3.62,0,0,1,.94-1.66,2.73,2.73,0,0,1,3.54.23,4.47,4.47,0,0,1,1.2,3.58,13,13,0,0,1-1,3.74c1.16-.85,2.83-.26,4,.57A5.84,5.84,0,0,1,59.6,367a3,3,0,0,1-.88,3.29c-1.37,1-3.27.2-4.62-.78a9.7,9.7,0,0,1,2.27,5.61c0,2.05-1.47,4.21-3.51,4.38a3.78,3.78,0,0,1-3.54-2.11,5.07,5.07,0,0,1,0-4.24c-1.1,2.35-3.68,4.36-6.15,3.59-2.17-.68-3.27-3.39-2.59-5.56a6.48,6.48,0,0,1,5-4.1Z"/><path class="a" d="M50.07,363.35a.25.25,0,0,0-.2-.16H49.8a.59.59,0,0,0-.39,0,.35.35,0,0,0-.15.29.56.56,0,0,0,0,.56.47.47,0,0,0,.59.25.59.59,0,0,0,.24-.17.31.31,0,0,0,.11-.08h0a1.43,1.43,0,0,1,.13.28,1.5,1.5,0,0,1,.08.63,1.63,1.63,0,0,1-.49,1.12c-.2.2.09.54.3.34a2.19,2.19,0,0,0,.51-2.29c-.09-.25-.3-.65-.6-.71Z"/><path class="a" d="M47.92,364.48a1.71,1.71,0,0,0-.3,0,.6.6,0,0,0-.58,0,.63.63,0,0,0-.19.84v0a.58.58,0,0,0,.24.41.62.62,0,0,0,.56-.06.71.71,0,0,0,.34-.84,1.18,1.18,0,0,1,.51.19,1.73,1.73,0,0,1,.73,1.16c.05.28.49.19.44-.09A2,2,0,0,0,47.92,364.48Zm-.59.92v0h0Z"/><path class="a" d="M52.93,367.16a1.06,1.06,0,0,0-.56-.63,1.13,1.13,0,0,0-1.38.41l-.06-.06a.65.65,0,0,0-1,.35.32.32,0,0,0-.23-.13c-.21,0-.27.2-.19.34s0,0,0,0a.59.59,0,0,1-.18.14,1,1,0,0,1-.5.13,1.12,1.12,0,0,1-.47-.11l-.06,0a.85.85,0,0,0,.07-.76.68.68,0,0,0-1-.3.57.57,0,0,0,.17,1h.07a.43.43,0,0,0,.1.09A1.15,1.15,0,0,0,48,368a1.45,1.45,0,0,0,1.74-.21.32.32,0,0,0,.16-.14.46.46,0,0,0,.36.27.47.47,0,0,0,.31-.05h0a.59.59,0,0,0,.47-.53.21.21,0,0,0,.21-.1.68.68,0,0,1,.84-.3.66.66,0,0,1,.37.54.79.79,0,0,0,0,.73.22.22,0,0,0,.19.13.83.83,0,0,0,.28-.08.47.47,0,0,0,.17,0,.52.52,0,0,0,.54-.7A.67.67,0,0,0,52.93,367.16Zm.33.65a.16.16,0,0,0,0-.07l0-.05A.08.08,0,0,1,53.26,367.81Z"/><path class="a" d="M50.56,368.28l-.33.2a.24.24,0,0,0,0,.39,1.1,1.1,0,0,0,0,.87.86.86,0,0,0,.93.45.49.49,0,0,0,.4.54.24.24,0,0,0,.28-.15.77.77,0,0,0,0-.54.22.22,0,0,0-.16-.22.33.33,0,0,0-.29,0,.22.22,0,0,0-.3-.11c-.21.1-.45-.09-.51-.3a1.08,1.08,0,0,1,.25-.84C51,368.42,50.76,368.16,50.56,368.28Z"/><path class="a" d="M49.41,369c-.06.25-.18.56-.46.64s-.44-.06-.45-.26a.22.22,0,0,0-.22-.23l0,0a.33.33,0,0,0-.4-.12.48.48,0,0,0-.19.61.13.13,0,0,0,0,.06.3.3,0,0,0,.29.33.41.41,0,0,0,.31-.16.82.82,0,0,0,.65.26,1.09,1.09,0,0,0,.93-1C49.89,368.83,49.46,368.69,49.41,369Z"/><path class="a" d="M51.91,364.43a.46.46,0,0,0-.27.22l-.08.12a.21.21,0,0,0-.1.3.6.6,0,0,1-.56.85c-.28,0-.3.42,0,.45a1.07,1.07,0,0,0,1.09-1h.16l.06,0,.06,0C52.74,365.13,52.44,364.28,51.91,364.43Z"/><path class="a" d="M52.4,368.9l-.67-.9c-.18-.23-.51.07-.34.3l.67.9a.26.26,0,0,0,.11.08.51.51,0,0,0-.05.51l0,0a.52.52,0,0,0,.67.2.62.62,0,0,0,.39-.65.51.51,0,0,0-.69-.36l-.07,0A.23.23,0,0,0,52.4,368.9Z"/><path class="a" d="M80.42,11.5a8.71,8.71,0,0,1-5.35,6.26c-1.47.55-3.51.46-4.16-1a3.13,3.13,0,0,1,.21-2.53,7.92,7.92,0,0,1,5.3-4.4,8.9,8.9,0,0,1-4.54-.45,3.3,3.3,0,0,1-1.43-.93,2.44,2.44,0,0,1,.38-3.16,4,4,0,0,1,3.26-.88,11.81,11.81,0,0,1,3.3,1.12C76.68,4.48,77.3,3,78.1,2A5.28,5.28,0,0,1,80.69.1a2.64,2.64,0,0,1,2.9,1c.79,1.27,0,2.93-.94,4.09a8.63,8.63,0,0,1,5.13-1.74c1.84.12,3.69,1.53,3.73,3.37a3.36,3.36,0,0,1-2.07,3,4.51,4.51,0,0,1-3.78-.22c2,1.1,3.7,3.51,2.88,5.68a4,4,0,0,1-5.1,2A5.79,5.79,0,0,1,80,12.6Z"/><path class="a" d="M76.9,8.43a.22.22,0,0,0-.15.17.43.43,0,0,1,0,.05.47.47,0,0,0,0,.35.27.27,0,0,0,.24.15.49.49,0,0,0,.51,0,.45.45,0,0,0,.26-.52.54.54,0,0,0-.15-.22.14.14,0,0,0-.06-.1h0l.25-.1a1.57,1.57,0,0,1,.57,0,1.48,1.48,0,0,1,1,.5c.16.19.48,0,.31-.25a1.92,1.92,0,0,0-2-.57c-.23.07-.59.23-.66.49Z"/><path class="a" d="M77.81,10.41a.78.78,0,0,0,0,.26.56.56,0,0,0,0,.52.57.57,0,0,0,.75.22h0a.53.53,0,0,0,.38-.2.53.53,0,0,0,0-.49.64.64,0,0,0-.73-.36,1,1,0,0,1,.19-.44,1.61,1.61,0,0,1,1.08-.59c.26,0,.2-.43-.06-.4A1.75,1.75,0,0,0,77.81,10.41Zm.79.57h0a.13.13,0,0,0,0-.06h0A.23.23,0,0,0,78.6,11Z"/><path class="a" d="M80.46,6.06a1,1,0,0,0-.6.48,1,1,0,0,0,.3,1.25l-.06,0a.59.59,0,0,0,.26.94.32.32,0,0,0-.13.2c0,.18.17.25.3.18l0,0,.12.16a.88.88,0,0,1,.08.45.9.9,0,0,1-.13.42l0,0a.78.78,0,0,0-.68-.1.6.6,0,0,0-.31.88.51.51,0,0,0,.88-.11.13.13,0,0,0,0-.06l.09-.08a1.08,1.08,0,0,0,.35-.32,1.28,1.28,0,0,0-.09-1.56.31.31,0,0,0-.11-.16.42.42,0,0,0,.25-.3.48.48,0,0,0,0-.29.06.06,0,0,0,0,0,.52.52,0,0,0-.45-.45.17.17,0,0,0-.07-.19.6.6,0,0,1-.22-.76.57.57,0,0,1,.5-.31.71.71,0,0,0,.65.07.21.21,0,0,0,.12-.17.7.7,0,0,0,0-.25.8.8,0,0,0,0-.15.46.46,0,0,0-.59-.52A.59.59,0,0,0,80.46,6.06Zm.59-.25-.06,0,0,0S81,5.78,81.05,5.81Z"/><path class="a" d="M81.33,8.24l.17.31a.22.22,0,0,0,.35,0,1,1,0,0,0,.78,0,.76.76,0,0,0,.44-.8.45.45,0,0,0,.51-.33.21.21,0,0,0-.12-.26.66.66,0,0,0-.48,0,.21.21,0,0,0-.21.12.28.28,0,0,0,0,.27.19.19,0,0,0-.12.26c.08.19-.11.39-.29.43A.9.9,0,0,1,81.64,8C81.49,7.88,81.24,8.06,81.33,8.24Z"/><path class="a" d="M81.9,9.31a.71.71,0,0,1,.55.44c0,.15-.07.39-.26.39a.19.19,0,0,0-.21.18l0,0a.3.3,0,0,0-.13.35.42.42,0,0,0,.54.2h.05a.27.27,0,0,0,.31-.24.34.34,0,0,0-.13-.28.71.71,0,0,0,.27-.57A1,1,0,0,0,82,8.94C81.8,8.87,81.65,9.25,81.9,9.31Z"/><path class="a" d="M78,6.83a.38.38,0,0,0,.19.25.19.19,0,0,0,.1.08.18.18,0,0,0,.26.11.54.54,0,0,1,.74.54.2.2,0,1,0,.39,0,1,1,0,0,0-.81-1,.31.31,0,0,0,0-.1h0s0,0,0,0a.07.07,0,0,0,0-.05.13.13,0,0,0,0-.06C78.64,6.13,77.86,6.36,78,6.83Z"/><path class="a" d="M82,6.63l-.84.55c-.22.15,0,.46.25.32L82.24,7a.18.18,0,0,0,.07-.09.5.5,0,0,0,.46.07l0,0a.48.48,0,0,0,.21-.6.56.56,0,0,0-.56-.38.46.46,0,0,0-.36.6s0,0,0,.07A.16.16,0,0,0,82,6.63Z"/><path class="a" d="M41.54,294c-11.93-.81-19.14-9.91-20.38-22.51,11.72-.36,25.18,9.11,26.48,21.11a1.17,1.17,0,0,1-.21,1,1.15,1.15,0,0,1-.7.25A27.66,27.66,0,0,1,41.54,294Z"/><path class="a" d="M119.59,440.75c-1.29-8.94,4.29-15.71,13.4-18.62,2.12,8.59-2.74,20-11.4,22.91a.69.69,0,0,1-1.07-.48A21.1,21.1,0,0,1,119.59,440.75Z"/><path class="a" d="M14.43,131.18c4,6.22,2.09,13.14-3.71,18.37-4.47-5.68-4.71-15.84.78-20.89a.73.73,0,0,1,.58-.27.74.74,0,0,1,.37.26A17.26,17.26,0,0,1,14.43,131.18Z"/><path class="a" d="M106.93,264.47c7.35.64,11.7,6.34,12.33,14.13-7.24.09-15.44-5.91-16.11-13.33a.71.71,0,0,1,.14-.62.65.65,0,0,1,.43-.14A17.33,17.33,0,0,1,106.93,264.47Z"/><path class="a" d="M105,379.18c7.36.64,11.71,6.34,12.33,14.12-7.23.09-15.44-5.9-16.11-13.32a.74.74,0,0,1,.14-.62.75.75,0,0,1,.44-.15A17.18,17.18,0,0,1,105,379.18Z"/><path class="a" d="M19.1,452.79c7.36.64,11.71,6.33,12.33,14.12C24.2,467,16,461,15.32,453.59a.76.76,0,0,1,.14-.63.82.82,0,0,1,.44-.14A17.18,17.18,0,0,1,19.1,452.79Z"/><path class="a" d="M1.19,339.47c-.17-12,8.3-19.9,20.75-22.17,1.33,11.65-7,25.84-18.85,28.14a1.19,1.19,0,0,1-1-.13,1.21,1.21,0,0,1-.3-.67A28.09,28.09,0,0,1,1.19,339.47Z"/><path class="a" d="M10.1,220c-1.88-2.47-6.4-5.35-7.7-7.48C1.75,211.48-1,199.13.4,199.5c8.27,2.18,11.88,9.1,14.51,15.23-2.36-11.27-4.5-23.5,3.11-33.45.76-1,2.33-2.1,3.64-1.48a2,2,0,0,1,1,1.53c2,9.19-3.68,18.49-2.49,27.75,3.1-7.58,6.39-15.41,13.49-21.38a1.88,1.88,0,0,1,1.23-.54A1.29,1.29,0,0,1,36,188.32c1,4.57-1.49,9.19-4.85,13.12s-7.6,7.43-10.69,11.47a43,43,0,0,1,9.11-7.4,21.24,21.24,0,0,1,12.73-2.73c-2.86,6.81-12.29,10.77-20.94,14.05,4-.17,7.8-1.35,11.75-1.16s8.24,2.64,7.24,5.44c-.86,2.42-4.84,3.33-8.21,3.69-6.36.68-13.65.77-17.57-3a17.61,17.61,0,0,0-7,13.39l-2.11-.65q2.69-6,5.38-11.93C11.15,221.82,10.81,221,10.1,220Z"/><path class="a" d="M95.31,333c-2.2.37-5.92,2.36-7.66,2.45-.86.05-8.53-2.68-7.63-3.5,5.24-4.82,10.56-4.69,15-4.19-6.91-2.6-14.2-5.71-15.46-14.6a3.31,3.31,0,0,1,1.07-3,1.3,1.3,0,0,1,1.28-.11c5.67,2.07,7.56,9.41,12.87,12.06-2.31-4.94-4.65-10.1-4.14-17.17a1.89,1.89,0,0,1,.34-1,1,1,0,0,1,1.16-.33c2.82,1,3.92,4.45,4.24,8.19s0,7.95.5,11.56a36.32,36.32,0,0,1,.79-9,22.88,22.88,0,0,1,5-9.68c2,4.49-.67,12.38-3.31,19.49,1.88-2.75,3.2-5.81,5.27-8.43s5.46-4.62,6.39-2.89c.79,1.49-.73,4.53-2.23,7-2.83,4.58-6.43,9.58-10.32,10.83-.54,4.39.94,8,3.29,9.79l-1.39,1.2L97,333.51C96.74,333,96.13,332.91,95.31,333Z"/><path class="a" d="M36.87,407.25a3,3,0,0,0-.51.07,4.69,4.69,0,0,0-.45.18,2.57,2.57,0,0,0-.55.38,2.64,2.64,0,0,0-.43.51,3.45,3.45,0,0,0-.3.61,1.66,1.66,0,0,0-.11.38,3.19,3.19,0,0,0-.08.7c0,.08,0,.16,0,.24s0,.36.08.54a4.42,4.42,0,0,0,.15.48,10.94,10.94,0,0,0,1.06,2,5.16,5.16,0,0,0,.43.61l-.18-.23c.31.45.63.88,1,1.3l-.17-.22c.42.57.89,1.12,1.36,1.65s.83.92,1.27,1.36l.4.36c.18.16.37.33.57.48l-.19-.15c.16.14.32.29.49.42l.5.37.09.09a3.25,3.25,0,0,0,.42.31,2,2,0,0,0,.33.16,2.08,2.08,0,0,0,.32.12l0,0a.47.47,0,0,0,.17,0,1.43,1.43,0,0,0,.29,0c.44,1,.87,1.95,1.33,2.92.14.29.29.59.44.88-1.87-1.08-3.77-2.09-5.74-3s-2.61-1.15-3.81-2.83a11.48,11.48,0,0,0-5.29-4.18c-.46-.18-.93-.34-1.4-.49s-.9-.29-1.36-.41a10.59,10.59,0,0,0-1.67-.28,6.06,6.06,0,0,0-1.65.09,3.69,3.69,0,0,0-.65.18,4.07,4.07,0,0,0-.87.41l-.35.26-.12.12c-.09.11-.18.22-.26.34a2.24,2.24,0,0,0-.13.27c0,.09-.07.17-.1.27a3.32,3.32,0,0,0-.06.44,1.78,1.78,0,0,0,0,.46,3.63,3.63,0,0,0,.1.45,3.88,3.88,0,0,0,.23.56,3.94,3.94,0,0,0,.35.55,7.43,7.43,0,0,0,1,1.15c3.79,3.39,7.37,2.64,11.93,2.29,1.87-.14,4.1,1.21,5.9,2.12l-.43-.08a19.82,19.82,0,0,0-2.16-.24,16.32,16.32,0,0,0-1.85,0,15.31,15.31,0,0,0-2.12.33,11.6,11.6,0,0,0-1.73.55,12.13,12.13,0,0,0-1.9,1,6.82,6.82,0,0,0-1,.74,4.25,4.25,0,0,0-.46.57,2.65,2.65,0,0,0-.33.65,2.88,2.88,0,0,0-.15.72,2.48,2.48,0,0,0,.06.72.73.73,0,0,0,.06.21,2.72,2.72,0,0,0,.21.46,2.88,2.88,0,0,0,.3.39,2.79,2.79,0,0,0,.39.31,1.72,1.72,0,0,0,.37.22c.22.1.44.19.67.27a7.93,7.93,0,0,0,1,.23,10.76,10.76,0,0,0,6.85-1.17c1.58-.77,4.47-3.16,6.13-3.16h.69l.12,0h.07l.26.05c2.68,1.59,5.3,3.26,7.88,5-1-.64-4-1-5.29-1.21a13.87,13.87,0,0,0-6.18.73,11.91,11.91,0,0,0-1.42.49,7.5,7.5,0,0,0-.91.42,5.63,5.63,0,0,0-.81.57,3.17,3.17,0,0,0-.49.48,3.83,3.83,0,0,0-.53.78,4,4,0,0,0-.32.88,4.38,4.38,0,0,0-.08.62,1.71,1.71,0,0,0,0,.32,4.23,4.23,0,0,0,.11.62,2.63,2.63,0,0,0,.22.55,1.51,1.51,0,0,0,.15.28,5.32,5.32,0,0,0,.36.47,4.31,4.31,0,0,0,.7.58,4.15,4.15,0,0,0,.82.4,3,3,0,0,0,.72.2,6.46,6.46,0,0,0,1.07.1h.07l.27,0a5.68,5.68,0,0,0,1,0,13.22,13.22,0,0,0,2.43-.38c2.57-.66,3.7-2,5.14-4,1.1-1.59,2-2.77,4.09-2l.24.09h0l.06,0,.13.06a1.82,1.82,0,0,1,.23.15l.12.08,0,0h0l.21.18a.27.27,0,0,0,.22.08c2.15,1.52,4.25,3.1,6.27,4.78a5.69,5.69,0,0,0-.83-.08c-1.84-.07-2.91-1.55-5-1.3A24.44,24.44,0,0,0,50,437.8a7.36,7.36,0,0,0-1.09.63,6.1,6.1,0,0,0-1.12,1,5.08,5.08,0,0,0-.78,1.17,4.71,4.71,0,0,0-.44,1.31,5.83,5.83,0,0,0-.08.83,4.46,4.46,0,0,0,.09.81,3.24,3.24,0,0,0,.16.53,3.53,3.53,0,0,0,.38.75,3.05,3.05,0,0,0,.58.66,3.82,3.82,0,0,0,.47.35,3.7,3.7,0,0,0,.54.24,3.53,3.53,0,0,0,.91.2,3,3,0,0,0,.67,0,11.09,11.09,0,0,0,2.73-.65,13.5,13.5,0,0,0,2.48-1.2c2.22-1.36,4.63-3.88,5.28-6.37a1.41,1.41,0,0,0,.05-.35s0-.08,0-.12l.34,0a11.11,11.11,0,0,1,1.16.08h.06l.14,0,.28,0,.55.14.27.09h0l0,0a60.92,60.92,0,0,1,6.55,6.6c.29.34.57.68.87,1s.81-.1.57-.44a24,24,0,0,0-1.63-2c-.56-.64-1.13-1.26-1.72-1.87-.86-.89-1.74-1.75-2.65-2.58a20.27,20.27,0,0,1-.72-2.29c-.22-.87-.42-1.74-.63-2.61,0-.11,0-.23-.08-.34l.07-.05.18-.17a3.5,3.5,0,0,0,.33-.43,1.59,1.59,0,0,0,.13-.22,4.85,4.85,0,0,0,.29-.75,7.39,7.39,0,0,0,.14-.82,11.71,11.71,0,0,0,.06-1.19c0-.51,0-1,0-1.54,0-1,0-2-.09-3a17,17,0,0,0-.18-1.75,7.82,7.82,0,0,0-.33-1.37,7.24,7.24,0,0,0-.61-1.36,5.5,5.5,0,0,0-.34-.5,5,5,0,0,0-.56-.66,6.22,6.22,0,0,0-.68-.57,3.11,3.11,0,0,0-.53-.32,3.86,3.86,0,0,0-.88-.32,3.4,3.4,0,0,0-.63-.08,3.15,3.15,0,0,0-.61.06,2.41,2.41,0,0,0-.81.3,2.62,2.62,0,0,0-.34.24,2,2,0,0,0-.31.27,4,4,0,0,0-.37.45l-.15.23c-.05.08-.09.17-.13.25s-.15.36-.21.54a4.68,4.68,0,0,0-.17,1,4.33,4.33,0,0,0,0,.72c.12,3.32.39,6.23,2.63,8.93a26.41,26.41,0,0,0,2.66,2.33c.44.41.47,0,.91.59a8.28,8.28,0,0,1,.56,2c.17.55.35,1.09.54,1.64l-.13-.12a90.1,90.1,0,0,0-8-6.28L56,431c-.27-.45-.51-.91-.75-1.38l-.48-1,0-.12,0,0,0,0-.12-.28-.21-.54c0-.14-.11-.29-.16-.44.16.44,1.13-1.8,1.12-1.76.65-1.88.33-4.23.06-6.17a12.35,12.35,0,0,0-.58-2.4,11.18,11.18,0,0,0-1.14-2.33,11.61,11.61,0,0,0-.86-1.13,7.65,7.65,0,0,0-.81-.8c-.22-.18-.44-.36-.68-.53a3.27,3.27,0,0,0-.81-.42l-.3-.09a2.59,2.59,0,0,0-.56,0,2.63,2.63,0,0,0-.55.09l-.12,0-.38.17a2,2,0,0,0-.34.23,2.73,2.73,0,0,0-.31.27,4.7,4.7,0,0,0-.34.44,1.59,1.59,0,0,0-.13.22,3.38,3.38,0,0,0-.3.86,5.08,5.08,0,0,0-.08.95,12.26,12.26,0,0,0,.17,1.59,23.83,23.83,0,0,0,2.09,7.12c.76,1.51,2.36,3.81,4.23,3.8.32.82.65,1.64,1,2.43l.3.6c-2.22-1.51-4.48-2.95-6.77-4.36-.72-.45-1.44-.89-2.17-1.32l0-.06a2.29,2.29,0,0,0-.14-.27l-.3-.52c-.19-.35-.37-.71-.55-1.07a9,9,0,0,1-1-5.29c.09-3.69-2.25-9.17-6.22-10.06a4.81,4.81,0,0,0-.53-.07A1.31,1.31,0,0,0,36.87,407.25Zm7.86,17.56c-.37,0-.74,0-1.11,0,0-.08,0-.16,0-.23a.75.75,0,0,0,0-.16,2.44,2.44,0,0,0-.18-.41h0Z"/><path class="a" d="M72.24,263.31h.28a1.38,1.38,0,0,0,.27-.08,1.17,1.17,0,0,0,.34-.2,1.59,1.59,0,0,0,.29-.29,1.87,1.87,0,0,0,.24-.38,2.44,2.44,0,0,0,.1-.24,2.5,2.5,0,0,0,.12-.45c0-.06,0-.12,0-.17s0-.24,0-.36,0-.22,0-.33a7.39,7.39,0,0,0-.36-1.42,4.72,4.72,0,0,0-.16-.45l.07.17c-.12-.32-.25-.64-.38-.95l.07.16c-.17-.42-.36-.82-.56-1.22s-.35-.68-.54-1l-.18-.28a3.09,3.09,0,0,0-.26-.37l.09.11a3.46,3.46,0,0,0-.22-.31,3.4,3.4,0,0,0-.23-.3.43.43,0,0,1,0-.07,2.23,2.23,0,0,0-.19-.24.75.75,0,0,0-.17-.14.91.91,0,0,0-.16-.11h0a.17.17,0,0,0-.1,0l-.15-.05c-.13-.68-.26-1.37-.4-2,0-.21-.09-.42-.14-.63a34.52,34.52,0,0,0,2.8,2.5,4.16,4.16,0,0,1,1.77,2.23,6.7,6.7,0,0,0,2.42,3.26c.23.16.47.31.71.46s.46.27.7.39a4.71,4.71,0,0,0,.88.34,3.1,3.1,0,0,0,.91.1,2.2,2.2,0,0,0,.37-.06,2.31,2.31,0,0,0,.52-.19,1.07,1.07,0,0,0,.22-.15l.08-.06a1.62,1.62,0,0,0,.18-.2,1,1,0,0,0,.1-.17,1.4,1.4,0,0,0,.09-.17,2.46,2.46,0,0,0,.09-.29,1.53,1.53,0,0,0,0-.3,1.6,1.6,0,0,0,0-.31,2.63,2.63,0,0,0-.06-.39,2.67,2.67,0,0,0-.13-.4,4.84,4.84,0,0,0-.43-.85c-1.69-2.6-3.73-2.43-6.27-2.63-1-.07-2.1-1.18-3-1.95l.23.1a9.5,9.5,0,0,0,1.15.35,5.73,5.73,0,0,0,1,.15,6.87,6.87,0,0,0,1.2,0,5.85,5.85,0,0,0,1-.21,6.18,6.18,0,0,0,1.14-.46,4.93,4.93,0,0,0,.61-.4,3.31,3.31,0,0,0,.32-.33,2.5,2.5,0,0,0,.25-.41,1.79,1.79,0,0,0,.16-.46,2,2,0,0,0,0-.49.71.71,0,0,0,0-.14,1.8,1.8,0,0,0-.06-.32,1.48,1.48,0,0,0-.12-.29,2.15,2.15,0,0,0-.18-.24,1,1,0,0,0-.17-.18,2.62,2.62,0,0,0-.34-.24L77.6,249a5,5,0,0,0-3.88.14c-1,.36-2.8,1.67-3.71,1.52l-.25-.05-.12,0-.07,0h0l-.14-.06c-1.28-1.29-2.53-2.64-3.75-4a9.24,9.24,0,0,0,2.76,1.3,6.51,6.51,0,0,0,3.45.09,8.45,8.45,0,0,0,.84-.19c.18-.06.36-.12.54-.2a3.78,3.78,0,0,0,.51-.3,2.69,2.69,0,0,0,.32-.27,2.89,2.89,0,0,0,.38-.47,2.81,2.81,0,0,0,.27-.55,3,3,0,0,0,.12-.4l0-.22a3,3,0,0,0,0-.42,2.32,2.32,0,0,0,0-.38l-.06-.2a3.45,3.45,0,0,0-.14-.34,2.14,2.14,0,0,0-.32-.45,2.18,2.18,0,0,0-.4-.35,1.85,1.85,0,0,0-.37-.19,3,3,0,0,0-.58-.17h0l-.15,0a2.54,2.54,0,0,0-.55-.1,6.29,6.29,0,0,0-1.37,0c-1.48.2-2.24.95-3.26,2.19-.78.95-1.39,1.65-2.46.93l-.12-.08h0l0,0-.07-.05-.11-.12,0-.06,0,0h0a.71.71,0,0,1-.1-.14.14.14,0,0,0-.11-.07c-1-1.2-2-2.44-2.89-3.74a3.81,3.81,0,0,0,.45.13c1,.22,1.41,1.29,2.58,1.32a12.37,12.37,0,0,0,3.84-.92,4.45,4.45,0,0,0,.66-.32,3.45,3.45,0,0,0,.73-.54,4.3,4.3,0,0,0,.56-.7,3.91,3.91,0,0,0,.38-.83A3.58,3.58,0,0,0,71,239a3.39,3.39,0,0,0,0-.55,2.19,2.19,0,0,0,0-.36,2.93,2.93,0,0,0-.12-.53,2.13,2.13,0,0,0-.25-.5,2.47,2.47,0,0,0-.21-.27,2.78,2.78,0,0,0-.27-.21,1.71,1.71,0,0,0-.48-.21,1.1,1.1,0,0,0-.36-.07,5,5,0,0,0-1.57.18,7.66,7.66,0,0,0-1.49.55,8.09,8.09,0,0,0-3.6,3.73,1.12,1.12,0,0,0-.06.23.25.25,0,0,0,0,.08l-.19,0a3.64,3.64,0,0,1-.63-.16h0l-.07,0-.15-.06-.28-.14-.14-.08h0a38.46,38.46,0,0,1-2.84-5c-.12-.25-.23-.5-.36-.74s-.45,0-.36.24c.19.5.43,1,.66,1.46s.48.94.74,1.4c.36.66.75,1.32,1.15,2a13.84,13.84,0,0,1,.14,1.58c0,.6,0,1.2,0,1.79v.23l0,0a.52.52,0,0,0-.11.1,1.37,1.37,0,0,0-.23.25.64.64,0,0,0-.1.13,4.16,4.16,0,0,0-.24.47,4.68,4.68,0,0,0-.17.53c-.07.26-.12.52-.17.78s-.12.68-.17,1c-.11.67-.22,1.34-.3,2a11.52,11.52,0,0,0-.09,1.17,5.88,5.88,0,0,0,0,.94,6,6,0,0,0,.18,1c0,.12.08.24.13.36a4.37,4.37,0,0,0,.23.49,3.47,3.47,0,0,0,.31.44,3.07,3.07,0,0,0,.25.26,2.21,2.21,0,0,0,.45.3l.34.11a1.29,1.29,0,0,0,.34,0,1.13,1.13,0,0,0,.47-.12l.21-.13a1.37,1.37,0,0,0,.21-.15,3.07,3.07,0,0,0,.25-.26,1.71,1.71,0,0,0,.11-.14l.09-.16a2.68,2.68,0,0,0,.18-.33,4.65,4.65,0,0,0,.21-.63l.09-.48c.3-2.21.49-4.16-.44-6.15A15,15,0,0,0,61,243.45c-.2-.32-.26,0-.43-.48a6.4,6.4,0,0,1-.08-1.4c0-.38-.07-.76-.11-1.13l.06.08a51.48,51.48,0,0,0,3.68,4.91c.1.12.2.25.31.37.09.32.18.65.25,1s.1.49.15.74v.14l0,.19.06.38c0,.1,0,.2,0,.31,0-.31-.82,1.08-.81,1.06a11.21,11.21,0,0,0-.73,4.08,10,10,0,0,0,.05,1.64,8.12,8.12,0,0,0,.36,1.64,6.86,6.86,0,0,0,.34.83,5,5,0,0,0,.36.6,4.13,4.13,0,0,0,.31.42,2.22,2.22,0,0,0,.39.36l.16.08a.74.74,0,0,0,.3.08,1.07,1.07,0,0,0,.31,0l.07,0a1,1,0,0,0,.23-.08l.21-.12a1.3,1.3,0,0,0,.2-.15,2.73,2.73,0,0,0,.23-.25l.1-.14a2.69,2.69,0,0,0,.26-.54,4.66,4.66,0,0,0,.15-.62c0-.35.07-.71.09-1.07a18.67,18.67,0,0,0-.35-4.91c-.24-1.07-.86-2.74-1.89-2.9-.08-.58-.16-1.15-.28-1.71,0-.14-.06-.28-.1-.42q1.58,1.8,3.21,3.51c.34.36.69.72,1,1.07V251a1.06,1.06,0,0,0,0,.19c0,.12.07.25.1.37s.13.5.18.76a7.2,7.2,0,0,1,0,3.6c-.47,2.43.19,6.27,2.26,7.23l.29.1A.33.33,0,0,0,72.24,263.31ZM69.92,251l.6.09v.15a.49.49,0,0,0,0,.12,1.37,1.37,0,0,0,0,.28h0C70.36,251.4,70.14,251.18,69.92,251Z"/><path class="a" d="M99,444.89a1.28,1.28,0,0,0-.25-.15,1.49,1.49,0,0,0-.67-.08,2,2,0,0,0-.4.11,2.05,2.05,0,0,0-.39.2,1.07,1.07,0,0,0-.22.15,3.43,3.43,0,0,0-.33.33.71.71,0,0,0-.1.14,2.23,2.23,0,0,0-.2.3,1.59,1.59,0,0,0-.15.29,7.9,7.9,0,0,0-.43,1.41c0,.15-.06.31-.08.47l0-.19c-.06.34-.11.68-.16,1l0-.17c-.07.44-.11.89-.15,1.33s0,.77,0,1.15c0,.11,0,.22,0,.33a3.4,3.4,0,0,0,0,.45l0-.14c0,.12,0,.26,0,.38s0,.25,0,.37a.22.22,0,0,0,0,.08,1.63,1.63,0,0,0,0,.31,1.19,1.19,0,0,0,.08.2.71.71,0,0,0,.08.18v0l.06.08.11.12c-.24.65-.49,1.31-.71,2-.07.21-.14.41-.2.61a35.44,35.44,0,0,0-1.12-3.58,4.22,4.22,0,0,1-.37-2.83,6.65,6.65,0,0,0-.4-4c-.11-.26-.24-.51-.37-.76s-.26-.47-.4-.69a4.69,4.69,0,0,0-.58-.75A2.6,2.6,0,0,0,91,443a1.51,1.51,0,0,0-.35-.14,2,2,0,0,0-.55-.11h-.26l-.1,0a1.12,1.12,0,0,0-.26.08.91.91,0,0,0-.17.09l-.16.1-.23.2c-.07.08-.12.16-.18.24a1.91,1.91,0,0,0-.16.27c-.06.12-.1.24-.15.37a2.88,2.88,0,0,0-.09.4,5.23,5.23,0,0,0-.07,1c.11,3.09,1.95,4,4,5.47.85.6,1.2,2.09,1.56,3.21l-.15-.2a8.57,8.57,0,0,0-.8-.9,7,7,0,0,0-.79-.65,7.19,7.19,0,0,0-1-.6,5.3,5.3,0,0,0-1-.34,5.54,5.54,0,0,0-1.22-.19,3.6,3.6,0,0,0-.73,0,2.2,2.2,0,0,0-.44.12,1.94,1.94,0,0,0-.43.22,1.79,1.79,0,0,0-.37.31,1.58,1.58,0,0,0-.29.39.54.54,0,0,0-.07.13,1.54,1.54,0,0,0-.11.3,1.76,1.76,0,0,0,0,.31,1.42,1.42,0,0,0,0,.3,1,1,0,0,0,.06.25c0,.13.11.26.17.38a4.76,4.76,0,0,0,.31.47,5.08,5.08,0,0,0,3.4,1.87c1,.18,3.26,0,4,.6l.19.18.09.08,0,.06h0l.09.12c.44,1.77.81,3.57,1.14,5.38a9.41,9.41,0,0,0-1.69-2.53,6.59,6.59,0,0,0-2.92-1.85,8.45,8.45,0,0,0-.81-.26,5.78,5.78,0,0,0-.57-.12,3.87,3.87,0,0,0-.59,0,2,2,0,0,0-.42.07,2.38,2.38,0,0,0-.56.21,2.93,2.93,0,0,0-.53.33l-.3.29-.14.16a3.37,3.37,0,0,0-.22.35,2.87,2.87,0,0,0-.15.37,1.33,1.33,0,0,0,0,.19,2.38,2.38,0,0,0-.06.37,2.46,2.46,0,0,0,0,.55,2.11,2.11,0,0,0,.17.5,1.65,1.65,0,0,0,.22.36,2.43,2.43,0,0,0,.41.44l0,0,.1.12a2.54,2.54,0,0,0,.43.37,6,6,0,0,0,1.19.68c1.36.59,2.41.33,3.92-.21,1.16-.41,2-.7,2.59.47l.06.13v0l0,0a.19.19,0,0,0,0,.08l0,.16s0,.06,0,.08v0h0v.16a.17.17,0,0,0,.06.12c.25,1.55.44,3.12.56,4.7-.1-.12-.21-.23-.32-.34-.74-.7-.55-1.84-1.54-2.46a12,12,0,0,0-3.76-1.18,3.64,3.64,0,0,0-.74-.07,3.9,3.9,0,0,0-.89.09,3.69,3.69,0,0,0-.84.31,3.53,3.53,0,0,0-.76.52,2.87,2.87,0,0,0-.39.39,2.83,2.83,0,0,0-.32.45,3.24,3.24,0,0,0-.17.32,3.13,3.13,0,0,0-.16.52,2.05,2.05,0,0,0,0,.55c0,.12,0,.23,0,.34a3,3,0,0,0,.12.32,1.45,1.45,0,0,0,.3.43,1.12,1.12,0,0,0,.28.25,5.15,5.15,0,0,0,1.43.65,7.38,7.38,0,0,0,1.57.29,8,8,0,0,0,5-1.35.93.93,0,0,0,.18-.16l0-.07.14.12a4,4,0,0,1,.46.46l0,0h0l0,.06a1.47,1.47,0,0,0,.1.13l.17.27a.61.61,0,0,0,.07.14h0a38.1,38.1,0,0,1-.13,5.74c0,.27,0,.55-.07.82s.39.24.43,0c.1-.53.14-1.07.19-1.6s.07-1.05.09-1.57c0-.76,0-1.52,0-2.27a15.65,15.65,0,0,1,.69-1.43l.88-1.56.11-.2h.06l.15,0,.32-.1.15-.07a4.12,4.12,0,0,0,.45-.27c.15-.12.28-.25.42-.37s.37-.39.54-.59l.68-.78c.44-.52.87-1,1.28-1.57.25-.31.47-.63.69-1a6.6,6.6,0,0,0,.46-.82,5.28,5.28,0,0,0,.34-.91c0-.13,0-.25.07-.37a5.43,5.43,0,0,0,.06-.55,4.73,4.73,0,0,0,0-.53,2,2,0,0,0-.09-.35,1.47,1.47,0,0,0-.23-.49,1.53,1.53,0,0,0-.51-.46,1.49,1.49,0,0,0-.47-.13h-.25a1.06,1.06,0,0,0-.25,0,2.3,2.3,0,0,0-.35.1l-.17.06-.16.08-.32.2a3.5,3.5,0,0,0-.5.44,2.74,2.74,0,0,0-.32.36c-1.41,1.74-2.56,3.32-2.8,5.5a15.18,15.18,0,0,0,.11,2.15c0,.37.2.16.12.63a7,7,0,0,1-.65,1.24c-.17.34-.33.69-.49,1v-.1a51,51,0,0,0-.63-6.1c0-.16,0-.32-.08-.48.09-.33.18-.65.29-1l.25-.7,0-.07v0l0,0a1.46,1.46,0,0,1,.07-.19c0-.11.1-.23.14-.34s.09-.2.13-.29c-.13.28,1.26-.51,1.24-.5a11,11,0,0,0,2.72-3.12,9.62,9.62,0,0,0,.8-1.43,8.61,8.61,0,0,0,.54-1.6,6.67,6.67,0,0,0,.13-.88,5.48,5.48,0,0,0,0-.7,4.35,4.35,0,0,0-.06-.52,1.86,1.86,0,0,0-.15-.51.46.46,0,0,0-.09-.15,1.15,1.15,0,0,0-.21-.23,1.22,1.22,0,0,0-.27-.15l-.08,0-.23-.06h-.24a2.13,2.13,0,0,0-.25,0,2.07,2.07,0,0,0-.33.1l-.16.06a3.16,3.16,0,0,0-.5.34,3.82,3.82,0,0,0-.45.45c-.22.27-.42.57-.62.87a18.72,18.72,0,0,0-2.23,4.39c-.34,1-.66,2.79.13,3.46-.23.53-.45,1.07-.63,1.61,0,.14-.1.27-.14.41-.27-1.57-.6-3.12-.94-4.66-.11-.49-.22-1-.34-1.46v0a.64.64,0,0,0,.06-.18l.11-.38c.07-.24.15-.49.23-.74a7.23,7.23,0,0,1,1.88-3.07c1.64-1.85,3-5.48,1.77-7.37l-.19-.23Zm-4.36,11.78-.48-.39.08-.13a.31.31,0,0,0,.05-.1,1.25,1.25,0,0,0,.1-.27h0Z"/></svg>