<svg width="164" height="210" viewBox="0 0 164 210" fill="none" xmlns="http://www.w3.org/2000/svg">
<path d="M142.17 131.273C119.515 131.451 109.033 190.661 109.033 190.661L108.766 190.426C103.25 178.849 98.8123 166.787 95.5081 154.392C99.2179 150.662 119.314 130.308 123.53 122.483C128.389 113.981 125.285 94.8968 113.993 95.3709C102.7 95.845 93.384 144.658 93.384 144.658L92.6759 143.783C89.8709 132.817 87.4581 121.601 85.4048 110.998C90.2422 103.983 101.459 87.1178 103.398 79.4219C105.882 69.5397 104.826 60.2003 96.6659 61.3613C90.4506 62.2456 84.4361 82.3151 81.8919 91.7762C80.3997 82.9284 79.256 75.1635 78.4064 69.1923C81.7238 58.6777 84.0942 47.8846 85.4889 36.9427C85.8379 26.2709 83.5614 10.2709 76.2403 9.399C68.9192 8.52707 62.5945 18.7604 62.387 35.8949C62.2504 48.8796 70.8076 63.6345 75.0236 70.025C75.8623 75.9197 76.9297 83.4221 78.422 91.9966C73.035 81.7503 59.9568 58.188 48.267 56.1412C41.5668 54.9857 35.6127 62.9013 40.346 75.1151C45.0793 87.3289 76.7982 107.927 76.7982 107.927L82.1854 113.252C83.7594 121.307 85.5731 129.68 87.5774 138.025C79.2978 129.05 63.4957 113.412 48.2108 107.425C37.8884 103.231 15.4124 117.793 32.0806 134.049C46.2322 147.657 81.5141 153.376 91.9402 154.744C94.7882 165.195 98.3385 175.441 102.567 185.411C89.412 174.981 58.7117 153.34 41.0079 159.335C17.8893 167.193 16.5975 190.926 38.8713 197.637C61.145 204.348 110.095 198.125 110.095 198.125C110.095 198.125 137.855 180.507 147.682 170.01C157.509 159.513 164.864 131.091 142.17 131.273Z" fill="white" fill-opacity="0.35"/>
<path d="M43.955 132.663C43.955 132.663 50.2401 133.421 65.0748 145.496C73.7286 152.242 78.868 161.583 79.3781 171.492C79.3781 171.492 84.4154 142.856 102.832 132.663C108.715 146.718 108.715 162.039 102.832 176.093C114.576 163.33 131.567 154.711 150.479 151.922C150.479 151.922 148.168 176.637 124.414 191.663C100.66 206.69 63.4211 199.596 55.0926 191.663C46.764 183.731 41.2942 173.97 39.322 163.523C37.3498 153.075 38.9567 142.372 43.955 132.663Z" fill="#FF7EAF"/>
</svg>
