<svg width="405" height="415" viewBox="0 0 405 415" fill="none" xmlns="http://www.w3.org/2000/svg">
<path d="M264.39 273.532C217.15 273.902 195.291 397.368 195.291 397.368L194.735 396.877C183.234 372.737 173.98 347.585 167.09 321.74C174.826 313.962 216.729 271.519 225.522 255.203C235.654 237.475 229.181 197.68 205.634 198.668C182.088 199.657 162.661 301.442 162.661 301.442L161.184 299.617C155.335 276.752 150.304 253.364 146.023 231.254C156.11 216.627 179.498 181.459 183.543 165.412C188.723 144.805 186.52 125.331 169.505 127.752C156.544 129.596 144.003 171.444 138.698 191.173C135.586 172.723 133.201 156.532 131.43 144.081C138.347 122.156 143.29 99.6499 146.198 76.8339C146.926 54.5809 142.179 21.2178 126.913 19.3996C111.647 17.5815 98.4588 38.9201 98.026 74.6489C97.7411 101.725 115.585 132.492 124.376 145.817C126.125 158.109 128.351 173.753 131.462 191.632C120.229 170.267 92.9585 121.135 68.5829 116.867C54.6118 114.457 42.1962 130.963 52.0661 156.431C61.936 181.899 128.076 224.85 128.076 224.85L139.31 235.955C142.592 252.751 146.374 270.21 150.553 287.611C133.288 268.896 100.338 236.288 68.4659 223.803C46.9414 215.058 0.0744592 245.423 34.831 279.321C64.34 307.695 137.91 319.622 159.65 322.473C165.589 344.265 172.992 365.63 181.809 386.42C154.379 364.672 90.3624 319.546 53.4462 332.046C5.23936 348.432 2.54576 397.919 48.991 411.913C95.4363 425.907 197.506 412.932 197.506 412.932C197.506 412.932 255.391 376.195 275.883 354.306C296.375 332.417 311.711 273.151 264.39 273.532Z" fill="#69A2AD"/>
<path d="M162.364 289.27C195.873 297 194.354 383.517 194.354 383.517L194.818 383.275C206.321 368.857 216.367 353.403 224.83 337.108C220.409 330.651 196.501 295.464 192.507 283.096C187.757 269.566 197.85 243.821 214.441 248.215C231.032 252.609 230.779 324.156 230.779 324.156L232.08 323.161C239.392 308.707 246.196 293.771 252.29 279.575C247.144 268.139 235.384 240.778 234.726 229.342C233.891 214.66 238.145 201.909 249.899 206.232C258.851 209.525 261.982 239.662 263.027 253.773C267.785 241.855 271.715 231.341 274.692 223.246C272.805 207.402 272.401 191.48 273.485 175.671C276.041 160.586 284.019 138.895 295.115 140.09C306.212 141.284 312.634 157.727 308.009 181.83C304.473 200.089 287.549 217.959 279.464 225.531C276.524 233.523 272.783 243.694 268.104 255.228C279.034 242.635 305.191 213.903 323.096 214.892C333.354 215.484 339.895 228.553 329.367 244.122C318.839 259.692 265.923 278.11 265.923 278.11L256.41 283.801C251.759 294.58 246.662 305.725 241.29 316.769C256.139 306.913 284.049 290.197 308.415 286.846C324.913 284.372 354.015 312.22 324.644 329.519C299.763 343.933 245.853 340.305 230.015 338.78C222.787 352.499 214.578 365.698 205.444 378.287C227.933 368.001 279.641 347.784 304.14 362.038C336.124 380.696 331.205 414.411 296.278 416.47C261.351 418.528 190.632 393.636 190.632 393.636C190.632 393.636 154.583 359.756 143.048 341.786C131.513 323.817 128.8 281.52 162.364 289.27Z" fill="#8AC5CD"/>
</svg>
