<svg width="188" height="390" viewBox="0 0 188 390" fill="none" xmlns="http://www.w3.org/2000/svg">
<path d="M184.138 291.197C161.718 300.186 174.202 362.847 174.202 362.847L173.846 362.718C163.896 353.41 154.828 343.202 146.757 332.225C148.997 327.091 161.076 299.134 162.237 289.752C163.773 279.449 153.314 261.775 142.289 266.637C131.263 271.5 140.885 323.42 140.885 323.42L139.844 322.829C132.821 313.072 126.09 302.913 119.953 293.221C122.043 284.399 126.657 263.348 125.607 254.979C124.253 244.235 119.594 235.406 111.943 239.729C106.115 243.022 107.903 265.219 109.035 275.57C104.133 267.396 99.9965 260.159 96.8448 254.581C96.0732 242.888 94.2538 231.287 91.4083 219.918C87.6293 209.224 79.1845 194.279 71.5802 196.265C63.976 198.25 61.6539 210.836 68.0716 227.869C72.9556 240.77 87.1536 252.039 93.8089 256.721C96.9202 262.227 100.88 269.235 105.676 277.138C96.3676 269.096 74.2773 250.872 61.8824 253.395C54.785 254.858 51.9347 265.006 61.3546 275.249C70.7746 285.492 110.222 293.531 110.222 293.531L117.628 296.704C122.305 304.061 127.342 311.64 132.557 319.117C120.869 313.458 99.1383 304.134 81.6516 304.156C69.7839 304.023 53.1029 327.175 75.9325 336.774C95.2401 344.732 132.473 336.664 143.351 333.961C150.218 343.193 157.703 351.949 165.754 360.168C148.664 354.967 109.825 345.5 94.5687 358.319C74.6584 375.088 82.5504 399.071 107.254 397.046C131.958 395.02 178.141 369.819 178.141 369.819C178.141 369.819 198.886 341.588 204.583 327.378C210.28 313.169 206.593 282.187 184.138 291.197Z" fill="#5D6DA8"/>
<g clip-path="url(#clip0_217_255)">
<path d="M134.52 24.1408C136.245 23.6123 138.074 23.5177 139.844 23.8655C141.615 24.2133 143.27 24.9926 144.663 26.1334C146.174 27.3985 147.328 29.6679 146.174 31.2572C145.809 31.6662 145.363 31.9954 144.863 32.2241C144.363 32.4527 143.821 32.5758 143.271 32.5856C141.777 32.7106 140.275 32.4973 138.876 31.9618C137.478 31.4263 136.22 30.5825 135.196 29.4939C136.406 31.009 137.201 32.8096 137.503 34.7206C137.653 35.4308 137.609 36.1678 137.376 36.8555C137.043 37.5052 136.487 38.0152 135.809 38.2935C135.13 38.5719 134.374 38.6003 133.677 38.3737C132.99 38.1168 132.367 37.7143 131.852 37.194C131.336 36.6738 130.941 36.0483 130.694 35.361C130.218 33.9819 129.95 32.5404 129.898 31.0833C129.135 32.5145 127.162 32.7359 125.571 32.4749C124.192 32.3342 122.893 31.761 121.864 30.8381C121.365 30.3667 121.026 29.7523 120.895 29.0805C120.764 28.4087 120.846 27.7129 121.132 27.0901C122.031 25.4534 124.314 25.2952 126.183 25.6115C124.139 24.552 122.118 23.1603 121.124 21.0886C120.13 19.0169 120.527 16.1387 122.508 14.9606C123.237 14.5661 124.065 14.3919 124.892 14.4593C125.719 14.5268 126.508 14.8329 127.162 15.3401C127.798 15.8587 128.314 16.5082 128.674 17.2439C129.034 17.9797 129.229 18.7842 129.246 19.6021C129.19 16.7001 130.837 13.4187 133.693 12.9838C136.223 12.5963 138.689 14.7787 139.055 17.2932C139.173 18.5614 138.953 19.8382 138.419 20.9956C137.884 22.153 137.053 23.1503 136.008 23.8878L134.52 24.1408Z" fill="#C1DEE2"/>
<path d="M133.327 29.8572C133.364 29.8912 133.409 29.9144 133.458 29.9241C133.508 29.9339 133.559 29.9299 133.606 29.9126H133.669C133.821 29.8917 133.958 29.8121 134.051 29.6912C134.085 29.6364 134.103 29.5735 134.103 29.5093C134.103 29.4451 134.085 29.3822 134.051 29.3274C134.058 29.217 134.034 29.1069 133.984 29.0083C133.934 28.9096 133.858 28.826 133.765 28.766C133.664 28.6787 133.536 28.6306 133.403 28.6306C133.269 28.6306 133.141 28.6787 133.041 28.766C132.967 28.8512 132.913 28.951 132.882 29.0586C132.852 29.0972 132.828 29.1398 132.81 29.1851C132.521 28.9869 132.292 28.7133 132.15 28.3944C131.957 27.9621 131.937 27.4729 132.094 27.0265C132.205 26.726 131.736 26.5362 131.625 26.8367C131.471 27.2761 131.447 27.7501 131.555 28.2028C131.664 28.6554 131.9 29.0676 132.237 29.3907C132.46 29.5963 132.866 29.8889 133.192 29.8098L133.327 29.8572Z" fill="#C1DEE2"/>
<path d="M134.934 27.6751C135.035 27.6219 135.129 27.5554 135.213 27.4774C135.327 27.4821 135.441 27.4559 135.542 27.4016C135.642 27.3473 135.727 27.267 135.785 27.1691C135.875 27.0141 135.903 26.8312 135.863 26.6569C135.823 26.4825 135.719 26.3295 135.57 26.2281C135.519 26.151 135.452 26.0852 135.374 26.0348C135.296 25.9845 135.209 25.9507 135.117 25.9355C135.008 25.9472 134.903 25.984 134.81 26.043C134.718 26.102 134.64 26.1816 134.584 26.2756C134.475 26.4258 134.422 26.6095 134.435 26.7945C134.448 26.9795 134.526 27.1541 134.656 27.2877C134.459 27.3532 134.25 27.3748 134.043 27.3509C133.519 27.266 133.049 26.9826 132.731 26.5602C132.54 26.2993 132.142 26.6077 132.333 26.8686C132.614 27.2724 133.022 27.5712 133.494 27.7174C133.965 27.8636 134.472 27.8487 134.934 27.6751ZM135.117 26.4416H135.038H135.117Z" fill="#C1DEE2"/>
<path d="M128.538 27.4222C128.654 27.5395 128.793 27.6323 128.946 27.6948C129.099 27.7573 129.263 27.7883 129.429 27.786C129.722 27.7689 130 27.6517 130.216 27.4543C130.432 27.2569 130.573 26.9914 130.614 26.7027H130.71C130.828 26.7272 130.951 26.7222 131.067 26.6881C131.183 26.654 131.288 26.5918 131.374 26.5073C131.46 26.4227 131.523 26.3183 131.559 26.2033C131.594 26.0884 131.6 25.9666 131.577 25.8487C131.672 25.8846 131.776 25.8846 131.871 25.8487C131.914 25.8302 131.95 25.7998 131.975 25.7612C132.001 25.7226 132.014 25.6774 132.014 25.6313C132.014 25.5851 132.001 25.5399 131.975 25.5013C131.95 25.4627 131.914 25.4323 131.871 25.4138C131.871 25.4138 131.871 25.4138 131.871 25.3664C131.9 25.2863 131.937 25.2094 131.982 25.1371C132.095 24.9789 132.245 24.8511 132.42 24.7654C132.586 24.6859 132.769 24.6479 132.953 24.6547H133.033C133.019 24.8014 133.04 24.9492 133.094 25.0865C133.148 25.2237 133.233 25.3466 133.343 25.4454C133.427 25.5215 133.527 25.5787 133.636 25.6132C133.744 25.6476 133.859 25.6584 133.972 25.6449C134.085 25.6314 134.194 25.5939 134.291 25.5349C134.389 25.476 134.472 25.3969 134.536 25.3031C134.581 25.1991 134.598 25.0852 134.585 24.9727C134.572 24.8601 134.53 24.753 134.462 24.6618C134.395 24.5706 134.304 24.4986 134.2 24.453C134.096 24.4074 133.981 24.3897 133.868 24.4017H133.796L133.661 24.3622C133.485 24.2557 133.286 24.1908 133.08 24.1724C132.726 24.1407 132.372 24.2279 132.073 24.4199C131.775 24.6119 131.549 24.8978 131.434 25.2319C131.376 25.2896 131.34 25.3648 131.33 25.4454C131.262 25.3906 131.181 25.3538 131.095 25.3386C131.009 25.3234 130.92 25.3302 130.837 25.3585C130.721 25.3926 130.618 25.4617 130.543 25.5561H130.495C130.375 25.6451 130.289 25.7713 130.25 25.9147C130.211 26.058 130.222 26.2101 130.28 26.3468C130.236 26.3586 130.197 26.3842 130.168 26.4197C130.139 26.4553 130.123 26.499 130.121 26.5445C130.104 26.7249 130.025 26.894 129.898 27.0236C129.77 27.1531 129.602 27.2352 129.421 27.2562C129.291 27.258 129.162 27.2253 129.049 27.1614C128.936 27.0974 128.842 27.0046 128.777 26.8924C128.783 26.7512 128.757 26.6103 128.699 26.4812C128.641 26.3521 128.553 26.2383 128.442 26.1492C128.404 26.1262 128.36 26.114 128.315 26.114C128.27 26.114 128.226 26.1262 128.188 26.1492C128.095 26.2035 128.013 26.2761 127.949 26.3627C127.886 26.37 127.825 26.386 127.766 26.4101C127.673 26.4448 127.59 26.5022 127.525 26.577C127.46 26.6518 127.414 26.7416 127.393 26.8383C127.371 26.935 127.375 27.0355 127.402 27.1306C127.43 27.2257 127.481 27.3123 127.552 27.3827C127.682 27.5088 127.855 27.5826 128.037 27.5899C128.219 27.5972 128.397 27.5375 128.538 27.4222ZM127.894 26.9399L127.965 26.9952V27.0585C127.878 27.019 127.878 26.9715 127.894 26.9399Z" fill="#C1DEE2"/>
<path d="M130.392 25.1445L130.63 24.7729C130.653 24.7357 130.666 24.6935 130.669 24.6501C130.671 24.6066 130.663 24.5632 130.645 24.5236C130.627 24.4839 130.6 24.4492 130.566 24.4224C130.531 24.3956 130.491 24.3775 130.447 24.3696C130.437 24.2027 130.39 24.04 130.311 23.8926C130.231 23.7452 130.12 23.6166 129.986 23.5157C129.821 23.3894 129.618 23.3209 129.409 23.3209C129.201 23.3209 128.998 23.3894 128.833 23.5157C128.785 23.3849 128.691 23.2766 128.567 23.2121C128.443 23.1477 128.299 23.1318 128.164 23.1678C128.1 23.181 128.042 23.2173 128.003 23.2697C127.963 23.3221 127.944 23.3871 127.95 23.4524C127.967 23.6624 128.06 23.8591 128.212 24.0059C128.236 24.0534 128.274 24.0924 128.321 24.1179C128.368 24.1433 128.421 24.1539 128.475 24.1482C128.532 24.1448 128.588 24.1271 128.636 24.0967C128.685 24.0663 128.725 24.0242 128.753 23.9743C128.777 23.9987 128.805 24.0181 128.837 24.0313C128.868 24.0446 128.902 24.0514 128.936 24.0514C128.97 24.0514 129.004 24.0446 129.035 24.0313C129.067 24.0181 129.095 23.9987 129.119 23.9743C129.164 23.9326 129.217 23.9006 129.275 23.8803C129.333 23.86 129.394 23.8518 129.456 23.8563C129.517 23.8607 129.577 23.8777 129.631 23.9062C129.685 23.9347 129.733 23.974 129.771 24.0217C129.867 24.1627 129.932 24.3223 129.961 24.4901C129.989 24.6578 129.982 24.8297 129.938 24.9943C129.907 25.192 130.257 25.358 130.392 25.1445Z" fill="#C1DEE2"/>
<path d="M131.211 23.8715C131.156 23.7269 131.14 23.5702 131.165 23.4175C131.19 23.2647 131.255 23.1213 131.354 23.0018C131.505 22.8752 131.831 22.8436 131.943 23.0492C131.974 23.1069 132.025 23.1511 132.087 23.1731C132.149 23.195 132.216 23.1932 132.277 23.1678H132.325C132.401 23.2067 132.488 23.22 132.573 23.2058C132.657 23.1915 132.735 23.1505 132.794 23.0887C132.867 22.9774 132.897 22.8431 132.876 22.7116C132.855 22.5802 132.787 22.461 132.683 22.3771V22.3138C132.666 22.2713 132.641 22.2325 132.609 22.1998C132.577 22.167 132.539 22.141 132.496 22.1233C132.454 22.1056 132.409 22.0966 132.363 22.0967C132.317 22.0968 132.271 22.1061 132.229 22.1241C132.169 22.1562 132.118 22.2013 132.078 22.2561C132.038 22.3108 132.011 22.3738 131.999 22.4403C131.87 22.391 131.732 22.3703 131.595 22.3799C131.457 22.3894 131.323 22.429 131.203 22.4957C130.981 22.6509 130.816 22.8737 130.733 23.1305C130.649 23.3874 130.652 23.6641 130.742 23.919C130.797 24.2511 131.298 24.1799 131.211 23.8715Z" fill="#C1DEE2"/>
<path d="M130.925 29.6755C130.976 29.6311 131.016 29.5763 131.044 29.5149C131.071 29.4535 131.085 29.3869 131.084 29.3197C131.099 29.2654 131.099 29.208 131.084 29.1537C131.107 29.1301 131.124 29.1018 131.135 29.0708C131.145 29.0398 131.149 29.0068 131.145 28.9743C131.141 28.9418 131.13 28.9105 131.113 28.8827C131.095 28.855 131.072 28.8314 131.044 28.8137C130.956 28.7396 130.888 28.6446 130.847 28.5374C130.806 28.4302 130.792 28.3144 130.808 28.2008C130.824 28.0871 130.869 27.9793 130.938 27.8874C131.007 27.7955 131.098 27.7224 131.203 27.675C131.513 27.5643 131.307 27.0978 131.004 27.2164C130.728 27.3429 130.51 27.5698 130.396 27.8506C130.282 28.1314 130.281 28.4448 130.392 28.7267L130.273 28.7741H130.225C130.212 28.7714 130.198 28.7714 130.185 28.7741L130.129 28.8295C129.74 29.3751 130.463 30.0472 130.925 29.6755Z" fill="#C1DEE2"/>
<path d="M128.22 25.4136L129.35 25.9908C129.636 26.141 129.827 25.6745 129.541 25.5243L128.411 24.9471C128.364 24.932 128.314 24.932 128.268 24.9471C128.285 24.848 128.275 24.7463 128.24 24.652C128.205 24.5577 128.146 24.4741 128.069 24.4094H128.021C127.896 24.3269 127.744 24.2948 127.597 24.3198C127.449 24.3448 127.316 24.4249 127.226 24.5438C127.142 24.6505 127.091 24.7791 127.08 24.9139C127.069 25.0487 127.097 25.1839 127.162 25.3029C127.217 25.3663 127.284 25.4172 127.36 25.4522C127.437 25.4871 127.52 25.5051 127.604 25.5051C127.687 25.5051 127.77 25.4871 127.847 25.4522C127.923 25.4172 127.991 25.3663 128.045 25.3029C128.068 25.2857 128.087 25.2642 128.101 25.2396C128.107 25.2753 128.121 25.3092 128.142 25.3391C128.162 25.3691 128.189 25.3944 128.22 25.4136Z" fill="#C1DEE2"/>
<path d="M141.012 316.95C140.096 316.064 139.417 314.966 139.035 313.754C138.653 312.542 138.581 311.255 138.824 310.008C139.103 308.656 140.129 307.169 141.513 307.351C141.892 307.437 142.249 307.6 142.56 307.832C142.871 308.064 143.13 308.358 143.319 308.695C143.902 309.575 144.277 310.576 144.415 311.621C144.553 312.666 144.45 313.729 144.114 314.728C144.654 313.477 145.512 312.387 146.604 311.566C146.996 311.232 147.472 311.011 147.98 310.925C148.498 310.909 149.004 311.078 149.407 311.402C149.81 311.725 150.083 312.182 150.176 312.688C150.25 313.2 150.21 313.722 150.059 314.216C149.908 314.711 149.649 315.167 149.301 315.551C148.605 316.309 147.801 316.962 146.914 317.488C148.068 317.488 148.871 318.611 149.253 319.686C149.626 320.583 149.704 321.574 149.476 322.517C149.336 322.974 149.061 323.379 148.687 323.678C148.312 323.977 147.855 324.157 147.376 324.193C146.047 324.193 145.172 322.825 144.743 321.576C144.883 323.205 144.493 324.835 143.629 326.225C142.666 327.538 140.741 328.266 139.333 327.435C138.847 327.12 138.464 326.671 138.231 326.143C137.998 325.615 137.925 325.031 138.021 324.462C138.125 323.893 138.354 323.354 138.691 322.883C139.027 322.412 139.464 322.02 139.97 321.734C138.18 322.746 135.578 322.857 134.337 321.228C133.857 320.473 133.681 319.565 133.843 318.686C134.005 317.807 134.494 317.021 135.213 316.484C135.965 315.985 136.837 315.69 137.739 315.629C138.642 315.568 139.546 315.743 140.359 316.136L141.012 316.95Z" fill="#C1DEE2"/>
<path d="M144.981 315.756C144.992 315.723 144.993 315.687 144.983 315.653C144.973 315.619 144.953 315.589 144.925 315.566C144.862 315.482 144.768 315.426 144.663 315.408C144.617 315.404 144.571 315.413 144.53 315.434C144.489 315.455 144.455 315.487 144.432 315.527C144.36 315.558 144.298 315.608 144.253 315.673C144.208 315.737 144.182 315.812 144.178 315.891C144.161 315.982 144.179 316.077 144.227 316.157C144.276 316.237 144.351 316.297 144.44 316.326C144.518 316.345 144.6 316.345 144.679 316.326C144.712 316.337 144.749 316.337 144.782 316.326C144.774 316.406 144.758 316.485 144.734 316.563C144.685 316.723 144.607 316.873 144.504 317.006C144.308 317.261 144.025 317.438 143.708 317.504C143.478 317.504 143.517 317.891 143.708 317.852C144.034 317.797 144.337 317.651 144.582 317.432C144.828 317.212 145.005 316.927 145.092 316.61C145.138 316.492 145.156 316.365 145.145 316.239C145.133 316.113 145.094 315.991 145.029 315.883C145.02 315.838 145.004 315.795 144.981 315.756Z" fill="#C1DEE2"/>
<path d="M143.072 315.496C143.006 315.451 142.934 315.416 142.857 315.393C142.823 315.32 142.769 315.258 142.702 315.214C142.634 315.169 142.556 315.144 142.475 315.14C142.348 315.137 142.224 315.182 142.129 315.265C142.033 315.349 141.972 315.465 141.958 315.59C141.933 315.651 141.92 315.715 141.92 315.78C141.92 315.845 141.933 315.91 141.958 315.97C142.014 316.104 142.213 316.168 142.348 316.184C142.478 316.199 142.608 316.17 142.719 316.101C142.829 316.032 142.912 315.927 142.953 315.804C143.064 315.9 143.149 316.022 143.199 316.16C143.322 316.515 143.299 316.904 143.136 317.243C143.04 317.449 143.366 317.583 143.462 317.378C143.614 317.065 143.658 316.711 143.587 316.371C143.517 316.031 143.336 315.723 143.072 315.496ZM142.277 315.82L142.324 315.859L142.277 315.82Z" fill="#C1DEE2"/>
<path d="M145.085 319.528C145.119 319.417 145.13 319.299 145.116 319.184C145.103 319.068 145.065 318.956 145.005 318.856C144.897 318.681 144.73 318.548 144.534 318.482C144.338 318.416 144.125 318.419 143.931 318.492V318.429C143.904 318.353 143.86 318.285 143.802 318.229C143.744 318.173 143.674 318.131 143.597 318.107C143.52 318.082 143.438 318.076 143.358 318.088C143.278 318.1 143.202 318.13 143.136 318.176C143.129 318.107 143.098 318.043 143.048 317.994C143.023 317.973 142.992 317.96 142.959 317.956C142.926 317.951 142.892 317.957 142.862 317.971C142.832 317.985 142.807 318.007 142.789 318.035C142.771 318.063 142.762 318.095 142.762 318.128C142.704 318.136 142.645 318.136 142.587 318.128C142.449 318.118 142.316 318.069 142.205 317.986C142.097 317.911 142.01 317.81 141.951 317.694C141.947 317.678 141.947 317.662 141.951 317.646C142.046 317.603 142.13 317.539 142.197 317.46C142.265 317.381 142.313 317.288 142.34 317.187C142.358 317.111 142.358 317.031 142.341 316.954C142.324 316.877 142.29 316.805 142.241 316.743C142.192 316.681 142.13 316.63 142.059 316.595C141.988 316.56 141.91 316.541 141.831 316.539C141.752 316.545 141.675 316.571 141.609 316.616C141.543 316.66 141.49 316.721 141.455 316.793C141.421 316.864 141.405 316.943 141.411 317.022C141.417 317.101 141.444 317.177 141.489 317.243C141.485 317.277 141.485 317.311 141.489 317.346C141.482 317.49 141.51 317.633 141.569 317.765C141.668 317.994 141.843 318.183 142.063 318.302C142.284 318.421 142.538 318.463 142.786 318.421C142.812 318.433 142.841 318.438 142.869 318.438C142.898 318.438 142.927 318.433 142.953 318.421C142.944 318.482 142.949 318.545 142.969 318.604C142.988 318.663 143.021 318.717 143.064 318.761C143.128 318.816 143.204 318.854 143.287 318.872C143.379 318.915 143.484 318.926 143.584 318.903C143.683 318.88 143.772 318.825 143.836 318.745C143.863 318.763 143.895 318.772 143.927 318.772C143.96 318.772 143.992 318.763 144.019 318.745C144.136 318.69 144.268 318.679 144.393 318.714C144.517 318.749 144.625 318.827 144.695 318.935C144.744 319.013 144.769 319.104 144.769 319.196C144.769 319.288 144.744 319.378 144.695 319.457C144.604 319.5 144.525 319.565 144.464 319.644C144.404 319.724 144.363 319.817 144.345 319.915C144.341 319.946 144.345 319.977 144.356 320.006C144.367 320.035 144.385 320.061 144.409 320.081C144.474 320.122 144.547 320.148 144.623 320.161C144.653 320.194 144.685 320.226 144.719 320.255C144.772 320.3 144.836 320.331 144.904 320.346C144.973 320.36 145.044 320.358 145.111 320.338C145.178 320.318 145.239 320.282 145.288 320.234C145.338 320.185 145.375 320.124 145.395 320.058C145.405 319.948 145.38 319.839 145.325 319.744C145.269 319.649 145.185 319.573 145.085 319.528ZM144.997 320.089C145.001 320.071 145.001 320.052 144.997 320.034H145.045C145.053 320.074 145.029 320.089 144.997 320.089Z" fill="#C1DEE2"/>
<path d="M143.072 319.156H142.762C142.732 319.155 142.701 319.161 142.673 319.174C142.646 319.187 142.621 319.206 142.603 319.23C142.584 319.254 142.571 319.282 142.566 319.312C142.56 319.342 142.562 319.373 142.571 319.402C142.469 319.462 142.381 319.544 142.315 319.643C142.249 319.742 142.206 319.854 142.189 319.971C142.169 320.115 142.196 320.263 142.266 320.391C142.336 320.519 142.446 320.621 142.579 320.683C142.511 320.754 142.474 320.849 142.474 320.947C142.474 321.046 142.511 321.14 142.579 321.212C142.593 321.231 142.61 321.247 142.629 321.259C142.649 321.272 142.671 321.28 142.694 321.283C142.717 321.287 142.74 321.286 142.763 321.281C142.786 321.275 142.807 321.266 142.826 321.252C142.951 321.172 143.042 321.047 143.08 320.904C143.102 320.872 143.113 320.835 143.113 320.797C143.113 320.759 143.102 320.722 143.08 320.69C143.057 320.657 143.026 320.63 142.99 320.611C142.954 320.592 142.914 320.581 142.873 320.58C142.879 320.556 142.88 320.532 142.876 320.508C142.872 320.484 142.863 320.462 142.849 320.442C142.836 320.422 142.818 320.404 142.798 320.392C142.777 320.379 142.754 320.37 142.73 320.366C142.689 320.352 142.652 320.33 142.62 320.301C142.587 320.272 142.562 320.237 142.544 320.198C142.526 320.158 142.516 320.116 142.516 320.073C142.515 320.03 142.523 319.987 142.539 319.947C142.594 319.84 142.672 319.746 142.767 319.671C142.861 319.596 142.971 319.542 143.088 319.512C143.129 319.502 143.165 319.478 143.19 319.444C143.215 319.411 143.228 319.37 143.226 319.328C143.224 319.286 143.208 319.246 143.18 319.215C143.152 319.184 143.114 319.163 143.072 319.156Z" fill="#C1DEE2"/>
<path d="M141.958 319.085C141.886 319.167 141.794 319.228 141.691 319.263C141.587 319.297 141.476 319.304 141.37 319.283C141.234 319.235 141.107 319.046 141.202 318.911C141.228 318.873 141.239 318.826 141.231 318.781C141.224 318.735 141.199 318.694 141.163 318.666V318.658C141.159 318.598 141.138 318.54 141.101 318.492C141.064 318.444 141.014 318.408 140.956 318.389C140.862 318.384 140.77 318.412 140.695 318.468C140.621 318.525 140.569 318.606 140.55 318.698V318.737C140.505 318.784 140.48 318.847 140.48 318.911C140.48 318.976 140.505 319.038 140.55 319.085C140.594 319.105 140.641 319.115 140.689 319.115C140.737 319.115 140.785 319.105 140.829 319.085C140.839 319.181 140.87 319.274 140.921 319.356C140.972 319.438 141.041 319.508 141.123 319.56C141.296 319.644 141.492 319.67 141.681 319.635C141.87 319.599 142.043 319.503 142.173 319.362C142.34 319.212 142.125 318.927 141.958 319.085Z" fill="#C1DEE2"/>
<path d="M145.682 317.298C145.638 317.277 145.591 317.266 145.542 317.266C145.494 317.266 145.446 317.277 145.403 317.298C145.365 317.3 145.329 317.313 145.3 317.338C145.277 317.332 145.253 317.331 145.229 317.336C145.206 317.34 145.183 317.349 145.164 317.362C145.144 317.376 145.128 317.393 145.116 317.414C145.103 317.434 145.096 317.457 145.093 317.48C145.082 317.567 145.048 317.649 144.993 317.717C144.939 317.785 144.867 317.837 144.785 317.867C144.703 317.898 144.614 317.905 144.528 317.888C144.442 317.871 144.362 317.832 144.297 317.773C144.122 317.631 143.908 317.907 144.083 318.057C144.256 318.184 144.472 318.241 144.686 318.216C144.9 318.191 145.097 318.087 145.236 317.923C145.253 317.946 145.275 317.964 145.3 317.978H145.347C145.43 317.987 145.513 317.97 145.586 317.93C145.658 317.89 145.717 317.828 145.753 317.754C145.789 317.68 145.802 317.597 145.789 317.515C145.777 317.434 145.739 317.358 145.682 317.298Z" fill="#C1DEE2"/>
<path d="M143.931 320.406C143.931 320.113 143.931 319.813 143.931 319.52C143.931 319.228 143.573 319.331 143.573 319.52V320.414C143.564 320.445 143.564 320.478 143.573 320.509C143.505 320.532 143.444 320.573 143.397 320.627C143.349 320.681 143.317 320.747 143.303 320.817V320.857C143.297 320.959 143.33 321.06 143.395 321.14C143.459 321.22 143.551 321.274 143.653 321.291C143.758 321.32 143.87 321.312 143.969 321.269C144.069 321.226 144.151 321.15 144.202 321.054C144.224 321 144.234 320.941 144.231 320.882C144.229 320.823 144.213 320.765 144.186 320.712C144.159 320.66 144.121 320.614 144.074 320.577C144.027 320.541 143.973 320.515 143.915 320.501H143.868C143.901 320.479 143.923 320.445 143.931 320.406Z" fill="#C1DEE2"/>
<path d="M178.679 337.2C171.519 336.718 167.255 331.318 166.516 323.845C173.508 323.632 181.543 329.246 182.322 336.37C182.361 336.455 182.376 336.548 182.366 336.641C182.356 336.733 182.322 336.822 182.268 336.897C182.213 336.972 182.139 337.032 182.054 337.07C181.968 337.108 181.874 337.123 181.781 337.113C180.753 337.244 179.713 337.273 178.679 337.2Z" fill="#C1DEE2"/>
<path d="M128.3 285.267C127.273 278.198 131.712 272.844 138.959 270.543C140.646 277.336 136.78 286.358 129.891 288.651C129.814 288.705 129.725 288.738 129.632 288.748C129.539 288.758 129.445 288.743 129.359 288.706C129.273 288.668 129.198 288.609 129.142 288.534C129.086 288.46 129.051 288.372 129.039 288.279C128.699 287.3 128.452 286.291 128.3 285.267Z" fill="#C1DEE2"/>
<path d="M157.224 231.261C163.055 238.962 161.305 248.158 154.233 255.559C147.797 248.609 146.461 235.412 153.119 228.288C153.204 228.169 153.314 228.07 153.442 227.999C153.57 227.928 153.713 227.886 153.859 227.876C154.058 227.923 154.238 228.028 154.376 228.177C155.419 229.115 156.373 230.148 157.224 231.261Z" fill="#C1DEE2"/>
<path d="M161.369 208.852C167.216 209.358 170.676 213.865 171.177 220.025C165.418 220.096 158.894 215.359 158.354 209.484C158.334 209.399 158.334 209.31 158.355 209.225C158.375 209.14 158.416 209.061 158.473 208.994C158.57 208.918 158.691 208.878 158.815 208.883C159.663 208.794 160.518 208.784 161.369 208.852Z" fill="#C1DEE2"/>
<path d="M149.842 7.11666C155.609 5.97803 160.183 9.34648 162.395 15.1187C156.89 16.7871 149.293 14.0433 147.129 8.55577C147.09 8.47712 147.069 8.39052 147.069 8.30274C147.069 8.21495 147.09 8.12835 147.129 8.04971C147.204 7.95308 147.307 7.88138 147.423 7.84412C148.206 7.53013 149.015 7.28666 149.842 7.11666Z" fill="#C1DEE2"/>
<path d="M171.886 9.83663C173.214 3.99325 179.252 2.16669 187 4.04069C186.396 10.0027 179.697 14.9051 172.307 13.1893C172.077 13.1553 171.864 13.047 171.703 12.8809C171.629 12.7596 171.596 12.6186 171.607 12.4776C171.597 11.5896 171.691 10.7034 171.886 9.83663Z" fill="#C1DEE2"/>
<path d="M158.465 365.216C156.715 365.5 153.756 367.082 152.38 367.153C151.687 367.153 145.586 365.026 146.302 364.377C150.47 360.574 154.702 360.669 158.234 361.064C152.745 359.008 146.938 356.549 145.936 349.52C145.865 349.084 145.907 348.638 146.057 348.223C146.207 347.808 146.461 347.438 146.795 347.148C146.94 347.045 147.11 346.982 147.287 346.965C147.465 346.948 147.643 346.979 147.805 347.053C152.316 348.697 153.819 354.493 158.044 356.589C156.206 352.683 154.344 348.603 154.758 343.02C154.765 342.735 154.86 342.459 155.029 342.229C155.131 342.092 155.276 341.992 155.441 341.944C155.606 341.895 155.782 341.901 155.943 341.961C158.195 342.751 159.07 345.479 159.324 348.444C159.579 351.41 159.324 354.723 159.714 357.577C159.625 355.188 159.836 352.798 160.343 350.461C161.036 347.631 162.399 345.006 164.32 342.807C165.911 346.357 163.787 352.604 161.687 358.226C163.19 356.043 164.233 353.632 165.879 351.552C167.526 349.472 170.223 347.899 170.963 349.267C171.599 350.445 170.39 352.849 169.189 354.802C166.937 358.415 164.081 362.369 160.979 363.357C160.549 366.829 161.727 369.683 163.596 371.106L162.498 372.047L159.778 365.579C159.603 365.176 159.117 365.105 158.465 365.216Z" fill="#C1DEE2"/>
<path d="M174.733 276.909C174.676 276.86 174.611 276.82 174.542 276.79C174.372 276.729 174.19 276.707 174.009 276.727C173.901 276.745 173.794 276.774 173.691 276.814C173.581 276.852 173.477 276.905 173.381 276.972C173.318 277.004 173.259 277.044 173.206 277.09C173.113 277.171 173.025 277.259 172.943 277.351C172.912 277.385 172.886 277.422 172.864 277.462C172.804 277.537 172.751 277.616 172.705 277.699C172.657 277.771 172.617 277.848 172.585 277.929C172.438 278.286 172.323 278.657 172.243 279.036C172.243 279.162 172.188 279.289 172.172 279.407V279.265C172.124 279.534 172.084 279.795 172.044 280.056V279.921C171.989 280.269 171.957 280.625 171.925 280.973C171.893 281.321 171.925 281.582 171.925 281.882C171.925 281.969 171.925 282.056 171.925 282.143C171.917 282.262 171.917 282.38 171.925 282.499V282.38C171.925 282.483 171.925 282.594 171.925 282.689C171.925 282.784 171.925 282.886 171.925 282.981C171.921 283.002 171.921 283.024 171.925 283.044C171.917 283.126 171.917 283.208 171.925 283.29C171.925 283.345 171.925 283.4 171.981 283.448C172.001 283.497 172.025 283.544 172.052 283.59C172.064 283.614 172.08 283.636 172.1 283.653L172.188 283.748C171.997 284.262 171.798 284.784 171.623 285.33C171.567 285.496 171.511 285.654 171.464 285.812C171.217 284.853 170.92 283.909 170.573 282.981C170.216 282.292 170.112 281.501 170.278 280.743C170.499 279.682 170.388 278.578 169.96 277.581C169.873 277.375 169.769 277.177 169.666 276.98C169.562 276.782 169.459 276.608 169.348 276.426C169.21 276.219 169.055 276.024 168.886 275.841C168.719 275.661 168.519 275.514 168.298 275.406C168.127 275.291 167.935 275.211 167.733 275.169H167.526H167.446C167.375 275.182 167.306 275.203 167.24 275.232C167.191 275.248 167.145 275.272 167.104 275.303L166.977 275.382L166.794 275.541C166.742 275.6 166.694 275.664 166.651 275.73C166.601 275.797 166.558 275.868 166.524 275.944C166.476 276.038 166.436 276.136 166.404 276.236C166.373 276.34 166.349 276.446 166.333 276.553C166.284 276.813 166.266 277.079 166.277 277.343C166.365 279.787 167.868 280.506 169.459 281.669C170.135 282.143 170.414 283.321 170.7 284.207L170.581 284.049C170.386 283.797 170.173 283.559 169.944 283.337C169.748 283.151 169.538 282.979 169.316 282.823C169.064 282.644 168.798 282.485 168.52 282.349C168.265 282.233 167.998 282.143 167.725 282.08C167.408 281.994 167.082 281.944 166.754 281.93C166.561 281.91 166.367 281.91 166.174 281.93C166.054 281.949 165.937 281.981 165.824 282.024C165.703 282.068 165.588 282.126 165.481 282.198C165.373 282.267 165.274 282.349 165.187 282.444C165.095 282.536 165.014 282.639 164.949 282.752L164.901 282.855C164.863 282.931 164.834 283.01 164.813 283.092C164.806 283.173 164.806 283.255 164.813 283.337C164.805 283.416 164.805 283.495 164.813 283.574C164.821 283.642 164.837 283.708 164.861 283.772C164.898 283.873 164.943 283.971 164.996 284.064C165.069 284.197 165.152 284.324 165.243 284.444C165.912 285.273 166.885 285.805 167.948 285.923C168.743 286.065 170.541 285.923 171.13 286.397L171.281 286.539L171.352 286.603L171.392 286.642L171.464 286.737C171.806 288.137 172.108 289.56 172.371 290.991C172.035 290.256 171.581 289.581 171.026 288.991C170.397 288.306 169.595 287.801 168.703 287.528C168.491 287.444 168.273 287.375 168.051 287.322C167.904 287.282 167.756 287.251 167.606 287.227C167.449 287.215 167.292 287.215 167.136 287.227C167.023 287.234 166.911 287.252 166.802 287.283C166.647 287.319 166.497 287.375 166.357 287.449C166.207 287.521 166.066 287.608 165.935 287.71L165.696 287.939L165.585 288.066C165.521 288.154 165.462 288.247 165.41 288.342C165.363 288.437 165.323 288.535 165.291 288.635L165.243 288.785C165.243 288.88 165.243 288.983 165.243 289.078C165.226 289.222 165.226 289.368 165.243 289.513C165.271 289.649 165.317 289.782 165.378 289.908C165.424 290.01 165.483 290.105 165.553 290.193C165.647 290.321 165.756 290.438 165.879 290.54L165.959 290.635C166.061 290.743 166.172 290.841 166.293 290.928C166.591 291.136 166.908 291.316 167.24 291.466C168.329 291.932 169.157 291.727 170.366 291.3C171.289 290.975 171.957 290.746 172.426 291.671L172.474 291.774V291.813V291.877V292.003C172.469 292.024 172.469 292.046 172.474 292.067V292.209C172.473 292.227 172.476 292.246 172.485 292.263C172.493 292.28 172.506 292.294 172.522 292.304C172.721 293.529 172.872 294.771 172.967 296.02C172.889 295.925 172.803 295.835 172.713 295.751C172.124 295.198 172.275 294.296 171.488 293.806C170.551 293.33 169.539 293.014 168.496 292.873C168.303 292.835 168.105 292.816 167.908 292.818C167.67 292.814 167.432 292.838 167.2 292.889C166.968 292.943 166.743 293.026 166.532 293.134C166.315 293.244 166.112 293.38 165.927 293.537C165.814 293.633 165.71 293.739 165.617 293.854C165.522 293.962 165.437 294.079 165.362 294.201C165.311 294.285 165.266 294.372 165.227 294.462C165.169 294.594 165.126 294.732 165.1 294.874C165.08 295.018 165.08 295.164 165.1 295.308C165.091 295.398 165.091 295.488 165.1 295.577C165.123 295.665 165.155 295.749 165.195 295.83C165.253 295.957 165.334 296.072 165.434 296.17C165.497 296.244 165.57 296.311 165.649 296.368C166.003 296.595 166.389 296.768 166.794 296.882C167.198 297.002 167.614 297.079 168.035 297.111C169.443 297.204 170.843 296.828 172.013 296.044C172.061 296.006 172.107 295.963 172.148 295.917L172.188 295.862L172.307 295.957C172.441 296.066 172.563 296.188 172.673 296.321V296.368C172.695 296.406 172.722 296.44 172.752 296.471C172.8 296.542 172.84 296.613 172.88 296.684C172.919 296.755 172.88 296.763 172.943 296.795C173.024 298.308 172.989 299.826 172.84 301.334C172.84 301.547 172.84 301.769 172.784 301.982C172.729 302.196 173.087 302.172 173.126 301.982C173.206 301.563 173.238 301.136 173.277 300.717C173.317 300.298 173.333 299.887 173.349 299.476C173.349 298.875 173.349 298.274 173.349 297.681C173.513 297.295 173.696 296.917 173.898 296.55L174.598 295.316L174.686 295.158H174.733H174.853L175.107 295.079L175.226 295.024C175.383 295.01 175.537 294.981 175.688 294.937C175.807 294.85 175.911 294.747 176.022 294.652C176.133 294.557 176.316 294.344 176.452 294.186L176.992 293.569C177.335 293.158 177.685 292.778 178.011 292.327C178.202 292.08 178.385 291.816 178.56 291.537C178.697 291.33 178.819 291.113 178.926 290.888C179.038 290.657 179.128 290.416 179.196 290.169C179.196 290.066 179.196 289.971 179.252 289.876C179.275 289.732 179.291 289.587 179.299 289.441C179.307 289.302 179.307 289.162 179.299 289.022C179.284 288.928 179.26 288.835 179.228 288.746C179.188 288.607 179.126 288.477 179.045 288.358C178.993 288.282 178.931 288.213 178.862 288.153C178.793 288.093 178.718 288.04 178.639 287.994C178.521 287.94 178.395 287.905 178.265 287.892H178.074C178.008 287.884 177.942 287.884 177.876 287.892C177.781 287.911 177.688 287.937 177.597 287.971L177.462 288.018L177.335 288.081L177.072 288.239C176.933 288.345 176.802 288.461 176.682 288.587C176.589 288.675 176.504 288.77 176.428 288.872C175.306 290.248 174.383 291.497 174.2 293.221C174.19 293.789 174.217 294.357 174.28 294.921C174.28 295.214 174.447 295.048 174.383 295.419C174.244 295.762 174.071 296.091 173.866 296.4C173.731 296.669 173.596 296.937 173.476 297.19V297.111C173.407 295.495 173.239 293.884 172.975 292.288C172.975 292.161 172.935 292.035 172.912 291.908C172.983 291.647 173.055 291.394 173.142 291.118C173.23 290.841 173.27 290.746 173.341 290.564V290.501C173.355 290.449 173.374 290.399 173.397 290.351C173.437 290.264 173.468 290.169 173.508 290.082C173.548 289.995 173.58 289.924 173.612 289.853C173.508 290.074 174.614 289.449 174.598 289.457C175.467 288.776 176.201 287.939 176.762 286.99C177.006 286.632 177.219 286.254 177.398 285.859C177.694 285.24 177.875 284.573 177.931 283.891C177.943 283.709 177.943 283.527 177.931 283.345C177.924 283.207 177.908 283.07 177.883 282.934C177.863 282.794 177.823 282.659 177.764 282.531L177.693 282.412C177.643 282.346 177.587 282.285 177.525 282.23C177.459 282.182 177.387 282.142 177.311 282.111H177.247C177.187 282.091 177.126 282.075 177.064 282.064H176.873C176.807 282.06 176.741 282.06 176.674 282.064C176.582 282.083 176.492 282.109 176.404 282.143L176.284 282.191C176.142 282.265 176.009 282.356 175.887 282.459C175.758 282.568 175.638 282.687 175.529 282.815C175.351 283.035 175.186 283.264 175.036 283.503C174.301 284.596 173.718 285.782 173.301 287.03C173.031 287.82 172.768 289.236 173.405 289.766C173.222 290.185 173.047 290.612 172.904 291.039C172.904 291.149 172.824 291.252 172.792 291.363C172.569 290.121 172.315 288.896 172.044 287.678C171.957 287.291 171.861 286.887 171.774 286.524C171.793 286.477 171.809 286.43 171.822 286.381C171.822 286.278 171.877 286.184 171.909 286.081C171.941 285.978 172.029 285.693 172.092 285.496C172.369 284.572 172.881 283.736 173.58 283.068C174.892 281.605 176.014 278.735 174.996 277.241L174.845 277.059C174.818 277.002 174.78 276.95 174.733 276.909ZM171.265 286.239L170.891 285.931L170.955 285.828C170.959 285.802 170.959 285.775 170.955 285.749C170.989 285.681 171.016 285.609 171.034 285.535C171.135 285.757 171.212 285.991 171.265 286.239Z" fill="#C1DEE2"/>
<path d="M91.9366 0.743246L91.7536 0.877667C91.7067 0.935058 91.6642 0.995848 91.6264 1.05953C91.5704 1.1469 91.5301 1.2432 91.507 1.34419C91.491 1.45432 91.491 1.56616 91.507 1.67629C91.4956 1.79198 91.4956 1.90851 91.507 2.0242C91.5154 2.09168 91.5314 2.15799 91.5548 2.22188C91.5921 2.34053 91.6428 2.4546 91.7059 2.56189C91.724 2.60301 91.7453 2.64267 91.7696 2.6805L91.9366 2.90981C91.9907 2.97932 92.0491 3.04535 92.1116 3.10749C92.3943 3.37401 92.7005 3.61483 93.0265 3.82704C93.1299 3.8982 93.2333 3.96936 93.3447 4.03262L93.2094 3.95355L93.9095 4.36472L93.7901 4.29356C94.0924 4.47542 94.4106 4.63357 94.7288 4.79171C95.047 4.94985 95.2857 5.05265 95.5243 5.16335C95.6039 5.16335 95.6914 5.2266 95.771 5.25823C95.8823 5.30078 95.9966 5.33514 96.113 5.36102H96.0017C96.0975 5.39725 96.1958 5.42633 96.296 5.448L96.5824 5.52707H96.6381C96.7167 5.56011 96.7998 5.58143 96.8847 5.59033C96.9401 5.59823 96.9963 5.59823 97.0517 5.59033H97.2267H97.3063L97.4654 5.53498C97.8791 5.89871 98.2609 6.27035 98.7064 6.63408L99.1041 6.95036C98.1196 6.82393 97.1292 6.74739 96.1369 6.72105C95.3625 6.79697 94.5857 6.60115 93.9413 6.16755C93.0243 5.56109 91.9397 5.25425 90.8388 5.28986C90.6161 5.28986 90.3933 5.28986 90.1706 5.34521C89.9478 5.40056 89.741 5.39265 89.5342 5.43219C89.2866 5.48037 89.0442 5.55186 88.8103 5.64568C88.5816 5.73774 88.3694 5.8659 88.1818 6.02523C87.9957 6.1889 87.8442 6.38782 87.7363 6.61035C87.7104 6.67465 87.6891 6.74071 87.6727 6.80803V6.8871C87.6514 6.96234 87.6354 7.03896 87.625 7.11641C87.6211 7.16906 87.6211 7.22191 87.625 7.27456C87.6211 7.32192 87.6211 7.36952 87.625 7.41688C87.6493 7.49505 87.6785 7.57164 87.7125 7.64619C87.7125 7.71736 87.792 7.78061 87.8318 7.85178C87.8777 7.92095 87.9282 7.98699 87.9829 8.04946L88.2136 8.25504C88.2966 8.3279 88.3873 8.39154 88.4841 8.44481C88.7025 8.5792 88.9345 8.69051 89.1762 8.77691C91.4911 9.56763 92.7083 8.50807 94.3947 7.40898C95.0868 6.95827 96.296 7.14013 97.2267 7.19548L97.0358 7.25083C96.7288 7.3375 96.4284 7.44584 96.1369 7.57503C95.8899 7.69124 95.6507 7.8233 95.4209 7.97038C95.1545 8.1427 94.9042 8.33854 94.6732 8.55551C94.4788 8.74622 94.3005 8.95251 94.1402 9.17227C93.9471 9.43548 93.7793 9.71609 93.639 10.0104C93.5615 10.1864 93.5002 10.369 93.456 10.556C93.4279 10.6754 93.4119 10.7972 93.4083 10.9198C93.3966 11.0434 93.3966 11.1678 93.4083 11.2914C93.436 11.4162 93.476 11.538 93.5276 11.6551C93.5793 11.7756 93.649 11.8875 93.7345 11.9872L93.8061 12.0742C93.8686 12.1363 93.935 12.1944 94.0049 12.2482L94.2197 12.3668C94.2951 12.3952 94.3721 12.419 94.4504 12.4379C94.5164 12.4462 94.5833 12.4462 94.6493 12.4379C94.7579 12.4458 94.8669 12.4458 94.9754 12.4379C95.1261 12.4211 95.2751 12.3921 95.4209 12.3509C95.9289 12.1961 96.4011 11.9432 96.8106 11.6067C97.2201 11.2702 97.5589 10.8567 97.8075 10.39C98.2291 9.70996 98.7621 8.01783 99.3985 7.6541L99.5814 7.56712L99.6769 7.52758H99.7246H99.836C101.279 7.7279 102.718 7.97038 104.156 8.25504C103.337 8.29594 102.531 8.46955 101.769 8.76901C100.896 9.08629 100.127 9.63283 99.5417 10.3504C99.3857 10.5136 99.2421 10.688 99.1121 10.8723C99.0246 10.9988 98.9371 11.1174 98.8575 11.2598C98.7896 11.398 98.7312 11.5407 98.6825 11.6867C98.65 11.7923 98.6286 11.901 98.6189 12.0109C98.6029 12.1713 98.6029 12.3329 98.6189 12.4933C98.6314 12.6572 98.6634 12.8192 98.7143 12.9756C98.7458 13.0788 98.7857 13.1793 98.8337 13.2761C98.8581 13.3288 98.8874 13.3791 98.9212 13.4263C98.9756 13.5221 99.0396 13.6121 99.1121 13.6952C99.1823 13.7704 99.2567 13.8417 99.3348 13.9087C99.3733 13.9453 99.416 13.9771 99.4621 14.0035C99.5461 14.0595 99.6338 14.1097 99.7246 14.1538C99.8597 14.2139 100.001 14.259 100.146 14.2882C100.284 14.304 100.422 14.304 100.56 14.2882C100.673 14.2852 100.786 14.2666 100.894 14.2329C101.046 14.1914 101.193 14.1331 101.332 14.0589H101.451C101.59 14.0029 101.723 13.9341 101.849 13.8533C102.157 13.6586 102.442 13.4305 102.7 13.1733C103.535 12.343 103.654 11.5049 103.694 10.2318C103.694 9.25925 103.766 8.52389 104.8 8.46854H105.023H105.15H105.214H105.253L105.381 8.51598C105.414 8.52878 105.451 8.52878 105.484 8.51598C106.701 8.78482 107.918 9.0932 109.128 9.47274C109.008 9.5066 108.891 9.54888 108.778 9.59926C108.046 9.94717 107.258 9.47274 106.51 10.0183C105.721 10.7127 105.055 11.5332 104.537 12.4458C104.429 12.6095 104.338 12.7845 104.267 12.9677C104.175 13.1854 104.11 13.4139 104.076 13.6477C104.044 13.8839 104.044 14.1232 104.076 14.3594C104.098 14.5999 104.151 14.8365 104.235 15.0631C104.282 15.2022 104.34 15.3371 104.41 15.4664C104.478 15.5951 104.557 15.7169 104.649 15.8301C104.704 15.9084 104.768 15.9801 104.84 16.0436C104.94 16.1487 105.052 16.2416 105.174 16.3203C105.297 16.4024 105.43 16.4663 105.572 16.5101C105.656 16.5423 105.744 16.5636 105.834 16.5734C105.924 16.5851 106.015 16.5851 106.105 16.5734C106.244 16.5663 106.382 16.5342 106.51 16.4785C106.604 16.4493 106.692 16.4066 106.773 16.352C107.116 16.1079 107.422 15.8148 107.68 15.4822C107.942 15.1523 108.166 14.7942 108.348 14.4147C109.012 13.1432 109.223 11.6851 108.945 10.2793C108.925 10.2233 108.898 10.1701 108.865 10.1211C108.867 10.1027 108.867 10.0842 108.865 10.0658L108.992 9.98671C109.146 9.90806 109.305 9.84194 109.47 9.78903H109.525H109.653L109.899 9.74159H110.042C111.488 10.2199 112.895 10.8067 114.251 11.497C114.442 11.5998 114.64 11.6947 114.839 11.7895C115.038 11.8844 115.126 11.576 114.951 11.4653C114.585 11.2439 114.203 11.0542 113.821 10.8644C113.439 10.6746 113.065 10.5086 112.683 10.3425C112.127 10.1053 111.57 9.87601 111.005 9.67042C110.701 9.36389 110.417 9.03908 110.154 8.69784L109.255 7.57503L109.143 7.44061V7.40107C109.147 7.36161 109.147 7.32192 109.143 7.28246V7.01362C109.143 7.01362 109.143 6.92664 109.143 6.8871C109.127 6.74883 109.103 6.61155 109.072 6.47593C109.029 6.33382 108.978 6.19395 108.921 6.05685C108.841 5.86708 108.746 5.67731 108.65 5.48754L108.324 4.74427C108.07 4.26984 107.807 3.80331 107.529 3.33679C107.369 3.06795 107.194 2.80701 107.019 2.54608C106.876 2.34345 106.719 2.15061 106.55 1.96885C106.37 1.78307 106.176 1.61125 105.969 1.45489L105.715 1.29675C105.588 1.22558 105.46 1.15442 105.333 1.09907C105.201 1.04616 105.066 1.00385 104.927 0.972553C104.833 0.949057 104.737 0.93319 104.641 0.92511C104.498 0.909114 104.354 0.909114 104.211 0.92511C104.121 0.948394 104.033 0.980166 103.949 1.02C103.87 1.06272 103.795 1.11304 103.726 1.17023C103.625 1.25488 103.544 1.36004 103.487 1.47861C103.455 1.53576 103.431 1.59693 103.416 1.66048C103.39 1.7214 103.371 1.78508 103.36 1.85025C103.352 1.94497 103.352 2.04018 103.36 2.13491C103.352 2.18201 103.352 2.23012 103.36 2.27723C103.356 2.3246 103.356 2.3722 103.36 2.41956C103.36 2.52236 103.36 2.61724 103.416 2.72003C103.459 2.88852 103.517 3.05265 103.591 3.21028C103.641 3.32751 103.7 3.44112 103.766 3.55029C104.641 5.08427 105.468 6.39686 107.011 7.20339C107.53 7.4206 108.061 7.60546 108.602 7.75689C108.881 7.85968 108.778 7.64619 109.104 7.84387C109.374 8.10231 109.619 8.38559 109.836 8.68994C110.034 8.91134 110.241 9.13274 110.448 9.34623H110.376C108.838 8.83261 107.271 8.40755 105.683 8.07318L105.309 7.99411C105.094 7.83596 104.88 7.66991 104.673 7.49595C104.466 7.322 104.37 7.24293 104.227 7.1085L104.179 7.06106L104.068 6.95036L103.853 6.74478C103.79 6.68943 103.734 6.62617 103.678 6.57082C103.845 6.74478 103.678 5.49545 103.678 5.51126C103.359 4.45962 102.846 3.47577 102.167 2.60933C101.934 2.25049 101.668 1.91426 101.371 1.60513C101.041 1.26639 100.673 0.96658 100.274 0.711617C100.078 0.579639 99.8729 0.460769 99.661 0.355795C99.4952 0.269887 99.3222 0.198454 99.1439 0.142302L98.7462 0.0395091C98.6063 0.0200334 98.4644 0.0200334 98.3245 0.0395091C98.2798 0.0313383 98.234 0.0313383 98.1893 0.0395091C98.1091 0.0588698 98.0316 0.0880876 97.9586 0.126488C97.887 0.168935 97.8226 0.2223 97.7677 0.284631L97.7279 0.31626C97.6863 0.365722 97.6491 0.418629 97.6165 0.474403C97.5879 0.530343 97.564 0.588524 97.5449 0.64836C97.5449 0.711617 97.5449 0.774874 97.4893 0.838132V1.11488C97.4854 1.15961 97.4854 1.20458 97.4893 1.2493C97.5046 1.40582 97.5394 1.55985 97.5927 1.70792C97.6473 1.86807 97.7138 2.024 97.7915 2.17444C97.9332 2.41665 98.0872 2.65153 98.2529 2.87818C98.9815 3.95748 99.8479 4.93825 100.83 5.79592C101.507 6.34942 102.7 7.1006 103.432 6.71315C103.758 7.02943 104.092 7.34572 104.434 7.64619L104.705 7.85968C103.464 7.60666 102.215 7.39316 100.974 7.20339L99.8042 7.02943L99.6849 6.92664L99.4382 6.74478L98.9291 6.3257C98.1695 5.72689 97.5755 4.94599 97.2029 4.05634C96.3199 2.30096 94.0208 0.213466 92.2707 0.608824L92.048 0.687896C92.0086 0.701515 91.9712 0.720119 91.9366 0.743246ZM99.3826 7.37735C99.2343 7.44693 99.0908 7.52617 98.953 7.61456C98.953 7.57503 98.8973 7.5434 98.8814 7.51177L98.8178 7.44851C98.7681 7.38982 98.7121 7.33678 98.6507 7.29037L99.3826 7.37735Z" fill="#C1DEE2"/>
<path d="M132.826 217.787C132.865 217.851 132.913 217.91 132.969 217.961C133.025 218.013 133.086 218.058 133.152 218.095C133.241 218.148 133.338 218.186 133.439 218.206C133.549 218.222 133.662 218.222 133.773 218.206C133.891 218.208 134.008 218.195 134.123 218.167C134.191 218.158 134.257 218.142 134.322 218.119C134.438 218.075 134.553 218.025 134.664 217.969L134.775 217.898L135.014 217.732L135.205 217.55C135.469 217.275 135.706 216.976 135.913 216.656C135.985 216.552 136.051 216.444 136.112 216.332L136.04 216.459C136.183 216.229 136.318 215.992 136.446 215.755L136.374 215.881C136.557 215.573 136.708 215.257 136.859 214.94C137.01 214.624 137.114 214.379 137.225 214.102C137.225 214.023 137.281 213.936 137.313 213.857C137.345 213.778 137.384 213.628 137.416 213.517V213.62C137.454 213.525 137.483 213.427 137.504 213.327C137.535 213.234 137.559 213.139 137.575 213.043V212.987C137.602 212.908 137.621 212.826 137.631 212.742C137.635 212.687 137.635 212.631 137.631 212.576C137.631 212.521 137.631 212.473 137.631 212.426C137.637 212.403 137.637 212.378 137.631 212.355L137.583 212.236L138.665 210.979L138.983 210.584C138.874 211.568 138.815 212.558 138.808 213.549C138.902 214.317 138.719 215.093 138.291 215.739C137.713 216.667 137.435 217.749 137.496 218.839C137.496 219.06 137.52 219.281 137.567 219.503C137.567 219.708 137.623 219.922 137.663 220.127C137.717 220.371 137.791 220.609 137.886 220.839C137.983 221.065 138.117 221.274 138.283 221.456C138.347 221.53 138.419 221.596 138.498 221.654C138.615 221.746 138.743 221.824 138.88 221.883C138.944 221.911 139.011 221.935 139.079 221.954H139.158H139.365H139.524H139.667L139.89 221.867C139.965 221.834 140.034 221.792 140.097 221.741C140.169 221.695 140.235 221.642 140.296 221.582C140.369 221.51 140.438 221.433 140.503 221.353C140.574 221.27 140.635 221.18 140.686 221.084C140.819 220.867 140.928 220.636 141.012 220.396C141.807 218.072 140.678 216.886 139.548 215.225C139.087 214.545 139.246 213.343 139.286 212.418C139.286 212.481 139.286 212.545 139.341 212.608C139.434 212.912 139.551 213.208 139.691 213.493C139.803 213.741 139.939 213.976 140.097 214.197C140.274 214.459 140.476 214.703 140.702 214.925C140.89 215.122 141.098 215.299 141.322 215.454C141.591 215.641 141.879 215.8 142.181 215.929C142.357 216.009 142.541 216.07 142.73 216.111C142.851 216.132 142.973 216.145 143.096 216.15C143.222 216.146 143.347 216.13 143.47 216.103C143.597 216.076 143.72 216.034 143.836 215.976C143.955 215.925 144.065 215.855 144.162 215.771C144.195 215.749 144.224 215.722 144.25 215.692C144.311 215.631 144.367 215.565 144.417 215.494C144.464 215.427 144.504 215.356 144.536 215.28C144.566 215.206 144.587 215.13 144.6 215.051C144.611 214.986 144.611 214.919 144.6 214.853C144.608 214.745 144.608 214.637 144.6 214.529C144.509 213.929 144.268 213.36 143.9 212.876C143.532 212.391 143.048 212.005 142.492 211.754C141.799 211.343 140.065 210.844 139.715 210.212L139.62 210.03V209.935V209.888C139.62 209.848 139.62 209.809 139.62 209.769C139.795 208.338 140.018 206.899 140.28 205.468C140.328 206.283 140.513 207.085 140.829 207.84C141.127 208.648 141.625 209.369 142.277 209.935C142.444 210.088 142.622 210.228 142.81 210.354C142.935 210.443 143.065 210.525 143.2 210.599C143.34 210.668 143.487 210.723 143.637 210.765C143.743 210.799 143.852 210.82 143.963 210.829C144.125 210.845 144.287 210.845 144.448 210.829C144.611 210.81 144.771 210.776 144.926 210.726L145.236 210.599L145.387 210.512C145.478 210.451 145.566 210.385 145.65 210.315C145.725 210.242 145.797 210.166 145.864 210.085L145.96 209.959L146.103 209.698C146.161 209.567 146.202 209.429 146.222 209.287C146.242 209.148 146.242 209.007 146.222 208.868C146.221 208.754 146.199 208.642 146.159 208.536C146.112 208.386 146.054 208.241 145.984 208.101C145.982 208.064 145.982 208.027 145.984 207.99C145.925 207.852 145.853 207.719 145.769 207.595C145.567 207.307 145.335 207.042 145.077 206.804C144.218 206.013 143.375 205.879 142.094 205.863C141.115 205.863 140.383 205.816 140.304 204.788C140.3 204.751 140.3 204.714 140.304 204.677V204.566C140.308 204.524 140.308 204.482 140.304 204.44C140.308 204.419 140.308 204.397 140.304 204.376L140.352 204.25C140.365 204.217 140.365 204.18 140.352 204.147C140.598 202.929 140.893 201.72 141.251 200.51C141.251 200.628 141.338 200.747 141.386 200.858C141.744 201.577 141.282 202.368 141.847 203.103C142.556 203.876 143.389 204.526 144.313 205.025C144.482 205.129 144.66 205.216 144.846 205.286C145.069 205.372 145.301 205.433 145.538 205.468C145.774 205.495 146.011 205.495 146.246 205.468C146.491 205.44 146.731 205.384 146.962 205.302C147.098 205.249 147.231 205.188 147.36 205.12C147.485 205.047 147.605 204.965 147.718 204.875C147.795 204.818 147.867 204.754 147.933 204.685C148.034 204.581 148.125 204.467 148.203 204.345C148.284 204.222 148.349 204.089 148.394 203.949C148.42 203.862 148.439 203.772 148.45 203.681C148.458 203.591 148.458 203.501 148.45 203.412C148.435 203.273 148.4 203.137 148.346 203.008C148.309 202.92 148.264 202.836 148.211 202.755C147.962 202.417 147.661 202.118 147.32 201.87C146.986 201.613 146.623 201.396 146.238 201.221C144.952 200.64 143.508 200.501 142.134 200.826C142.072 200.842 142.013 200.866 141.959 200.897H141.903L141.823 200.771C141.743 200.62 141.674 200.465 141.616 200.304V200.241C141.616 200.241 141.616 200.162 141.616 200.122C141.616 200.083 141.577 199.956 141.561 199.877C141.565 199.835 141.565 199.793 141.561 199.751C142.023 198.309 142.592 196.903 143.263 195.544L143.55 194.951C143.629 194.769 143.327 194.666 143.223 194.848C143.001 195.212 142.818 195.639 142.635 195.979C142.452 196.319 142.285 196.77 142.126 197.118C141.895 197.671 141.68 198.233 141.481 198.794C141.195 199.094 140.885 199.379 140.566 199.656L139.477 200.565L139.333 200.684H139.214C139.124 200.676 139.034 200.676 138.944 200.684H138.816C138.676 200.699 138.538 200.725 138.403 200.763C138.262 200.806 138.124 200.856 137.989 200.913C137.798 201 137.607 201.095 137.424 201.198L136.7 201.585C136.231 201.846 135.762 202.115 135.3 202.376C135.038 202.542 134.775 202.708 134.505 202.898C134.301 203.041 134.11 203.199 133.932 203.372C133.748 203.552 133.58 203.748 133.431 203.957C133.37 204.037 133.317 204.122 133.272 204.21C133.197 204.335 133.131 204.465 133.073 204.598C133.026 204.73 132.986 204.865 132.953 205.001C132.946 205.096 132.946 205.191 132.953 205.286C132.933 205.427 132.933 205.571 132.953 205.713C132.978 205.802 133.01 205.889 133.049 205.974C133.093 206.051 133.146 206.123 133.208 206.187C133.293 206.287 133.399 206.368 133.518 206.424L133.701 206.496C133.766 206.516 133.833 206.532 133.9 206.543C133.995 206.551 134.091 206.551 134.186 206.543H134.33H134.473L134.767 206.488C134.937 206.442 135.102 206.381 135.26 206.306C135.378 206.256 135.493 206.198 135.602 206.132C137.13 205.23 138.434 204.384 139.222 202.835C139.436 202.308 139.612 201.766 139.747 201.214C139.85 200.945 139.644 201.048 139.835 200.715C140.074 200.444 140.341 200.198 140.63 199.98L141.282 199.355V199.434C140.764 200.933 140.329 202.459 139.978 204.005C139.978 204.131 139.922 204.258 139.898 204.376C139.747 204.598 139.58 204.811 139.413 205.017C139.246 205.222 139.158 205.325 139.023 205.468V205.515L138.92 205.634L138.713 205.847L138.538 206.021C138.713 205.847 137.456 206.021 137.472 206.021C136.416 206.365 135.434 206.901 134.576 207.603C134.2 207.856 133.848 208.145 133.526 208.464C133.2 208.791 132.909 209.152 132.659 209.54C132.529 209.737 132.412 209.943 132.309 210.157C132.228 210.322 132.161 210.494 132.11 210.671C132.11 210.805 132.031 210.939 132.007 211.066C131.987 211.208 131.987 211.351 132.007 211.493C132.003 211.538 132.003 211.583 132.007 211.627C132.026 211.708 132.058 211.786 132.102 211.857C132.148 211.925 132.202 211.989 132.261 212.046H132.309L132.468 212.149C132.527 212.178 132.588 212.201 132.651 212.22C132.712 212.244 132.777 212.26 132.842 212.268C132.935 212.276 133.028 212.276 133.12 212.268H133.248C133.408 212.253 133.566 212.219 133.717 212.165C133.876 212.105 134.03 212.034 134.178 211.951C134.425 211.809 134.656 211.643 134.886 211.485C135.96 210.736 136.931 209.851 137.774 208.852C138.315 208.18 139.055 206.978 138.649 206.258C138.967 205.926 139.278 205.594 139.572 205.246L139.787 204.977C139.556 206.211 139.357 207.452 139.182 208.686C139.127 209.081 139.079 209.477 139.031 209.856C138.995 209.892 138.962 209.931 138.936 209.975L138.753 210.22L138.371 210.702C137.781 211.469 137.003 212.074 136.112 212.458C134.322 213.406 132.269 215.699 132.731 217.447C132.731 217.526 132.778 217.597 132.81 217.676C132.812 217.714 132.818 217.751 132.826 217.787ZM139.373 210.283C139.453 210.425 139.532 210.568 139.62 210.702L139.524 210.773L139.453 210.837C139.401 210.891 139.353 210.949 139.31 211.011L139.373 210.283Z" fill="#C1DEE2"/>
<path d="M124.72 355.988C124.771 355.862 124.813 355.732 124.847 355.6C124.859 355.472 124.859 355.342 124.847 355.213C124.847 355.039 124.823 354.866 124.775 354.699C124.73 354.527 124.66 354.362 124.569 354.209C124.482 354.053 124.375 353.91 124.25 353.782C124.18 353.702 124.102 353.628 124.02 353.56C123.877 353.444 123.723 353.343 123.558 353.26L123.367 353.189C123.115 353.076 122.847 353.004 122.572 352.975C121.974 352.916 121.372 352.916 120.774 352.975C120.574 352.99 120.375 353.016 120.177 353.054L120.408 353.015C119.979 353.07 119.557 353.141 119.143 353.22L119.358 353.181C118.801 353.276 118.244 353.41 117.695 353.545C117.147 353.679 116.741 353.806 116.272 353.956L115.874 354.106C115.691 354.177 115.508 354.248 115.333 354.335L115.5 354.256C115.34 354.311 115.184 354.375 115.031 354.446L114.585 354.659L114.49 354.699C114.361 354.752 114.236 354.812 114.116 354.881C114.032 354.93 113.955 354.988 113.885 355.055C113.815 355.111 113.749 355.172 113.686 355.237C113.653 355.268 113.626 355.306 113.607 355.347C113.559 355.411 113.519 355.474 113.479 355.537C112.628 355.537 111.785 355.45 110.934 355.426H110.138C111.578 354.493 112.986 353.513 114.323 352.445C115.659 351.378 116.089 351.03 117.711 350.785C119.525 350.548 121.224 349.774 122.588 348.563C122.882 348.302 123.161 348.033 123.447 347.772C123.733 347.511 123.972 347.243 124.243 346.982C124.537 346.646 124.803 346.286 125.038 345.906C125.264 345.545 125.443 345.157 125.571 344.752C125.619 344.58 125.657 344.406 125.682 344.23C125.713 343.967 125.713 343.702 125.682 343.439C125.682 343.329 125.682 343.21 125.619 343.099C125.609 343.056 125.596 343.014 125.579 342.973C125.537 342.869 125.486 342.768 125.428 342.672C125.389 342.603 125.341 342.539 125.285 342.482C125.239 342.421 125.188 342.363 125.133 342.309C125.04 342.234 124.942 342.165 124.839 342.103C124.734 342.043 124.621 341.995 124.505 341.961C124.389 341.917 124.269 341.885 124.147 341.866C123.989 341.84 123.83 341.827 123.67 341.826C123.499 341.826 123.328 341.842 123.161 341.874C122.754 341.937 122.354 342.04 121.967 342.182C118.205 343.629 117.433 346.428 116.033 349.757C115.46 351.125 113.694 352.208 112.397 353.149L112.612 352.872C112.956 352.414 113.272 351.937 113.559 351.441C113.801 351.017 114.016 350.579 114.203 350.129C114.421 349.615 114.602 349.087 114.744 348.547C114.864 348.083 114.941 347.61 114.975 347.132C115.031 346.572 115.031 346.008 114.975 345.448C114.949 345.129 114.89 344.814 114.8 344.507C114.739 344.321 114.662 344.141 114.569 343.969C114.474 343.799 114.356 343.642 114.219 343.503C114.086 343.363 113.933 343.243 113.766 343.147C113.601 343.046 113.421 342.971 113.233 342.925C113.177 342.918 113.121 342.918 113.066 342.925C112.934 342.91 112.8 342.91 112.668 342.925C112.535 342.933 112.405 342.957 112.278 342.996C112.153 343.041 112.03 343.094 111.912 343.155C111.809 343.203 111.713 343.264 111.626 343.336C111.475 343.455 111.332 343.581 111.196 343.716C111.006 343.906 110.831 344.109 110.671 344.325C109.579 345.827 109.012 347.643 109.056 349.496C109.056 350.888 109.677 353.782 109.056 354.944C109.001 355.055 108.937 355.166 108.873 355.276L108.786 355.426C108.77 355.455 108.751 355.481 108.73 355.506L108.595 355.68C106.511 356.992 104.389 358.244 102.231 359.435C103.026 358.985 104.403 356.976 105.015 356.146C105.925 354.756 106.51 353.181 106.725 351.536C106.805 351.147 106.861 350.754 106.892 350.358C106.908 350.095 106.908 349.831 106.892 349.567C106.88 349.301 106.843 349.036 106.781 348.777C106.748 348.6 106.694 348.427 106.622 348.263C106.524 348.032 106.401 347.812 106.256 347.606C106.108 347.406 105.937 347.223 105.747 347.061C105.62 346.957 105.484 346.864 105.341 346.784L105.111 346.673C104.958 346.611 104.801 346.561 104.641 346.523C104.483 346.496 104.324 346.48 104.164 346.476H103.917C103.761 346.492 103.607 346.521 103.456 346.563C103.222 346.625 102.997 346.718 102.788 346.839C102.579 346.964 102.385 347.109 102.207 347.274C102.056 347.404 101.92 347.549 101.801 347.709C101.631 347.936 101.479 348.177 101.348 348.429V348.476L101.221 348.658C101.075 348.88 100.953 349.116 100.855 349.362C100.591 349.957 100.386 350.577 100.242 351.212C99.7806 353.26 100.29 354.517 101.244 356.288C101.976 357.633 102.501 358.661 101.165 359.878L101.014 360.005H100.966L100.878 360.076L100.695 360.187L100.592 360.242H100.544L100.337 360.321C100.279 360.342 100.231 360.385 100.202 360.44C98.3567 361.412 96.4713 362.329 94.5462 363.144C94.6819 362.966 94.8042 362.778 94.9121 362.582C95.6281 361.317 97.06 361.096 97.6328 359.538C98.1324 357.768 98.3788 355.937 98.3646 354.098C98.3741 353.765 98.3554 353.432 98.3089 353.102C98.2613 352.712 98.1651 352.329 98.0226 351.963C97.8885 351.616 97.7064 351.288 97.4816 350.991C97.2573 350.689 96.9892 350.423 96.6861 350.2C96.5102 350.069 96.324 349.953 96.1293 349.852C95.9331 349.756 95.728 349.679 95.5167 349.623C95.377 349.58 95.2329 349.554 95.0871 349.544C94.8653 349.516 94.6408 349.516 94.4189 349.544C94.1846 349.573 93.9548 349.632 93.7348 349.718C93.594 349.778 93.4583 349.849 93.3291 349.931C93.196 350.014 93.0708 350.11 92.9552 350.216C92.7734 350.386 92.6155 350.58 92.4858 350.793C92.3865 350.939 92.3037 351.095 92.2392 351.259C91.9721 351.954 91.7957 352.679 91.7142 353.418C91.6239 354.139 91.6052 354.868 91.6585 355.593C91.8256 357.64 92.7324 360.25 94.2678 361.602C94.3346 361.668 94.4128 361.721 94.4985 361.76L94.586 361.8C94.586 361.879 94.5144 361.958 94.4746 362.037C94.3306 362.309 94.1713 362.573 93.9973 362.828L93.9257 362.922C93.8859 362.986 93.8382 363.041 93.7905 363.104L93.4882 363.436L93.3291 363.595C91.0357 364.512 88.6772 365.26 86.2729 365.832C85.9308 365.911 85.5888 365.99 85.2467 366.085C84.9046 366.18 85.024 366.686 85.3501 366.639C86.0229 366.532 86.6895 366.39 87.3469 366.212C87.9992 366.046 88.6515 365.864 89.2958 365.666C90.2345 365.382 91.1653 365.073 92.0801 364.733C92.7147 364.799 93.3444 364.904 93.9655 365.05L96.0418 365.548L96.3122 365.611V365.674C96.3206 365.739 96.3366 365.803 96.36 365.864C96.4156 365.998 96.4793 366.125 96.5429 366.251L96.6543 366.417C96.7825 366.588 96.9263 366.747 97.0839 366.892C97.2501 367.035 97.4254 367.167 97.6089 367.287C97.8642 367.461 98.1299 367.62 98.4044 367.762L99.4863 368.315C100.202 368.671 100.926 369.027 101.658 369.343C102.088 369.533 102.525 369.699 102.963 369.849C103.321 369.964 103.688 370.051 104.06 370.11C104.453 370.168 104.85 370.187 105.246 370.165C105.403 370.155 105.56 370.136 105.715 370.11C105.943 370.07 106.169 370.017 106.391 369.952C106.613 369.876 106.828 369.783 107.036 369.675C107.182 369.601 107.323 369.517 107.457 369.422C107.659 369.274 107.843 369.105 108.006 368.916C108.111 368.784 108.204 368.644 108.285 368.497C108.361 368.353 108.422 368.202 108.468 368.046C108.534 367.829 108.56 367.601 108.547 367.374C108.547 367.263 108.547 367.153 108.499 367.042C108.48 366.935 108.454 366.829 108.42 366.726C108.367 366.583 108.306 366.443 108.237 366.307C108.237 366.243 108.165 366.18 108.126 366.117C108.085 366.053 108.04 365.992 107.99 365.935C107.896 365.814 107.795 365.697 107.688 365.587C107.492 365.414 107.282 365.258 107.06 365.121C106.899 365.019 106.732 364.929 106.558 364.852C104.172 363.737 102 362.875 99.2795 363.492C98.3841 363.777 97.5096 364.123 96.6622 364.528C96.2088 364.686 96.5111 364.86 95.9145 364.947C95.3533 364.908 94.7997 364.796 94.2678 364.615C93.8143 364.536 93.3609 364.464 92.9075 364.409L93.0347 364.354C95.5491 363.363 98.0057 362.233 100.393 360.969L100.966 360.661C101.38 360.661 101.801 360.661 102.215 360.661C102.629 360.661 102.827 360.661 103.13 360.661H103.297H103.535L103.989 360.708L104.363 360.748C103.989 360.708 105.222 362.195 105.206 362.171C106.304 363.31 108.086 363.927 109.557 364.433C110.176 364.651 110.816 364.802 111.467 364.883C112.151 364.963 112.843 364.963 113.527 364.883C113.9 364.842 114.269 364.776 114.633 364.686C114.927 364.615 115.214 364.52 115.492 364.401C115.709 364.311 115.916 364.217 116.112 364.116C116.327 364.001 116.527 363.86 116.709 363.697C116.771 363.641 116.83 363.58 116.884 363.516C116.973 363.399 117.05 363.275 117.115 363.144C117.174 363.008 117.222 362.868 117.258 362.725C117.258 362.685 117.258 362.654 117.258 362.622C117.258 362.59 117.258 362.401 117.258 362.29C117.254 362.18 117.238 362.072 117.21 361.966C117.195 361.86 117.168 361.757 117.131 361.657C117.083 361.517 117.021 361.382 116.948 361.254L116.836 361.08C116.694 360.886 116.526 360.713 116.335 360.566C116.133 360.412 115.917 360.278 115.691 360.163C115.306 359.988 114.91 359.838 114.505 359.712C112.637 359.057 110.678 358.691 108.698 358.629C107.362 358.629 105.15 358.921 104.482 360.21C103.782 360.139 103.09 360.076 102.39 360.06H101.857C103.726 359.04 105.572 357.965 107.425 356.897L109.144 355.846H109.199C109.279 355.846 109.359 355.846 109.438 355.846H109.915H110.87C112.332 355.808 113.77 356.217 114.991 357.016C117.576 358.407 122.301 358.732 124.362 356.225C124.454 356.114 124.539 355.998 124.616 355.877C124.656 356.114 124.688 356.051 124.72 355.988ZM109.438 355.197C109.573 354.936 109.701 354.675 109.82 354.406L109.995 354.462C110.04 354.469 110.085 354.469 110.13 354.462C110.249 354.478 110.369 354.478 110.488 354.462L109.438 355.197Z" fill="#C1DEE2"/>
<path d="M145.984 134.67C144.582 132.832 141.211 130.689 140.242 129.104C139.757 128.331 137.706 119.142 138.75 119.417C144.918 121.039 147.61 126.188 149.571 130.749C147.811 122.363 146.215 113.264 151.89 105.86C152.457 105.116 153.628 104.298 154.605 104.759C154.811 104.876 154.986 105.04 155.116 105.238C155.245 105.436 155.326 105.662 155.351 105.897C156.842 112.735 152.606 119.655 153.494 126.545C155.806 120.905 158.259 115.079 163.554 110.637C163.8 110.395 164.126 110.252 164.471 110.235C164.687 110.265 164.886 110.366 165.036 110.523C165.186 110.679 165.279 110.882 165.299 111.098C166.045 114.499 164.188 117.936 161.682 120.86C159.176 123.784 156.014 126.389 153.71 129.395C155.712 127.258 157.998 125.406 160.504 123.889C163.377 122.237 166.698 121.526 169.997 121.857C167.864 126.924 160.832 129.871 154.381 132.311C157.364 132.185 160.198 131.307 163.144 131.448C166.089 131.59 169.289 133.413 168.543 135.496C167.902 137.296 164.934 137.974 162.42 138.241C157.677 138.747 152.241 138.814 149.318 136.009C147.761 137.179 146.485 138.681 145.582 140.404C144.679 142.127 144.172 144.029 144.097 145.972L142.524 145.488C143.861 142.512 145.199 139.553 146.536 136.612C146.767 136.024 146.514 135.414 145.984 134.67Z" fill="#C1DEE2"/>
</g>
<defs>
<clipPath id="clip0_217_255">
<rect width="102" height="372" fill="white" transform="translate(85)"/>
</clipPath>
</defs>
</svg>
