<svg xmlns="http://www.w3.org/2000/svg" viewBox="0 0 213.36 395.93"><defs><style>.a{isolation:isolate;}.b,.c,.d,.e{fill:#7489ff;}.b{opacity:0.31;}.c{opacity:0.44;}.c,.j{mix-blend-mode:multiply;}.d{fill-rule:evenodd;}.f{fill:#3b5fc4;}.g{fill:#082554;}.h{fill:#fff;}.i{fill:#f29cf7;}.k{fill:none;stroke:#082554;stroke-miterlimit:10;}</style></defs><title>left-bottom400x</title><g class="a"><circle class="b" cx="132.34" cy="174.99" r="10.11" transform="translate(-75.35 104.28) rotate(-34.1)"/><circle class="c" cx="206.59" cy="58.49" r="6.76"/><path class="d" d="M186.28,205.81A10.67,10.67,0,1,0,179,219,10.67,10.67,0,0,0,186.28,205.81Zm-2.56.74a8,8,0,1,1-9.92-5.46A8,8,0,0,1,183.72,206.55Z"/><path class="d" d="M182.87,227.62l-3-10.24a1.34,1.34,0,0,0-2.57.74l3,10.25a1.33,1.33,0,1,0,2.56-.75Z"/><path class="d" d="M176.64,225.26l7.68-2.22a1.33,1.33,0,0,0-.74-2.56l-7.68,2.22a1.33,1.33,0,1,0,.74,2.56Z"/><line class="e" x1="182.66" y1="178.3" x2="182" y2="171.41"/><line class="e" x1="173.08" y1="175.38" x2="177.49" y2="170.03"/><line class="e" x1="168.38" y1="166.53" x2="175.27" y2="165.87"/><line class="e" x1="171.31" y1="156.96" x2="176.65" y2="161.36"/><line class="e" x1="180.15" y1="152.25" x2="180.81" y2="159.14"/><line class="e" x1="189.73" y1="155.18" x2="185.32" y2="160.52"/><line class="e" x1="194.43" y1="164.02" x2="187.54" y2="164.69"/><line class="e" x1="191.5" y1="173.6" x2="186.16" y2="169.2"/><path class="f" d="M82.89,294.16s-5.69-22.79,32.92-44.31,66.47-17.09,72.8-31,11.4-5.7,3.8,13.29S153.79,323.92,82.89,294.16Z"/><path class="f" d="M90.49,326.45s34.18-39.88,64.57-2.53,18.36,39.88,18.36,39.88S110.75,373.93,90.49,326.45Z"/><path class="g" d="M128.93,395.93A128.09,128.09,0,0,1,99.39,199.58l.74.67a127.09,127.09,0,0,0,29.31,194.82Z"/><path class="g" d="M77,336.06c-2.91-9.28-5-23.09,1.26-36.25,3.38-7,8-11.5,12.51-15.27,19.45-16.3,45.41-27.62,63.76-34.25l.34.94c-18.28,6.61-44.12,17.87-63.46,34.08-4.42,3.7-8.95,8.07-12.25,14.93-6.17,12.86-4.06,26.42-1.21,35.52Z"/><path class="h" d="M87.65,152.76S78.49,136,92.6,125.09c0,0,18.82,14.88,16.58,29.21,0,0,.58,1.22,1.54,1.26,1.45.07,2.33-3.06,3.8-5.91.51-1,4.34-8.24,10.68-10.5,2.83-1,5.17-.68,8.66-.19a36,36,0,0,1,14.75,5.66,27.45,27.45,0,0,1,3,8.83,29.91,29.91,0,0,1-4.17,19.77s22-2,23.67,16.19a33.91,33.91,0,0,1-17.73,15.36,32.54,32.54,0,0,1-14.9,1.65,27,27,0,0,1,1.65,9.73c-.19,10.28-6.35,17.29-8.32,19.37,0,0-17.41,5.25-29.92-20.46,0,0-6.89,9-28.2-3.49,0,0-4-8.37,1.2-22.88a30.06,30.06,0,0,1-9.94-8.85,31.18,31.18,0,0,1-5.3-20.7,22.28,22.28,0,0,1,8.05-6.53C76.94,148.22,86.06,152.06,87.65,152.76Z"/><path class="i" d="M135.73,204a11,11,0,0,1-10.37-9.45.51.51,0,0,1,.4-.59.49.49,0,0,1,.58.4c1.63,8.53,9.08,8.64,9.39,8.64a.5.5,0,0,1,.5.5.5.5,0,0,1-.5.5Z"/><path class="i" d="M131.79,236a.48.48,0,0,1-.36-.15c-.14-.15-13.65-14.61-13.29-44.9a.5.5,0,0,1,.5-.5h0a.51.51,0,0,1,.5.51c-.35,29.85,12.87,44.05,13,44.19a.5.5,0,0,1,0,.71A.49.49,0,0,1,131.79,236Z"/><path class="i" d="M75,211.15a.51.51,0,0,1-.44-.25.49.49,0,0,1,.18-.68c24.67-14.47,73.06-65.44,73.54-65.95a.5.5,0,0,1,.73.69c-.49.51-49,51.58-73.76,66.12A.47.47,0,0,1,75,211.15Z"/><path class="i" d="M160.6,190.57a80.73,80.73,0,0,1-25.75-4.14.5.5,0,0,1,.32-1,78.88,78.88,0,0,0,35.5,3.39.52.52,0,0,1,.59.41.51.51,0,0,1-.41.58A65.27,65.27,0,0,1,160.6,190.57Z"/><path class="i" d="M100.76,168.29a.59.59,0,0,1-.26-.07,36.86,36.86,0,0,1-11.43-10.7,36.08,36.08,0,0,1-2.71-4.68.5.5,0,0,1,.9-.43A34.32,34.32,0,0,0,89.9,157,35.76,35.76,0,0,0,101,167.36a.5.5,0,0,1,.17.69A.51.51,0,0,1,100.76,168.29Z"/><path class="i" d="M102.72,160.34a.49.49,0,0,1-.37-.16c-11.12-12-10.26-34.88-10.25-35.11a.5.5,0,0,1,.52-.48.51.51,0,0,1,.48.52c0,.23-.85,22.73,10,34.39a.49.49,0,0,1-.36.84Z"/><path class="i" d="M92.15,172.34a47.9,47.9,0,0,1-32.86-12.83.5.5,0,1,1,.68-.73c17.81,16.46,39.48,11.95,39.69,11.9a.48.48,0,0,1,.6.36.5.5,0,0,1-.36.61A38.09,38.09,0,0,1,92.15,172.34Z"/><path class="i" d="M74.87,189.19a.5.5,0,0,1,0-1c11.17,0,25.69-6.14,26.68-7a.47.47,0,0,1,.68-.07.52.52,0,0,1,.08.72c-.62.79-15.68,7.31-27.44,7.35Z"/><path class="i" d="M101.7,216.34h0a.51.51,0,0,1-.49-.51,49.3,49.3,0,0,1,1.28-10.64,50.3,50.3,0,0,1,8.91-19,.5.5,0,0,1,.7-.1.51.51,0,0,1,.1.7,49.33,49.33,0,0,0-8.74,18.62,48.52,48.52,0,0,0-1.25,10.42A.5.5,0,0,1,101.7,216.34Z"/><path class="i" d="M120.48,196.12c4-.13,6.83-.47,9.49-2.16,3.79-2.42,5.13-6.48,6-9.73,2.85-10.32-1.33-24.24-1.33-24.24-3.67-1.94-13.35-6.4-24-3.41-2.81.79-6.68,1.93-9.44,5.49-4.59,5.93-2.6,14.06-2,16.28a24.41,24.41,0,0,0,3.84,8.34c1.89-.27,4.28-.27,5.7,1.18a6.41,6.41,0,0,1,2.82,5.85S117.91,196.2,120.48,196.12Z"/><g class="j"><path class="i" d="M105.9,178.23a6.68,6.68,0,0,1,.68-3.2,2.28,2.28,0,0,1,2.81-1,2.69,2.69,0,0,1,1.12,2.55,6.71,6.71,0,0,1-1.87,4.46c2,.11,3.21-1.33,3.75-3a22,22,0,0,1,2.75-6.39,5,5,0,0,1,1.21-1.31,2.12,2.12,0,0,1,1.7-.37,2.71,2.71,0,0,1,1.64,2.39,7.9,7.9,0,0,1-1.88,6.38c-1.7,1.89-2.63,3.68-4.9,4.83a21.21,21.21,0,0,1,4.6-.93,3.43,3.43,0,0,1,1.32.07,1.3,1.3,0,0,1,.92.88,1.78,1.78,0,0,1-.81,1.63,8.13,8.13,0,0,1-7.74,1.47,29.27,29.27,0,0,0,14.09,5.93,12.81,12.81,0,0,1-10-.46,27.22,27.22,0,0,1-7.71-6.11c-2.8-2.94-5.43-6.19-6.74-10s-1.1-8.4,1.4-11.6C101.12,169,103,174.43,105.9,178.23Z"/></g><path class="g" d="M77.22,336.85l-.71-.7a46,46,0,0,1,22.93-12.68c16.81-3.64,30.26,3.47,35.27,6.7l-.54.84c-4.9-3.16-18.08-10.12-34.52-6.57A45.19,45.19,0,0,0,77.22,336.85Z"/><path class="k" d="M82.31,7.77A116.31,116.31,0,0,1,61.9,81.19,116.23,116.23,0,0,1,.14,125.82"/><circle class="i" cx="82.83" cy="6.06" r="6.06"/><path class="f" d="M81.51,12.25S81.58,5,75.36,2.84C75.36,2.84,74,9.74,81.51,12.25Z"/><path class="f" d="M81.43,12.22s7.15.91,10.07-5C91.5,7.22,84.81,5.05,81.43,12.22Z"/></g></svg>