<svg xmlns="http://www.w3.org/2000/svg" viewBox="0 0 506.57 291.7"><defs><style>.a{isolation:isolate;}.b{fill:none;stroke:#7489ff;stroke-miterlimit:10;}.c,.d,.e{fill:#7489ff;}.c{opacity:0.44;}.c,.j{mix-blend-mode:multiply;}.d{fill-rule:evenodd;}.f{fill:#082554;}.g{fill:#3b5fc4;}.h{fill:#fff;}.i{fill:#f29cf7;}</style></defs><title>left-top400x</title><g class="a"><path class="b" d="M5.47,291.56c-11.29-38.11-3-81.47,21.5-112.75S91.62,129.15,131.33,131s77.93,23.93,99.41,57.37c7.35,11.43,12.9,24.44,13.24,38S238.8,254.18,227.67,262s-28,7.5-37.33-2.38c-10-10.61-8.83-27.33-5.85-41.61C199.07,148.17,242.18,84.75,301.73,45.5S436.56-8.36,506.48,5.77"/><path class="c" d="M157.15,206.5a6.77,6.77,0,1,1-6.76-6.76A6.77,6.77,0,0,1,157.15,206.5Z"/><path class="d" d="M307.54,145.39A7.63,7.63,0,1,0,300,153.1,7.63,7.63,0,0,0,307.54,145.39Zm-1.91,0a5.72,5.72,0,1,1-5.78-5.65A5.72,5.72,0,0,1,305.63,145.41Z"/><path class="d" d="M301,159.76l-.09-7.62a1,1,0,1,0-1.9,0l.09,7.63a1,1,0,1,0,1.9,0Z"/><path class="d" d="M297.19,157l5.72-.07a1,1,0,1,0,0-1.9l-5.71.06a1,1,0,1,0,0,1.91Z"/><line class="e" x1="341" y1="261.39" x2="340.33" y2="254.49"/><line class="e" x1="331.42" y1="258.46" x2="335.82" y2="253.12"/><line class="e" x1="326.71" y1="249.62" x2="333.61" y2="248.95"/><line class="e" x1="329.64" y1="240.04" x2="334.98" y2="244.44"/><line class="e" x1="338.48" y1="235.33" x2="339.15" y2="242.23"/><line class="e" x1="348.06" y1="238.26" x2="343.66" y2="243.61"/><line class="e" x1="352.77" y1="247.1" x2="345.87" y2="247.77"/><line class="e" x1="349.84" y1="256.68" x2="344.49" y2="252.28"/><path class="f" d="M346.74,208c-17.2,0-34.32-4.31-48.29-9.25-9.17-3.25-18.35-7.07-27.23-10.76-19.63-8.18-39.94-16.64-61.27-19.26-37-4.55-75.71,9.61-101,37l-.73-.68c25.54-27.59,64.58-41.87,101.89-37.28,21.47,2.64,41.84,11.12,61.54,19.32,8.86,3.69,18,7.51,27.17,10.75,25.75,9.1,62.24,16.06,89.93-2.48l.55.83C376.32,204.84,361.5,208,346.74,208Z"/><path class="f" d="M273.07,274.19l-.95-.3c3.08-9.59,8.81-34.83-4.46-61.9-14-28.61-40.08-39.36-47.72-42l.32-1c7.74,2.65,34.1,13.52,48.29,42.48C282,239,276.19,264.49,273.07,274.19Z"/><path class="f" d="M250.94,179.68l-.22-1a236.54,236.54,0,0,0,23.54-6.41,236.39,236.39,0,0,0,28.32-11.43l.43.91a237,237,0,0,1-28.44,11.47A238.38,238.38,0,0,1,250.94,179.68Z"/><path class="g" d="M142.3,180s43,4,47.3,28.53,50.91,26.72,50.91,26.72-5.42-63.91-64.63-65.72C175.88,169.49,156,170.94,142.3,180Z"/><path class="h" d="M285.65,254s6-1.51,8.24,3.77c0,0-6.16,4.68-10.45,2.82,0,0-.43.09-.52.38-.14.45.77,1,1.54,1.66a7.28,7.28,0,0,1,2.41,4.19,5.3,5.3,0,0,1-.64,2.71,11.56,11.56,0,0,1-3,4.15,8.83,8.83,0,0,1-3,.22,9.64,9.64,0,0,1-5.84-2.9s-1.15,7-7,6.08a10.85,10.85,0,0,1-3.36-6.77,10.58,10.58,0,0,1,.68-4.79,8.59,8.59,0,0,1-3.17-.27,9.53,9.53,0,0,1-5.37-4.16s-.24-5.86,8.8-7.69c0,0-2.25-2.87,3.37-8.52,0,0,2.93-.56,7,2.22a9.67,9.67,0,0,1,3.57-2.38,10,10,0,0,1,6.89,0,7.31,7.31,0,0,1,1.39,3A8,8,0,0,1,285.65,254Z"/><path class="i" d="M266,265.44l-.13,0a.49.49,0,0,1-.36-.6,3.87,3.87,0,0,1,4.14-2.73.5.5,0,0,1,.47.53.52.52,0,0,1-.53.47,2.86,2.86,0,0,0-3.11,2A.5.5,0,0,1,266,265.44Z"/><path class="i" d="M256.26,261.62a.49.49,0,0,1-.44-.26.51.51,0,0,1,.19-.68c.24-.13,5.79-3.14,15.35-.55a.5.5,0,0,1,.35.61.49.49,0,0,1-.61.35c-9.14-2.47-14.54.44-14.6.47A.53.53,0,0,1,256.26,261.62Z"/><path class="i" d="M283.28,274.21a.51.51,0,0,1-.43-.23c-.49-.8-12.17-19.5-14.72-28.46a.49.49,0,0,1,.34-.61.5.5,0,0,1,.62.34c2.51,8.82,14.49,28,14.61,28.2a.48.48,0,0,1-.16.68A.42.42,0,0,1,283.28,274.21Z"/><path class="i" d="M267.52,277.51h0A.5.5,0,0,1,267,277a25.78,25.78,0,0,1,4-11.13.51.51,0,0,1,.7-.14.5.5,0,0,1,.14.69A25.05,25.05,0,0,0,268,277.05.5.5,0,0,1,267.52,277.51Z"/><path class="i" d="M279.91,257.4a.51.51,0,0,1-.36-.15.49.49,0,0,1,0-.7,12,12,0,0,1,4.38-2.78,11.39,11.39,0,0,1,1.73-.49.51.51,0,0,1,.59.4.5.5,0,0,1-.4.58,10.93,10.93,0,0,0-1.58.45,11.22,11.22,0,0,0-4,2.55A.49.49,0,0,1,279.91,257.4Z"/><path class="i" d="M282.23,258.66a.5.5,0,0,1-.24-.94c4.76-2.57,11.76-.48,12.05-.39a.5.5,0,0,1-.29.95c-.07,0-6.9-2-11.28.32A.53.53,0,0,1,282.23,258.66Z"/><path class="i" d="M278.93,256.82h0a.5.5,0,0,1-.5-.5,15.8,15.8,0,0,1,7.23-12,.5.5,0,0,1,.54.84,14.78,14.78,0,0,0-6.77,11.15A.49.49,0,0,1,278.93,256.82Z"/><path class="i" d="M275.53,256.65a.5.5,0,0,1-.4-.19c-.34-.45-1.05-5.88-.14-9.45a.5.5,0,0,1,.61-.36.51.51,0,0,1,.36.61,23.13,23.13,0,0,0,0,8.66.5.5,0,0,1-.14.63A.49.49,0,0,1,275.53,256.65Z"/><path class="i" d="M273.18,259.34a.49.49,0,0,1-.39-.19,15.49,15.49,0,0,0-8.09-5.35.5.5,0,0,1-.35-.61.49.49,0,0,1,.61-.35,16.39,16.39,0,0,1,3.29,1.28,16.66,16.66,0,0,1,5.32,4.4.52.52,0,0,1-.08.71A.51.51,0,0,1,273.18,259.34Z"/><path class="i" d="M269.47,260.77a5.74,5.74,0,0,0-.09,3.14,5.06,5.06,0,0,0,2.55,2.67c3,1.72,7.67,1.54,7.67,1.54a10.74,10.74,0,0,0,3-7.22,5.41,5.41,0,0,0-1-3.39c-1.48-1.91-4.17-1.94-4.91-1.95a7.88,7.88,0,0,0-2.91.52,2.19,2.19,0,0,1-.83,1.69,2.09,2.09,0,0,1-2.06.41A11.72,11.72,0,0,0,269.47,260.77Z"/><g class="j"><path class="i" d="M276.23,257.66a2.11,2.11,0,0,1,.94.48.74.74,0,0,1,.11,1,.88.88,0,0,1-.89.14,2.16,2.16,0,0,1-1.24-.94,1.2,1.2,0,0,0,.64,1.41,7.16,7.16,0,0,1,1.77,1.38,1.52,1.52,0,0,1,.31.48.68.68,0,0,1,0,.56.88.88,0,0,1-.88.32,2.54,2.54,0,0,1-1.84-1.1,5.57,5.57,0,0,1-1.11-1.92,7,7,0,0,1-.08,1.51,1.51,1.51,0,0,1-.13.41.44.44,0,0,1-.35.21c-.21,0-.35-.2-.44-.38a2.61,2.61,0,0,1,.16-2.54,9.56,9.56,0,0,0-3,3.92,4.17,4.17,0,0,1,.95-3.08,9,9,0,0,1,2.53-1.92,9.27,9.27,0,0,1,3.68-1.29,4.06,4.06,0,0,1,3.51,1.37A5.66,5.66,0,0,0,276.23,257.66Z"/></g><path class="f" d="M226.8,225.5c-9.59-4.8-16.81-13.2-22.83-20.69-.79-1-1.57-2-2.36-3-5.53-7-11.25-14.16-18.45-19.49-9.2-6.81-19.85-9.24-28.51-6.51l-.3-.95c9-2.83,20-.34,29.41,6.66,7.3,5.41,13.06,12.66,18.63,19.67.79,1,1.57,2,2.36,3,5.95,7.41,13.09,15.7,22.5,20.42Z"/><path class="i" d="M341.72,171.31s-11.93,20.52-39.3,23.71C302.42,195,296.42,164.33,341.72,171.31Z"/><path class="i" d="M347.1,184.11s-22.9-6.28-44.66,10.62C302.44,194.73,319.66,220.83,347.1,184.11Z"/><polygon class="i" points="341.73 171.31 347.1 184.11 324.14 185.25 341.73 171.31"/><g class="j"><path class="i" d="M302.26,191c13.8-11.63,43.64-7.6,44.9-7.43l-.13,1c-.31,0-30.67-4.14-44.12,7.2Z"/></g><g class="j"><path class="i" d="M330,182.81c7.75-2.93,11.21-11.6,11.25-11.69l.93.37c-.14.37-3.65,9.16-11.83,12.25Z"/></g><path class="g" d="M321.4,185.15s-5.22,14.43-23.38,11.69C298,196.84,303.57,178.25,321.4,185.15Z"/><path class="g" d="M308.39,170.77a19,19,0,0,1-.66,2.95c-1.59,5.06-4.52,6.43-6.3,11.75a12.25,12.25,0,0,0-.76,3c-.2,2.3.55,3.45-.14,5.44a8,8,0,0,1-.79,1.59,9.07,9.07,0,0,1-2.38,2.49h0s-.58-16,7.33-25.27l2.63-3.22Z"/><path class="g" d="M297.36,198s15.09,14.76,24.13,5.76C321.49,203.76,303.55,191.34,297.36,198Z"/><circle class="i" cx="375.37" cy="198.2" r="6.06"/><path class="g" d="M374.05,204.38s.07-7.2-6.15-9.4C367.9,195,366.54,201.87,374.05,204.38Z"/><path class="g" d="M374,204.35s7.15.92,10.06-5C384,199.35,377.35,197.19,374,204.35Z"/></g></svg>