<svg xmlns="http://www.w3.org/2000/svg" viewBox="0 0 643.8 389.78"><defs><style>.a{isolation:isolate;}.b{fill:none;stroke:#7489ff;stroke-miterlimit:10;}.c,.d,.e{fill:#7489ff;}.d{opacity:0.31;}.e{fill-rule:evenodd;}.f{fill:#082554;}.g{fill:#3b5fc4;}.h{fill:#fff;}.i{fill:#f29cf7;}.j{mix-blend-mode:multiply;}</style></defs><title>right-bottom400x</title><g class="a"><path class="b" d="M85.87,374.32A306.12,306.12,0,0,1,272.3,97.79c24.36-10.34,50.52-17.56,77-16.77s53.31,10.26,71.64,29.36c8.54,8.89,15.27,20.37,15.26,32.7s-8.42,25.09-20.6,27c-17.77,2.8-31.59-18.86-27.85-36.46s18.51-30.49,33.15-40.94a379.23,379.23,0,0,1,222.91-70"/><path class="c" d="M40.27,204.69a4.45,4.45,0,1,1-4.45-4.44A4.44,4.44,0,0,1,40.27,204.69Z"/><circle class="c" cx="120.95" cy="54.88" r="4.44"/><path class="c" d="M4.26,121.54a2.13,2.13,0,1,1-2.13-2.13A2.13,2.13,0,0,1,4.26,121.54Z"/><circle class="b" cx="251.03" cy="152.37" r="19.12" transform="translate(44.66 361.28) rotate(-76.61)"/><circle class="d" cx="366.46" cy="94.42" r="6.76"/><path class="e" d="M65.7,81.51a11.49,11.49,0,1,0-7.59,14.38A11.49,11.49,0,0,0,65.7,81.51ZM63,82.36a8.62,8.62,0,1,1-10.78-5.69A8.62,8.62,0,0,1,63,82.36Z"/><path class="e" d="M62.45,105.07l-3.39-11a1.44,1.44,0,1,0-2.75.85l3.39,11a1.44,1.44,0,0,0,2.75-.85Z"/><path class="e" d="M55.68,102.65l8.24-2.54a1.44,1.44,0,0,0-.85-2.75L54.84,99.9a1.44,1.44,0,0,0,.84,2.75Z"/><line class="c" x1="365.82" y1="173" x2="365.16" y2="166.1"/><line class="c" x1="356.24" y1="170.07" x2="360.65" y2="164.73"/><line class="c" x1="351.54" y1="161.23" x2="358.43" y2="160.56"/><line class="c" x1="354.47" y1="151.65" x2="359.81" y2="156.05"/><line class="c" x1="363.31" y1="146.95" x2="363.97" y2="153.84"/><line class="c" x1="372.89" y1="149.87" x2="368.48" y2="155.22"/><line class="c" x1="377.59" y1="158.72" x2="370.7" y2="159.38"/><line class="c" x1="374.67" y1="168.29" x2="369.32" y2="163.89"/><line class="c" x1="243.53" y1="46.98" x2="242.86" y2="40.09"/><line class="c" x1="233.95" y1="44.06" x2="238.35" y2="38.71"/><line class="c" x1="229.24" y1="35.21" x2="236.14" y2="34.55"/><line class="c" x1="232.17" y1="25.63" x2="237.52" y2="30.04"/><line class="c" x1="241.01" y1="20.93" x2="241.68" y2="27.82"/><line class="c" x1="250.59" y1="23.86" x2="246.19" y2="29.2"/><line class="c" x1="255.3" y1="32.7" x2="248.4" y2="33.37"/><line class="c" x1="252.37" y1="42.28" x2="247.03" y2="37.88"/><path class="f" d="M325.29,302.28l-.61-.79a98.67,98.67,0,0,1,24-13.58c22.64-8.89,43.93-7.45,57.8-4.67l-.19,1c-13.75-2.75-34.83-4.18-57.25,4.62A97.8,97.8,0,0,0,325.29,302.28Z"/><path class="g" d="M295.75,199.77c-1.31-1.72-52.29,105.77,0,125.61C295.75,325.38,347.43,267.68,295.75,199.77Z"/><path class="h" d="M410.24,256.88s-1-10.69,8.67-13.22c0,0,6.45,11.86,2.12,18.77,0,0,0,.76.52,1,.74.35,1.88-1.07,3.27-2.22.48-.4,4.07-3.3,7.85-3.07,1.68.11,2.82.79,4.52,1.82a20.24,20.24,0,0,1,6.38,6.19,15.54,15.54,0,0,1-.41,5.22,16.86,16.86,0,0,1-6.53,9.31s11.8,3.83,8.66,13.61a19.07,19.07,0,0,1-12.57,4,18.27,18.27,0,0,1-8.07-2.44,15.14,15.14,0,0,1-1.3,5.4,16.65,16.65,0,0,1-8.59,8.18s-10.16-1.14-10.95-17.2c0,0-5.55,3.13-13.81-8,0,0-.2-5.21,5.68-11.57a16.77,16.77,0,0,1-3.18-6.78A17.53,17.53,0,0,1,394.33,254a12.69,12.69,0,0,1,5.61-1.6C405.7,252.16,409.57,256.17,410.24,256.88Z"/><path class="i" d="M423.89,294.24a.65.65,0,0,1-.19,0,6.4,6.4,0,0,1-3.4-7.44.51.51,0,0,1,.59-.38.5.5,0,0,1,.38.6,5.3,5.3,0,0,0,2.82,6.3.49.49,0,0,1,.26.65A.5.5,0,0,1,423.89,294.24Z"/><path class="i" d="M414.76,310a.49.49,0,0,1-.46-.33c-.16-.43-3.86-10.65,3.06-26.33a.5.5,0,0,1,.91.41c-6.75,15.3-3.08,25.47-3,25.57a.49.49,0,0,1-.29.64A.39.39,0,0,1,414.76,310Z"/><path class="i" d="M390.87,284.51a.5.5,0,0,1-.06-1c15.92-2,52.19-17.68,52.56-17.83a.5.5,0,1,1,.39.91c-.36.16-36.76,15.87-52.83,17.91Z"/><path class="i" d="M445.13,294.69H445a45.27,45.27,0,0,1-18-9.79.48.48,0,0,1,0-.7.5.5,0,0,1,.71,0,44.28,44.28,0,0,0,17.51,9.56.5.5,0,0,1-.11,1Z"/><path class="i" d="M413.69,268.05a.49.49,0,0,1-.4-.21,20.44,20.44,0,0,1-4-11.19.5.5,0,0,1,.48-.52h0a.5.5,0,0,1,.5.48,18.82,18.82,0,0,0,.35,2.9,20.17,20.17,0,0,0,3.42,7.76.51.51,0,0,1-.11.7A.53.53,0,0,1,413.69,268.05Z"/><path class="i" d="M416.46,264.37A.5.5,0,0,1,416,264c-3.13-8.73,2.24-20.12,2.47-20.6a.5.5,0,1,1,.9.44c-.05.11-5.42,11.49-2.43,19.82a.49.49,0,0,1-.3.64A.47.47,0,0,1,416.46,264.37Z"/><path class="i" d="M412.44,269.58h-.08a27.19,27.19,0,0,1-18.49-15.38.5.5,0,0,1,.92-.41,26.6,26.6,0,0,0,17.73,14.81.49.49,0,0,1,.41.57A.5.5,0,0,1,412.44,269.58Z"/><path class="i" d="M409.37,275.52c-3.23,0-9.42-.53-13.89-2.43a.49.49,0,0,1-.26-.65.5.5,0,0,1,.65-.27c5.66,2.4,14.39,2.49,15.21,2.28a.46.46,0,0,1,.64.21.52.52,0,0,1-.23.69A7.52,7.52,0,0,1,409.37,275.52Z"/><path class="i" d="M403.56,293.11a.52.52,0,0,1-.21,0,.5.5,0,0,1-.25-.66,28.29,28.29,0,0,1,3-5.26,28.64,28.64,0,0,1,8.88-7.92.5.5,0,0,1,.68.19.49.49,0,0,1-.18.68A27.35,27.35,0,0,0,404,292.81.49.49,0,0,1,403.56,293.11Z"/><path class="i" d="M417.63,286.56c2.11.83,3.64,1.27,5.39,1,2.49-.42,4.08-2.22,5.26-3.7C432,279.14,433,271,433,271c-1.47-1.82-5.49-6.27-11.66-7.07a9.38,9.38,0,0,0-6.1.75c-3.69,2.05-4.45,6.69-4.66,8a14,14,0,0,0,.14,5.17,3.74,3.74,0,0,1,2.69,1.87,3.62,3.62,0,0,1,.17,3.65S416.28,286,417.63,286.56Z"/><g class="j"><path class="i" d="M414,274.09a3.76,3.76,0,0,1,1.06-1.5,1.29,1.29,0,0,1,1.69.08,1.48,1.48,0,0,1,0,1.56,3.77,3.77,0,0,1-1.95,1.9,2.14,2.14,0,0,0,2.61-.74,12.26,12.26,0,0,1,2.83-2.69,2.71,2.71,0,0,1,.92-.41,1.16,1.16,0,0,1,1,.18,1.55,1.55,0,0,1,.32,1.6A4.42,4.42,0,0,1,420.1,277c-1.29.61-2.17,1.33-3.6,1.42a11.48,11.48,0,0,1,2.59.54,1.83,1.83,0,0,1,.67.33.73.73,0,0,1,.28.65c-.06.36-.44.56-.78.67a4.55,4.55,0,0,1-4.33-1,16.45,16.45,0,0,0,6,6.19,7.19,7.19,0,0,1-5.07-2.45,15.19,15.19,0,0,1-2.64-4.86,15.76,15.76,0,0,1-1.26-6.68,7.05,7.05,0,0,1,3.28-5.7C413.61,268.26,413.38,271.48,414,274.09Z"/></g><path class="f" d="M216.5,389.78l-.5-.87A443.48,443.48,0,0,0,397.12,191.63l.91.42A444.53,444.53,0,0,1,216.5,389.78Z"/><path class="f" d="M290.68,336l-.79-.62c17.28-22.37,20.83-54.59,8.83-80.19l.9-.42C311.78,280.69,308.19,313.34,290.68,336Z"/><path class="i" d="M334.15,202.35s21.93,9.1,28.73,35.8C362.88,238.15,333.27,248.18,334.15,202.35Z"/><path class="i" d="M346.13,195.32s-3.19,23.53,16.46,42.85C362.59,238.17,386.17,217.63,346.13,195.32Z"/><polygon class="i" points="334.15 202.35 346.13 195.32 350.31 217.92 334.15 202.35"/><g class="j"><path class="i" d="M359,238.84c-13.37-12.13-13.34-42.25-13.33-43.52h1c0,.31,0,31,13,42.78Z"/></g><g class="j"><path class="i" d="M347.11,212.43c-3.94-7.29-13-9.57-13.08-9.6l.24-1c.39.09,9.56,2.4,13.72,10.1Z"/></g><path class="g" d="M364.94,238.57s-15.45-12.49-30.85-2.83C334.09,235.74,346.65,250.5,364.94,238.57Z"/><path class="g" d="M364.74,238.68s14.23-13.86,6.44-30.29C371.18,208.39,355.06,219.12,364.74,238.68Z"/><path class="h" d="M366,162.47s-15-5.08-12.54-19.68c0,0,19.86-1.5,26.55,8.51,0,0,1,.42,1.64-.09.93-.77-.29-3.18-1-5.74-.24-.9-2-7.48.63-12.42,1.16-2.21,2.77-3.32,5.18-5a29.86,29.86,0,0,1,12.18-4.84,22.91,22.91,0,0,1,6.79,3.72A24.82,24.82,0,0,1,414,141.37s12.3-13.56,23.56-3.41a28.08,28.08,0,0,1-2.2,19.34,27,27,0,0,1-8.17,9.38,22.47,22.47,0,0,1,6.48,5c5.66,6.38,5.84,14.12,5.8,16.51,0,0-7.68,13-29.77,4.31,0,0,.85,9.37-19.18,13.72,0,0-7.13-2.88-12.13-14.65a24.81,24.81,0,0,1-11,.18,25.89,25.89,0,0,1-14.88-9.66,18.53,18.53,0,0,1,1.25-8.51C356.89,165.71,364.62,162.93,366,162.47Z"/><path class="i" d="M418.29,169a9.69,9.69,0,0,1-5.86-2.11A.5.5,0,0,1,413,166a8.18,8.18,0,0,0,10.48,0,.51.51,0,0,1,.71,0,.5.5,0,0,1,0,.71A9.47,9.47,0,0,1,418.29,169Z"/><path class="i" d="M439.45,188.71h0c-.17,0-16.58-1.25-33.41-20a.49.49,0,0,1,0-.7.48.48,0,0,1,.7,0c16.54,18.39,32.57,19.64,32.73,19.65a.49.49,0,0,1,.47.53A.51.51,0,0,1,439.45,188.71Z"/><path class="i" d="M390.76,205.46a.32.32,0,0,1-.14,0,.5.5,0,0,1-.34-.62c6.94-22.69,7.84-81,7.85-81.58a.51.51,0,0,1,.5-.5h0a.5.5,0,0,1,.49.51c0,.59-.92,59-7.89,81.86A.5.5,0,0,1,390.76,205.46Z"/><path class="i" d="M413.56,156.62a.5.5,0,0,1-.2-1,65.62,65.62,0,0,0,23.56-17.86.51.51,0,0,1,.7-.1.5.5,0,0,1,.09.7,66.28,66.28,0,0,1-23.95,18.17A.45.45,0,0,1,413.56,156.62Z"/><path class="i" d="M376.2,165.41a30,30,0,0,1-6.69-.75,28.88,28.88,0,0,1-4.3-1.34.5.5,0,0,1-.28-.65.51.51,0,0,1,.65-.28,28,28,0,0,0,4.15,1.29,29.75,29.75,0,0,0,12.61.11.49.49,0,0,1,.59.39.51.51,0,0,1-.39.59A32,32,0,0,1,376.2,165.41Z"/><path class="i" d="M379.16,158.82h0c-13.55-1.06-25.55-15.11-26.05-15.71a.5.5,0,1,1,.76-.65c.13.15,12.24,14.34,25.37,15.37a.49.49,0,0,1,.46.53A.5.5,0,0,1,379.16,158.82Z"/><path class="i" d="M352.55,182.61a.55.55,0,0,1-.6-.5.51.51,0,0,1,.5-.5h.1a38.83,38.83,0,0,0,30.77-15,.5.5,0,1,1,.83.55A39.89,39.89,0,0,1,352.55,182.61Z"/><path class="i" d="M378.37,192.09a.49.49,0,0,1-.37-.16.5.5,0,0,1,0-.71c7.05-6.53,12.23-18.41,12.33-19.21a.47.47,0,0,1,.46-.51.51.51,0,0,1,.54.48c.09,1.09-5.74,13.57-12.65,20A.5.5,0,0,1,378.37,192.09Z"/><path class="i" d="M410,193.59a.49.49,0,0,1-.37-.16,41.49,41.49,0,0,1-10.45-23.88.49.49,0,0,1,.44-.54.5.5,0,0,1,.55.45,40.63,40.63,0,0,0,10.2,23.3.49.49,0,0,1,0,.7A.5.5,0,0,1,410,193.59Z"/><path class="i" d="M410.4,170.5c2.38-2.35,3.91-4.13,4.58-6.66,1-3.61-.51-6.84-1.78-9.32-4.06-7.91-14.43-14.07-14.43-14.07-3.34.88-11.76,3.6-16.58,11.41-1.28,2.06-3,4.94-2.68,8.66.52,6.2,6.31,10,7.89,11.09a20.37,20.37,0,0,0,7,2.94c1-1.23,2.47-2.57,4.15-2.48a5.32,5.32,0,0,1,5,2S408.88,172,410.4,170.5Z"/><g class="j"><path class="i" d="M391.44,167.76a5.52,5.52,0,0,1-1.38-2.33,1.9,1.9,0,0,1,1.13-2.22,2.23,2.23,0,0,1,2.12.93,5.54,5.54,0,0,1,1.36,3.77,3.14,3.14,0,0,0,.59-3.95,18.36,18.36,0,0,1-1.91-5.44,4.32,4.32,0,0,1,0-1.48,1.73,1.73,0,0,1,.83-1.18,2.24,2.24,0,0,1,2.34.53,6.56,6.56,0,0,1,2.44,5c0,2.11.46,3.73-.28,5.71A17.25,17.25,0,0,1,401,163.9a2.59,2.59,0,0,1,.85-.7,1.06,1.06,0,0,1,1.05,0,1.47,1.47,0,0,1,.42,1.45,6.72,6.72,0,0,1-3.91,5.25,24.37,24.37,0,0,0,11.95-4.3A10.64,10.64,0,0,1,405,171a22.72,22.72,0,0,1-8.14.61,23.64,23.64,0,0,1-9.76-2.35c-2.95-1.61-5.39-4.51-5.67-7.86C383.35,164.82,387.52,167.08,391.44,167.76Z"/></g><path class="f" d="M358.75,260.15l-.86-.51a33.1,33.1,0,0,0,3.95-10.19,33.52,33.52,0,0,0-.2-14.34l1-.23a34.6,34.6,0,0,1,.21,14.78A33.94,33.94,0,0,1,358.75,260.15Z"/><path class="f" d="M447.55,133.17l-1-.28c4.85-16.57-7.84-33.35-22.57-42.63a186.43,186.43,0,0,0-18.48-9.77C396.15,76,386.45,71.3,378.42,64.4,360.5,49,352.9,22.54,359.93,0l.95.3c-6.91,22.17.57,48.22,18.19,63.34,7.93,6.82,17.57,11.46,26.9,16a187.63,187.63,0,0,1,18.58,9.83C439.6,98.9,452.55,116.1,447.55,133.17Z"/><path class="f" d="M359.58,125.6l-.82-.57C371.82,106.5,390.54,93.25,416,84.52l.33,1C391.07,94.13,372.51,107.25,359.58,125.6Z"/><path class="g" d="M277.33,63.9c-1.14,1.12,82.43,28.51,92.12-11.68C369.45,52.22,322.33,19.68,277.33,63.9Z"/><path class="f" d="M313.71,60l-.37-.93c15.93-6.26,55.7-7.3,56.1-7.31l0,1C369.06,52.73,329.47,53.76,313.71,60Z"/><circle class="i" cx="416.75" cy="77.78" r="6.06"/><path class="g" d="M415.43,84s.07-7.21-6.15-9.4C409.28,74.57,407.92,81.46,415.43,84Z"/><path class="g" d="M415.35,83.94s7.15.92,10.07-5C425.42,78.94,418.73,76.78,415.35,83.94Z"/></g></svg>