<svg xmlns="http://www.w3.org/2000/svg" viewBox="0 0 337.45 181.04"><defs><style>.a{isolation:isolate;}.b,.c{fill:#7489ff;}.c{fill-rule:evenodd;}.d{fill:#082554;}.e{fill:#3b5fc4;}.f{fill:#fff;}.g{fill:#f29cf7;}.h{mix-blend-mode:multiply;}</style></defs><title>right-top400x</title><g class="a"><circle class="b" cx="143.9" cy="128.29" r="4.44"/><path class="c" d="M52.33,141.53a10.67,10.67,0,1,0-15,2A10.68,10.68,0,0,0,52.33,141.53Zm-2.12-1.62a8,8,0,1,1-1.51-11.22A8,8,0,0,1,50.21,139.91Z"/><path class="c" d="M32.76,151.76l6.48-8.48a1.33,1.33,0,0,0-2.12-1.62l-6.48,8.48a1.33,1.33,0,1,0,2.12,1.62Z"/><path class="c" d="M31,145.34l6.36,4.86a1.33,1.33,0,1,0,1.62-2.12l-6.36-4.86A1.33,1.33,0,0,0,31,145.34Z"/><path class="c" d="M230,92.22a10.67,10.67,0,1,0-7.28,13.21A10.66,10.66,0,0,0,230,92.22Zm-2.56.74a8,8,0,1,1-9.91-5.46A8,8,0,0,1,227.45,93Z"/><path class="c" d="M226.61,114l-3-10.25a1.33,1.33,0,1,0-2.56.74l3,10.25a1.33,1.33,0,0,0,2.56-.74Z"/><path class="c" d="M220.37,111.67l7.69-2.23a1.33,1.33,0,0,0-.74-2.56l-7.69,2.23a1.33,1.33,0,0,0,.74,2.56Z"/><path class="d" d="M23.36,68.2A115,115,0,0,1,0,65.81l.2-1A115.2,115.2,0,0,0,75.4,54.79,115.17,115.17,0,0,0,127.88,0l.91.41A116.1,116.1,0,0,1,75.85,55.68,116.14,116.14,0,0,1,23.36,68.2Z"/><path class="d" d="M115.82,136.57l-.93-.36C124,113.06,146.3,94.66,176,85.72c24.4-7.33,50.45-7.85,75.65-8.34l5.36-.11c27.94-.58,55.08-1.94,80.07-12l.37.93c-25.15,10.08-52.39,11.44-80.42,12l-5.36.11c-25.13.49-51.12,1-75.38,8.3C146.88,95.52,124.84,113.71,115.82,136.57Z"/><path class="d" d="M150.08,94.82a52.42,52.42,0,0,1-30.77-10l.59-.81a51.23,51.23,0,0,0,38.2,9.12l.17,1A49.83,49.83,0,0,1,150.08,94.82Z"/><path class="e" d="M213.59,69.57S212.34,54.93,185.11,50s-42.81,3.39-49.38-3.57-7.9-1.05.45,8.64S177.68,101.58,213.59,69.57Z"/><path class="d" d="M217.06,80.2c-.5-3.84-1.87-6.79-4.07-8.77-3.73-3.36-8.83-3-14.73-2.58a76,76,0,0,1-7.95.29c-9.3-.29-18.76-3.79-28.11-10.38l.58-.82c9.19,6.48,18.46,9.91,27.56,10.2a77.06,77.06,0,0,0,7.85-.28c6.13-.44,11.42-.82,15.47,2.83,2.38,2.14,3.86,5.3,4.4,9.38Z"/><path class="f" d="M98.88,119.12s-10.06-12.25-.24-23.33c0,0,17.65,9.23,18,21.26,0,0,.66.9,1.44.79,1.2-.17,1.43-2.85,2.19-5.4.26-.89,2.27-7.39,7.09-10.22,2.15-1.25,4.11-1.35,7-1.49a29.86,29.86,0,0,1,12.9,2.34,22.94,22.94,0,0,1,3.8,6.74,24.82,24.82,0,0,1-.35,16.77s17.6-5,21.8,9.55a28.19,28.19,0,0,1-12.09,15.26A27,27,0,0,1,148.6,155a22.39,22.39,0,0,1,2.84,7.69c1.44,8.41-2.5,15.08-3.8,17.08,0,0-13.38,7-27.55-12.07,0,0-4.23,8.4-23.53,1.5,0,0-4.53-6.21-2.56-18.84a24.85,24.85,0,0,1-9.47-5.68A25.93,25.93,0,0,1,77,128.65a18.61,18.61,0,0,1,5.56-6.58C89.44,117.07,97.47,118.79,98.88,119.12Z"/><path class="g" d="M144.79,153.62a9.1,9.1,0,0,1-8.79-6.24.49.49,0,0,1,.28-.65.5.5,0,0,1,.65.28c2.61,6.63,8.64,5.59,8.89,5.54a.51.51,0,0,1,.59.4.51.51,0,0,1-.4.59A8.71,8.71,0,0,1,144.79,153.62Z"/><path class="g" d="M147.64,180.3a.46.46,0,0,1-.29-.1c-.13-.09-13.4-9.82-17.8-34.61A.5.5,0,0,1,130,145a.5.5,0,0,1,.58.4c4.31,24.36,17.26,33.89,17.4,34a.51.51,0,0,1,.11.7A.52.52,0,0,1,147.64,180.3Z"/><path class="g" d="M97.46,168.79a.5.5,0,0,1-.33-.88c17.88-15.6,49.46-64.62,49.78-65.11a.5.5,0,1,1,.84.54c-.32.49-32,49.63-50,65.32A.48.48,0,0,1,97.46,168.79Z"/><path class="g" d="M151.39,140a62.36,62.36,0,0,1-8.84-.62.49.49,0,0,1-.42-.56.5.5,0,0,1,.56-.43,65.6,65.6,0,0,0,29.44-2.7.5.5,0,0,1,.64.28.51.51,0,0,1-.28.65A65.5,65.5,0,0,1,151.39,140Z"/><path class="g" d="M111.89,129.85a.57.57,0,0,1-.18,0,30.58,30.58,0,0,1-11-7,29.75,29.75,0,0,1-2.94-3.4.5.5,0,0,1,.11-.7.51.51,0,0,1,.7.1,27,27,0,0,0,2.84,3.29,29.75,29.75,0,0,0,10.64,6.75.5.5,0,0,1-.17,1Z"/><path class="g" d="M112.26,123.07a.47.47,0,0,1-.3-.1C101,114.91,98.26,96.64,98.15,95.86a.5.5,0,0,1,1-.14c0,.18,2.81,18.63,13.41,26.45a.5.5,0,0,1,.11.7A.51.51,0,0,1,112.26,123.07Z"/><path class="g" d="M97.92,135.19a39.48,39.48,0,0,1-21.17-6.12.49.49,0,0,1-.16-.69.5.5,0,0,1,.69-.15,39.55,39.55,0,0,0,34.12,3.57.5.5,0,0,1,.42.91A38,38,0,0,1,97.92,135.19Z"/><path class="g" d="M94,150.89a.5.5,0,0,1-.1-1c9.45-1.82,20.12-9.17,20.63-9.8a.48.48,0,0,1,.66-.19.52.52,0,0,1,.2.7c-.5,1-12,8.49-21.3,10.27Z"/><path class="g" d="M120.07,168.89a.49.49,0,0,1-.49-.42,41.54,41.54,0,0,1,3.74-25.78.5.5,0,0,1,.9.44,40.63,40.63,0,0,0-3.66,25.17.5.5,0,0,1-.4.58Z"/><path class="g" d="M132.34,149.41c3.26-.73,5.5-1.44,7.41-3.23,2.72-2.56,3.18-6.07,3.41-8.86.74-8.86-4.82-19.56-4.82-19.56-3.29-1-11.87-3.16-20.1.92-2.17,1.08-5.15,2.61-6.85,5.93-2.83,5.55,0,11.87.84,13.6a20.16,20.16,0,0,0,4.42,6.2c1.5-.5,3.45-.88,4.83.09a5.31,5.31,0,0,1,3.2,4.33S130.26,149.87,132.34,149.41Z"/><g class="h"><path class="g" d="M117.69,137.07a5.4,5.4,0,0,1,.07-2.71,1.89,1.89,0,0,1,2.12-1.29,2.25,2.25,0,0,1,1.31,1.91,5.62,5.62,0,0,1-.83,3.93,3.14,3.14,0,0,0,2.58-3,18.48,18.48,0,0,1,1.26-5.63A4.08,4.08,0,0,1,125,129a1.74,1.74,0,0,1,1.32-.57c.85.07,1.43.9,1.71,1.7a6.54,6.54,0,0,1-.55,5.49c-1.09,1.8-1.58,3.41-3.24,4.7a17.2,17.2,0,0,1,3.61-1.47,2.86,2.86,0,0,1,1.08-.15,1.08,1.08,0,0,1,.89.58,1.48,1.48,0,0,1-.41,1.45,6.73,6.73,0,0,1-6.09,2.39,24.31,24.31,0,0,0,12.41,2.67,10.63,10.63,0,0,1-8.22,1.16,22.62,22.62,0,0,1-7.24-3.79,23.57,23.57,0,0,1-7-7.14c-1.66-2.93-2.2-6.68-.66-9.68C112.37,130.29,114.73,134.42,117.69,137.07Z"/></g><path class="e" d="M201.92,164.35c.41,1.55,65.5-57.6,35.33-85.87C237.25,78.48,185.69,103.39,201.92,164.35Z"/><path class="d" d="M216.46,130.77l-1-.14c2.42-16.94,21.15-52,21.34-52.38l.88.47C237.51,79.07,218.85,114,216.46,130.77Z"/><circle class="g" cx="121.45" cy="80.33" r="6.06"/><path class="e" d="M120.12,86.52s.08-7.21-6.14-9.4C114,77.12,112.61,84,120.12,86.52Z"/><path class="e" d="M120.05,86.49s7.15.92,10.06-5C130.11,81.49,123.43,79.33,120.05,86.49Z"/></g></svg>